%TF.GenerationSoftware,KiCad,Pcbnew,8.0.6*%
%TF.CreationDate,2024-11-26T16:01:51+01:00*%
%TF.ProjectId,PicoA10400,5069636f-4131-4303-9430-302e6b696361,rev?*%
%TF.SameCoordinates,Original*%
%TF.FileFunction,Legend,Bot*%
%TF.FilePolarity,Positive*%
%FSLAX46Y46*%
G04 Gerber Fmt 4.6, Leading zero omitted, Abs format (unit mm)*
G04 Created by KiCad (PCBNEW 8.0.6) date 2024-11-26 16:01:51*
%MOMM*%
%LPD*%
G01*
G04 APERTURE LIST*
%ADD10C,0.150000*%
%ADD11C,0.200000*%
%ADD12C,0.700000*%
%ADD13C,0.000000*%
%ADD14C,0.120000*%
G04 APERTURE END LIST*
D10*
X128749819Y-141031779D02*
X127749819Y-141031779D01*
X127749819Y-141031779D02*
X127749819Y-141412731D01*
X127749819Y-141412731D02*
X127797438Y-141507969D01*
X127797438Y-141507969D02*
X127845057Y-141555588D01*
X127845057Y-141555588D02*
X127940295Y-141603207D01*
X127940295Y-141603207D02*
X128083152Y-141603207D01*
X128083152Y-141603207D02*
X128178390Y-141555588D01*
X128178390Y-141555588D02*
X128226009Y-141507969D01*
X128226009Y-141507969D02*
X128273628Y-141412731D01*
X128273628Y-141412731D02*
X128273628Y-141031779D01*
X128749819Y-142174636D02*
X128702200Y-142079398D01*
X128702200Y-142079398D02*
X128654580Y-142031779D01*
X128654580Y-142031779D02*
X128559342Y-141984160D01*
X128559342Y-141984160D02*
X128273628Y-141984160D01*
X128273628Y-141984160D02*
X128178390Y-142031779D01*
X128178390Y-142031779D02*
X128130771Y-142079398D01*
X128130771Y-142079398D02*
X128083152Y-142174636D01*
X128083152Y-142174636D02*
X128083152Y-142317493D01*
X128083152Y-142317493D02*
X128130771Y-142412731D01*
X128130771Y-142412731D02*
X128178390Y-142460350D01*
X128178390Y-142460350D02*
X128273628Y-142507969D01*
X128273628Y-142507969D02*
X128559342Y-142507969D01*
X128559342Y-142507969D02*
X128654580Y-142460350D01*
X128654580Y-142460350D02*
X128702200Y-142412731D01*
X128702200Y-142412731D02*
X128749819Y-142317493D01*
X128749819Y-142317493D02*
X128749819Y-142174636D01*
X128083152Y-142841303D02*
X128749819Y-143031779D01*
X128749819Y-143031779D02*
X128273628Y-143222255D01*
X128273628Y-143222255D02*
X128749819Y-143412731D01*
X128749819Y-143412731D02*
X128083152Y-143603207D01*
X128702200Y-144365112D02*
X128749819Y-144269874D01*
X128749819Y-144269874D02*
X128749819Y-144079398D01*
X128749819Y-144079398D02*
X128702200Y-143984160D01*
X128702200Y-143984160D02*
X128606961Y-143936541D01*
X128606961Y-143936541D02*
X128226009Y-143936541D01*
X128226009Y-143936541D02*
X128130771Y-143984160D01*
X128130771Y-143984160D02*
X128083152Y-144079398D01*
X128083152Y-144079398D02*
X128083152Y-144269874D01*
X128083152Y-144269874D02*
X128130771Y-144365112D01*
X128130771Y-144365112D02*
X128226009Y-144412731D01*
X128226009Y-144412731D02*
X128321247Y-144412731D01*
X128321247Y-144412731D02*
X128416485Y-143936541D01*
X128749819Y-144841303D02*
X128083152Y-144841303D01*
X128273628Y-144841303D02*
X128178390Y-144888922D01*
X128178390Y-144888922D02*
X128130771Y-144936541D01*
X128130771Y-144936541D02*
X128083152Y-145031779D01*
X128083152Y-145031779D02*
X128083152Y-145127017D01*
D11*
X92579285Y-185493803D02*
X92579285Y-186993803D01*
X93079286Y-186493803D02*
X93650714Y-186493803D01*
X93293571Y-185493803D02*
X93293571Y-186779517D01*
X93293571Y-186779517D02*
X93365000Y-186922374D01*
X93365000Y-186922374D02*
X93507857Y-186993803D01*
X93507857Y-186993803D02*
X93650714Y-186993803D01*
X95150714Y-186493803D02*
X95507857Y-185493803D01*
X95865000Y-186493803D02*
X95507857Y-185493803D01*
X95507857Y-185493803D02*
X95365000Y-185136660D01*
X95365000Y-185136660D02*
X95293571Y-185065232D01*
X95293571Y-185065232D02*
X95150714Y-184993803D01*
X96650714Y-185493803D02*
X96507857Y-185565232D01*
X96507857Y-185565232D02*
X96436428Y-185636660D01*
X96436428Y-185636660D02*
X96365000Y-185779517D01*
X96365000Y-185779517D02*
X96365000Y-186208089D01*
X96365000Y-186208089D02*
X96436428Y-186350946D01*
X96436428Y-186350946D02*
X96507857Y-186422374D01*
X96507857Y-186422374D02*
X96650714Y-186493803D01*
X96650714Y-186493803D02*
X96865000Y-186493803D01*
X96865000Y-186493803D02*
X97007857Y-186422374D01*
X97007857Y-186422374D02*
X97079286Y-186350946D01*
X97079286Y-186350946D02*
X97150714Y-186208089D01*
X97150714Y-186208089D02*
X97150714Y-185779517D01*
X97150714Y-185779517D02*
X97079286Y-185636660D01*
X97079286Y-185636660D02*
X97007857Y-185565232D01*
X97007857Y-185565232D02*
X96865000Y-185493803D01*
X96865000Y-185493803D02*
X96650714Y-185493803D01*
X98436429Y-186493803D02*
X98436429Y-185493803D01*
X97793571Y-186493803D02*
X97793571Y-185708089D01*
X97793571Y-185708089D02*
X97865000Y-185565232D01*
X97865000Y-185565232D02*
X98007857Y-185493803D01*
X98007857Y-185493803D02*
X98222143Y-185493803D01*
X98222143Y-185493803D02*
X98365000Y-185565232D01*
X98365000Y-185565232D02*
X98436429Y-185636660D01*
X100936429Y-185565232D02*
X100793571Y-185493803D01*
X100793571Y-185493803D02*
X100507857Y-185493803D01*
X100507857Y-185493803D02*
X100365000Y-185565232D01*
X100365000Y-185565232D02*
X100293571Y-185636660D01*
X100293571Y-185636660D02*
X100222143Y-185779517D01*
X100222143Y-185779517D02*
X100222143Y-186208089D01*
X100222143Y-186208089D02*
X100293571Y-186350946D01*
X100293571Y-186350946D02*
X100365000Y-186422374D01*
X100365000Y-186422374D02*
X100507857Y-186493803D01*
X100507857Y-186493803D02*
X100793571Y-186493803D01*
X100793571Y-186493803D02*
X100936429Y-186422374D01*
X102222143Y-185493803D02*
X102222143Y-186279517D01*
X102222143Y-186279517D02*
X102150714Y-186422374D01*
X102150714Y-186422374D02*
X102007857Y-186493803D01*
X102007857Y-186493803D02*
X101722143Y-186493803D01*
X101722143Y-186493803D02*
X101579285Y-186422374D01*
X102222143Y-185565232D02*
X102079285Y-185493803D01*
X102079285Y-185493803D02*
X101722143Y-185493803D01*
X101722143Y-185493803D02*
X101579285Y-185565232D01*
X101579285Y-185565232D02*
X101507857Y-185708089D01*
X101507857Y-185708089D02*
X101507857Y-185850946D01*
X101507857Y-185850946D02*
X101579285Y-185993803D01*
X101579285Y-185993803D02*
X101722143Y-186065232D01*
X101722143Y-186065232D02*
X102079285Y-186065232D01*
X102079285Y-186065232D02*
X102222143Y-186136660D01*
X102936428Y-186493803D02*
X102936428Y-185493803D01*
X102936428Y-186350946D02*
X103007857Y-186422374D01*
X103007857Y-186422374D02*
X103150714Y-186493803D01*
X103150714Y-186493803D02*
X103365000Y-186493803D01*
X103365000Y-186493803D02*
X103507857Y-186422374D01*
X103507857Y-186422374D02*
X103579286Y-186279517D01*
X103579286Y-186279517D02*
X103579286Y-185493803D01*
X105365000Y-185565232D02*
X105507857Y-185493803D01*
X105507857Y-185493803D02*
X105793571Y-185493803D01*
X105793571Y-185493803D02*
X105936428Y-185565232D01*
X105936428Y-185565232D02*
X106007857Y-185708089D01*
X106007857Y-185708089D02*
X106007857Y-185779517D01*
X106007857Y-185779517D02*
X105936428Y-185922374D01*
X105936428Y-185922374D02*
X105793571Y-185993803D01*
X105793571Y-185993803D02*
X105579286Y-185993803D01*
X105579286Y-185993803D02*
X105436428Y-186065232D01*
X105436428Y-186065232D02*
X105365000Y-186208089D01*
X105365000Y-186208089D02*
X105365000Y-186279517D01*
X105365000Y-186279517D02*
X105436428Y-186422374D01*
X105436428Y-186422374D02*
X105579286Y-186493803D01*
X105579286Y-186493803D02*
X105793571Y-186493803D01*
X105793571Y-186493803D02*
X105936428Y-186422374D01*
X107222143Y-185565232D02*
X107079286Y-185493803D01*
X107079286Y-185493803D02*
X106793572Y-185493803D01*
X106793572Y-185493803D02*
X106650714Y-185565232D01*
X106650714Y-185565232D02*
X106579286Y-185708089D01*
X106579286Y-185708089D02*
X106579286Y-186279517D01*
X106579286Y-186279517D02*
X106650714Y-186422374D01*
X106650714Y-186422374D02*
X106793572Y-186493803D01*
X106793572Y-186493803D02*
X107079286Y-186493803D01*
X107079286Y-186493803D02*
X107222143Y-186422374D01*
X107222143Y-186422374D02*
X107293572Y-186279517D01*
X107293572Y-186279517D02*
X107293572Y-186136660D01*
X107293572Y-186136660D02*
X106579286Y-185993803D01*
X108507857Y-185565232D02*
X108365000Y-185493803D01*
X108365000Y-185493803D02*
X108079286Y-185493803D01*
X108079286Y-185493803D02*
X107936428Y-185565232D01*
X107936428Y-185565232D02*
X107865000Y-185708089D01*
X107865000Y-185708089D02*
X107865000Y-186279517D01*
X107865000Y-186279517D02*
X107936428Y-186422374D01*
X107936428Y-186422374D02*
X108079286Y-186493803D01*
X108079286Y-186493803D02*
X108365000Y-186493803D01*
X108365000Y-186493803D02*
X108507857Y-186422374D01*
X108507857Y-186422374D02*
X108579286Y-186279517D01*
X108579286Y-186279517D02*
X108579286Y-186136660D01*
X108579286Y-186136660D02*
X107865000Y-185993803D01*
X110150714Y-186493803D02*
X110722142Y-186493803D01*
X110364999Y-186993803D02*
X110364999Y-185708089D01*
X110364999Y-185708089D02*
X110436428Y-185565232D01*
X110436428Y-185565232D02*
X110579285Y-185493803D01*
X110579285Y-185493803D02*
X110722142Y-185493803D01*
X111222142Y-185493803D02*
X111222142Y-186993803D01*
X111865000Y-185493803D02*
X111865000Y-186279517D01*
X111865000Y-186279517D02*
X111793571Y-186422374D01*
X111793571Y-186422374D02*
X111650714Y-186493803D01*
X111650714Y-186493803D02*
X111436428Y-186493803D01*
X111436428Y-186493803D02*
X111293571Y-186422374D01*
X111293571Y-186422374D02*
X111222142Y-186350946D01*
X112579285Y-185493803D02*
X112579285Y-186493803D01*
X112579285Y-186993803D02*
X112507857Y-186922374D01*
X112507857Y-186922374D02*
X112579285Y-186850946D01*
X112579285Y-186850946D02*
X112650714Y-186922374D01*
X112650714Y-186922374D02*
X112579285Y-186993803D01*
X112579285Y-186993803D02*
X112579285Y-186850946D01*
X113222143Y-185565232D02*
X113365000Y-185493803D01*
X113365000Y-185493803D02*
X113650714Y-185493803D01*
X113650714Y-185493803D02*
X113793571Y-185565232D01*
X113793571Y-185565232D02*
X113865000Y-185708089D01*
X113865000Y-185708089D02*
X113865000Y-185779517D01*
X113865000Y-185779517D02*
X113793571Y-185922374D01*
X113793571Y-185922374D02*
X113650714Y-185993803D01*
X113650714Y-185993803D02*
X113436429Y-185993803D01*
X113436429Y-185993803D02*
X113293571Y-186065232D01*
X113293571Y-186065232D02*
X113222143Y-186208089D01*
X113222143Y-186208089D02*
X113222143Y-186279517D01*
X113222143Y-186279517D02*
X113293571Y-186422374D01*
X113293571Y-186422374D02*
X113436429Y-186493803D01*
X113436429Y-186493803D02*
X113650714Y-186493803D01*
X113650714Y-186493803D02*
X113793571Y-186422374D01*
X115436429Y-186493803D02*
X116007857Y-186493803D01*
X115650714Y-186993803D02*
X115650714Y-185708089D01*
X115650714Y-185708089D02*
X115722143Y-185565232D01*
X115722143Y-185565232D02*
X115865000Y-185493803D01*
X115865000Y-185493803D02*
X116007857Y-185493803D01*
X117079286Y-185565232D02*
X116936429Y-185493803D01*
X116936429Y-185493803D02*
X116650715Y-185493803D01*
X116650715Y-185493803D02*
X116507857Y-185565232D01*
X116507857Y-185565232D02*
X116436429Y-185708089D01*
X116436429Y-185708089D02*
X116436429Y-186279517D01*
X116436429Y-186279517D02*
X116507857Y-186422374D01*
X116507857Y-186422374D02*
X116650715Y-186493803D01*
X116650715Y-186493803D02*
X116936429Y-186493803D01*
X116936429Y-186493803D02*
X117079286Y-186422374D01*
X117079286Y-186422374D02*
X117150715Y-186279517D01*
X117150715Y-186279517D02*
X117150715Y-186136660D01*
X117150715Y-186136660D02*
X116436429Y-185993803D01*
X117650714Y-185493803D02*
X118436429Y-186493803D01*
X117650714Y-186493803D02*
X118436429Y-185493803D01*
X118793572Y-186493803D02*
X119365000Y-186493803D01*
X119007857Y-186993803D02*
X119007857Y-185708089D01*
X119007857Y-185708089D02*
X119079286Y-185565232D01*
X119079286Y-185565232D02*
X119222143Y-185493803D01*
X119222143Y-185493803D02*
X119365000Y-185493803D01*
X90829286Y-184078887D02*
X91186429Y-183078887D01*
X91543572Y-184078887D02*
X91186429Y-183078887D01*
X91186429Y-183078887D02*
X91043572Y-182721744D01*
X91043572Y-182721744D02*
X90972143Y-182650316D01*
X90972143Y-182650316D02*
X90829286Y-182578887D01*
X92329286Y-183078887D02*
X92186429Y-183150316D01*
X92186429Y-183150316D02*
X92115000Y-183221744D01*
X92115000Y-183221744D02*
X92043572Y-183364601D01*
X92043572Y-183364601D02*
X92043572Y-183793173D01*
X92043572Y-183793173D02*
X92115000Y-183936030D01*
X92115000Y-183936030D02*
X92186429Y-184007458D01*
X92186429Y-184007458D02*
X92329286Y-184078887D01*
X92329286Y-184078887D02*
X92543572Y-184078887D01*
X92543572Y-184078887D02*
X92686429Y-184007458D01*
X92686429Y-184007458D02*
X92757858Y-183936030D01*
X92757858Y-183936030D02*
X92829286Y-183793173D01*
X92829286Y-183793173D02*
X92829286Y-183364601D01*
X92829286Y-183364601D02*
X92757858Y-183221744D01*
X92757858Y-183221744D02*
X92686429Y-183150316D01*
X92686429Y-183150316D02*
X92543572Y-183078887D01*
X92543572Y-183078887D02*
X92329286Y-183078887D01*
X94115001Y-184078887D02*
X94115001Y-183078887D01*
X93472143Y-184078887D02*
X93472143Y-183293173D01*
X93472143Y-183293173D02*
X93543572Y-183150316D01*
X93543572Y-183150316D02*
X93686429Y-183078887D01*
X93686429Y-183078887D02*
X93900715Y-183078887D01*
X93900715Y-183078887D02*
X94043572Y-183150316D01*
X94043572Y-183150316D02*
X94115001Y-183221744D01*
X95972143Y-183078887D02*
X95972143Y-184578887D01*
X96615001Y-183078887D02*
X96615001Y-183864601D01*
X96615001Y-183864601D02*
X96543572Y-184007458D01*
X96543572Y-184007458D02*
X96400715Y-184078887D01*
X96400715Y-184078887D02*
X96186429Y-184078887D01*
X96186429Y-184078887D02*
X96043572Y-184007458D01*
X96043572Y-184007458D02*
X95972143Y-183936030D01*
X97972144Y-183078887D02*
X97972144Y-183864601D01*
X97972144Y-183864601D02*
X97900715Y-184007458D01*
X97900715Y-184007458D02*
X97757858Y-184078887D01*
X97757858Y-184078887D02*
X97472144Y-184078887D01*
X97472144Y-184078887D02*
X97329286Y-184007458D01*
X97972144Y-183150316D02*
X97829286Y-183078887D01*
X97829286Y-183078887D02*
X97472144Y-183078887D01*
X97472144Y-183078887D02*
X97329286Y-183150316D01*
X97329286Y-183150316D02*
X97257858Y-183293173D01*
X97257858Y-183293173D02*
X97257858Y-183436030D01*
X97257858Y-183436030D02*
X97329286Y-183578887D01*
X97329286Y-183578887D02*
X97472144Y-183650316D01*
X97472144Y-183650316D02*
X97829286Y-183650316D01*
X97829286Y-183650316D02*
X97972144Y-183721744D01*
X98543572Y-184078887D02*
X98900715Y-183078887D01*
X98900715Y-183078887D02*
X99257858Y-184078887D01*
X100400715Y-183150316D02*
X100257858Y-183078887D01*
X100257858Y-183078887D02*
X99972144Y-183078887D01*
X99972144Y-183078887D02*
X99829286Y-183150316D01*
X99829286Y-183150316D02*
X99757858Y-183293173D01*
X99757858Y-183293173D02*
X99757858Y-183864601D01*
X99757858Y-183864601D02*
X99829286Y-184007458D01*
X99829286Y-184007458D02*
X99972144Y-184078887D01*
X99972144Y-184078887D02*
X100257858Y-184078887D01*
X100257858Y-184078887D02*
X100400715Y-184007458D01*
X100400715Y-184007458D02*
X100472144Y-183864601D01*
X100472144Y-183864601D02*
X100472144Y-183721744D01*
X100472144Y-183721744D02*
X99757858Y-183578887D01*
X102257857Y-183078887D02*
X102257857Y-184078887D01*
X102257857Y-184578887D02*
X102186429Y-184507458D01*
X102186429Y-184507458D02*
X102257857Y-184436030D01*
X102257857Y-184436030D02*
X102329286Y-184507458D01*
X102329286Y-184507458D02*
X102257857Y-184578887D01*
X102257857Y-184578887D02*
X102257857Y-184436030D01*
X102972143Y-184078887D02*
X102972143Y-183078887D01*
X102972143Y-183936030D02*
X103043572Y-184007458D01*
X103043572Y-184007458D02*
X103186429Y-184078887D01*
X103186429Y-184078887D02*
X103400715Y-184078887D01*
X103400715Y-184078887D02*
X103543572Y-184007458D01*
X103543572Y-184007458D02*
X103615001Y-183864601D01*
X103615001Y-183864601D02*
X103615001Y-183078887D01*
X104257858Y-183150316D02*
X104400715Y-183078887D01*
X104400715Y-183078887D02*
X104686429Y-183078887D01*
X104686429Y-183078887D02*
X104829286Y-183150316D01*
X104829286Y-183150316D02*
X104900715Y-183293173D01*
X104900715Y-183293173D02*
X104900715Y-183364601D01*
X104900715Y-183364601D02*
X104829286Y-183507458D01*
X104829286Y-183507458D02*
X104686429Y-183578887D01*
X104686429Y-183578887D02*
X104472144Y-183578887D01*
X104472144Y-183578887D02*
X104329286Y-183650316D01*
X104329286Y-183650316D02*
X104257858Y-183793173D01*
X104257858Y-183793173D02*
X104257858Y-183864601D01*
X104257858Y-183864601D02*
X104329286Y-184007458D01*
X104329286Y-184007458D02*
X104472144Y-184078887D01*
X104472144Y-184078887D02*
X104686429Y-184078887D01*
X104686429Y-184078887D02*
X104829286Y-184007458D01*
X106115001Y-183150316D02*
X105972144Y-183078887D01*
X105972144Y-183078887D02*
X105686430Y-183078887D01*
X105686430Y-183078887D02*
X105543572Y-183150316D01*
X105543572Y-183150316D02*
X105472144Y-183293173D01*
X105472144Y-183293173D02*
X105472144Y-183864601D01*
X105472144Y-183864601D02*
X105543572Y-184007458D01*
X105543572Y-184007458D02*
X105686430Y-184078887D01*
X105686430Y-184078887D02*
X105972144Y-184078887D01*
X105972144Y-184078887D02*
X106115001Y-184007458D01*
X106115001Y-184007458D02*
X106186430Y-183864601D01*
X106186430Y-183864601D02*
X106186430Y-183721744D01*
X106186430Y-183721744D02*
X105472144Y-183578887D01*
X106829286Y-183078887D02*
X106829286Y-184078887D01*
X106829286Y-183793173D02*
X106900715Y-183936030D01*
X106900715Y-183936030D02*
X106972144Y-184007458D01*
X106972144Y-184007458D02*
X107115001Y-184078887D01*
X107115001Y-184078887D02*
X107257858Y-184078887D01*
X107543572Y-184078887D02*
X108115000Y-184078887D01*
X107757857Y-184578887D02*
X107757857Y-183293173D01*
X107757857Y-183293173D02*
X107829286Y-183150316D01*
X107829286Y-183150316D02*
X107972143Y-183078887D01*
X107972143Y-183078887D02*
X108115000Y-183078887D01*
X109186429Y-183150316D02*
X109043572Y-183078887D01*
X109043572Y-183078887D02*
X108757858Y-183078887D01*
X108757858Y-183078887D02*
X108615000Y-183150316D01*
X108615000Y-183150316D02*
X108543572Y-183293173D01*
X108543572Y-183293173D02*
X108543572Y-183864601D01*
X108543572Y-183864601D02*
X108615000Y-184007458D01*
X108615000Y-184007458D02*
X108757858Y-184078887D01*
X108757858Y-184078887D02*
X109043572Y-184078887D01*
X109043572Y-184078887D02*
X109186429Y-184007458D01*
X109186429Y-184007458D02*
X109257858Y-183864601D01*
X109257858Y-183864601D02*
X109257858Y-183721744D01*
X109257858Y-183721744D02*
X108543572Y-183578887D01*
X110543572Y-183078887D02*
X110543572Y-184578887D01*
X110543572Y-183150316D02*
X110400714Y-183078887D01*
X110400714Y-183078887D02*
X110115000Y-183078887D01*
X110115000Y-183078887D02*
X109972143Y-183150316D01*
X109972143Y-183150316D02*
X109900714Y-183221744D01*
X109900714Y-183221744D02*
X109829286Y-183364601D01*
X109829286Y-183364601D02*
X109829286Y-183793173D01*
X109829286Y-183793173D02*
X109900714Y-183936030D01*
X109900714Y-183936030D02*
X109972143Y-184007458D01*
X109972143Y-184007458D02*
X110115000Y-184078887D01*
X110115000Y-184078887D02*
X110400714Y-184078887D01*
X110400714Y-184078887D02*
X110543572Y-184007458D01*
X112186429Y-184078887D02*
X112757857Y-184078887D01*
X112400714Y-184578887D02*
X112400714Y-183293173D01*
X112400714Y-183293173D02*
X112472143Y-183150316D01*
X112472143Y-183150316D02*
X112615000Y-183078887D01*
X112615000Y-183078887D02*
X112757857Y-183078887D01*
X113257857Y-183078887D02*
X113257857Y-184578887D01*
X113900715Y-183078887D02*
X113900715Y-183864601D01*
X113900715Y-183864601D02*
X113829286Y-184007458D01*
X113829286Y-184007458D02*
X113686429Y-184078887D01*
X113686429Y-184078887D02*
X113472143Y-184078887D01*
X113472143Y-184078887D02*
X113329286Y-184007458D01*
X113329286Y-184007458D02*
X113257857Y-183936030D01*
X115186429Y-183150316D02*
X115043572Y-183078887D01*
X115043572Y-183078887D02*
X114757858Y-183078887D01*
X114757858Y-183078887D02*
X114615000Y-183150316D01*
X114615000Y-183150316D02*
X114543572Y-183293173D01*
X114543572Y-183293173D02*
X114543572Y-183864601D01*
X114543572Y-183864601D02*
X114615000Y-184007458D01*
X114615000Y-184007458D02*
X114757858Y-184078887D01*
X114757858Y-184078887D02*
X115043572Y-184078887D01*
X115043572Y-184078887D02*
X115186429Y-184007458D01*
X115186429Y-184007458D02*
X115257858Y-183864601D01*
X115257858Y-183864601D02*
X115257858Y-183721744D01*
X115257858Y-183721744D02*
X114543572Y-183578887D01*
X117686429Y-183150316D02*
X117543571Y-183078887D01*
X117543571Y-183078887D02*
X117257857Y-183078887D01*
X117257857Y-183078887D02*
X117115000Y-183150316D01*
X117115000Y-183150316D02*
X117043571Y-183221744D01*
X117043571Y-183221744D02*
X116972143Y-183364601D01*
X116972143Y-183364601D02*
X116972143Y-183793173D01*
X116972143Y-183793173D02*
X117043571Y-183936030D01*
X117043571Y-183936030D02*
X117115000Y-184007458D01*
X117115000Y-184007458D02*
X117257857Y-184078887D01*
X117257857Y-184078887D02*
X117543571Y-184078887D01*
X117543571Y-184078887D02*
X117686429Y-184007458D01*
X118972143Y-183078887D02*
X118972143Y-183864601D01*
X118972143Y-183864601D02*
X118900714Y-184007458D01*
X118900714Y-184007458D02*
X118757857Y-184078887D01*
X118757857Y-184078887D02*
X118472143Y-184078887D01*
X118472143Y-184078887D02*
X118329285Y-184007458D01*
X118972143Y-183150316D02*
X118829285Y-183078887D01*
X118829285Y-183078887D02*
X118472143Y-183078887D01*
X118472143Y-183078887D02*
X118329285Y-183150316D01*
X118329285Y-183150316D02*
X118257857Y-183293173D01*
X118257857Y-183293173D02*
X118257857Y-183436030D01*
X118257857Y-183436030D02*
X118329285Y-183578887D01*
X118329285Y-183578887D02*
X118472143Y-183650316D01*
X118472143Y-183650316D02*
X118829285Y-183650316D01*
X118829285Y-183650316D02*
X118972143Y-183721744D01*
X119686428Y-183078887D02*
X119686428Y-184078887D01*
X119686428Y-183793173D02*
X119757857Y-183936030D01*
X119757857Y-183936030D02*
X119829286Y-184007458D01*
X119829286Y-184007458D02*
X119972143Y-184078887D01*
X119972143Y-184078887D02*
X120115000Y-184078887D01*
X120400714Y-184078887D02*
X120972142Y-184078887D01*
X120614999Y-184578887D02*
X120614999Y-183293173D01*
X120614999Y-183293173D02*
X120686428Y-183150316D01*
X120686428Y-183150316D02*
X120829285Y-183078887D01*
X120829285Y-183078887D02*
X120972142Y-183078887D01*
X92115001Y-180735400D02*
X91972143Y-180663971D01*
X91972143Y-180663971D02*
X91686429Y-180663971D01*
X91686429Y-180663971D02*
X91543572Y-180735400D01*
X91543572Y-180735400D02*
X91472143Y-180806828D01*
X91472143Y-180806828D02*
X91400715Y-180949685D01*
X91400715Y-180949685D02*
X91400715Y-181378257D01*
X91400715Y-181378257D02*
X91472143Y-181521114D01*
X91472143Y-181521114D02*
X91543572Y-181592542D01*
X91543572Y-181592542D02*
X91686429Y-181663971D01*
X91686429Y-181663971D02*
X91972143Y-181663971D01*
X91972143Y-181663971D02*
X92115001Y-181592542D01*
X92972143Y-180663971D02*
X92829286Y-180735400D01*
X92829286Y-180735400D02*
X92757857Y-180806828D01*
X92757857Y-180806828D02*
X92686429Y-180949685D01*
X92686429Y-180949685D02*
X92686429Y-181378257D01*
X92686429Y-181378257D02*
X92757857Y-181521114D01*
X92757857Y-181521114D02*
X92829286Y-181592542D01*
X92829286Y-181592542D02*
X92972143Y-181663971D01*
X92972143Y-181663971D02*
X93186429Y-181663971D01*
X93186429Y-181663971D02*
X93329286Y-181592542D01*
X93329286Y-181592542D02*
X93400715Y-181521114D01*
X93400715Y-181521114D02*
X93472143Y-181378257D01*
X93472143Y-181378257D02*
X93472143Y-180949685D01*
X93472143Y-180949685D02*
X93400715Y-180806828D01*
X93400715Y-180806828D02*
X93329286Y-180735400D01*
X93329286Y-180735400D02*
X93186429Y-180663971D01*
X93186429Y-180663971D02*
X92972143Y-180663971D01*
X94115000Y-180663971D02*
X94115000Y-181663971D01*
X94115000Y-181378257D02*
X94186429Y-181521114D01*
X94186429Y-181521114D02*
X94257858Y-181592542D01*
X94257858Y-181592542D02*
X94400715Y-181663971D01*
X94400715Y-181663971D02*
X94543572Y-181663971D01*
X95043571Y-180663971D02*
X95043571Y-181663971D01*
X95043571Y-181378257D02*
X95115000Y-181521114D01*
X95115000Y-181521114D02*
X95186429Y-181592542D01*
X95186429Y-181592542D02*
X95329286Y-181663971D01*
X95329286Y-181663971D02*
X95472143Y-181663971D01*
X96543571Y-180735400D02*
X96400714Y-180663971D01*
X96400714Y-180663971D02*
X96115000Y-180663971D01*
X96115000Y-180663971D02*
X95972142Y-180735400D01*
X95972142Y-180735400D02*
X95900714Y-180878257D01*
X95900714Y-180878257D02*
X95900714Y-181449685D01*
X95900714Y-181449685D02*
X95972142Y-181592542D01*
X95972142Y-181592542D02*
X96115000Y-181663971D01*
X96115000Y-181663971D02*
X96400714Y-181663971D01*
X96400714Y-181663971D02*
X96543571Y-181592542D01*
X96543571Y-181592542D02*
X96615000Y-181449685D01*
X96615000Y-181449685D02*
X96615000Y-181306828D01*
X96615000Y-181306828D02*
X95900714Y-181163971D01*
X97900714Y-180735400D02*
X97757856Y-180663971D01*
X97757856Y-180663971D02*
X97472142Y-180663971D01*
X97472142Y-180663971D02*
X97329285Y-180735400D01*
X97329285Y-180735400D02*
X97257856Y-180806828D01*
X97257856Y-180806828D02*
X97186428Y-180949685D01*
X97186428Y-180949685D02*
X97186428Y-181378257D01*
X97186428Y-181378257D02*
X97257856Y-181521114D01*
X97257856Y-181521114D02*
X97329285Y-181592542D01*
X97329285Y-181592542D02*
X97472142Y-181663971D01*
X97472142Y-181663971D02*
X97757856Y-181663971D01*
X97757856Y-181663971D02*
X97900714Y-181592542D01*
X98329285Y-181663971D02*
X98900713Y-181663971D01*
X98543570Y-182163971D02*
X98543570Y-180878257D01*
X98543570Y-180878257D02*
X98614999Y-180735400D01*
X98614999Y-180735400D02*
X98757856Y-180663971D01*
X98757856Y-180663971D02*
X98900713Y-180663971D01*
X99614999Y-180663971D02*
X99472142Y-180735400D01*
X99472142Y-180735400D02*
X99400713Y-180878257D01*
X99400713Y-180878257D02*
X99400713Y-182163971D01*
X100043570Y-181663971D02*
X100400713Y-180663971D01*
X100757856Y-181663971D02*
X100400713Y-180663971D01*
X100400713Y-180663971D02*
X100257856Y-180306828D01*
X100257856Y-180306828D02*
X100186427Y-180235400D01*
X100186427Y-180235400D02*
X100043570Y-180163971D01*
X102472141Y-180663971D02*
X102472141Y-181663971D01*
X102472141Y-182163971D02*
X102400713Y-182092542D01*
X102400713Y-182092542D02*
X102472141Y-182021114D01*
X102472141Y-182021114D02*
X102543570Y-182092542D01*
X102543570Y-182092542D02*
X102472141Y-182163971D01*
X102472141Y-182163971D02*
X102472141Y-182021114D01*
X103186427Y-181663971D02*
X103186427Y-180663971D01*
X103186427Y-181521114D02*
X103257856Y-181592542D01*
X103257856Y-181592542D02*
X103400713Y-181663971D01*
X103400713Y-181663971D02*
X103614999Y-181663971D01*
X103614999Y-181663971D02*
X103757856Y-181592542D01*
X103757856Y-181592542D02*
X103829285Y-181449685D01*
X103829285Y-181449685D02*
X103829285Y-180663971D01*
X105543570Y-181663971D02*
X105900713Y-180663971D01*
X106257856Y-181663971D02*
X105900713Y-180663971D01*
X105900713Y-180663971D02*
X105757856Y-180306828D01*
X105757856Y-180306828D02*
X105686427Y-180235400D01*
X105686427Y-180235400D02*
X105543570Y-180163971D01*
X107043570Y-180663971D02*
X106900713Y-180735400D01*
X106900713Y-180735400D02*
X106829284Y-180806828D01*
X106829284Y-180806828D02*
X106757856Y-180949685D01*
X106757856Y-180949685D02*
X106757856Y-181378257D01*
X106757856Y-181378257D02*
X106829284Y-181521114D01*
X106829284Y-181521114D02*
X106900713Y-181592542D01*
X106900713Y-181592542D02*
X107043570Y-181663971D01*
X107043570Y-181663971D02*
X107257856Y-181663971D01*
X107257856Y-181663971D02*
X107400713Y-181592542D01*
X107400713Y-181592542D02*
X107472142Y-181521114D01*
X107472142Y-181521114D02*
X107543570Y-181378257D01*
X107543570Y-181378257D02*
X107543570Y-180949685D01*
X107543570Y-180949685D02*
X107472142Y-180806828D01*
X107472142Y-180806828D02*
X107400713Y-180735400D01*
X107400713Y-180735400D02*
X107257856Y-180663971D01*
X107257856Y-180663971D02*
X107043570Y-180663971D01*
X108829285Y-181663971D02*
X108829285Y-180663971D01*
X108186427Y-181663971D02*
X108186427Y-180878257D01*
X108186427Y-180878257D02*
X108257856Y-180735400D01*
X108257856Y-180735400D02*
X108400713Y-180663971D01*
X108400713Y-180663971D02*
X108614999Y-180663971D01*
X108614999Y-180663971D02*
X108757856Y-180735400D01*
X108757856Y-180735400D02*
X108829285Y-180806828D01*
X109543570Y-180663971D02*
X109543570Y-181663971D01*
X109543570Y-181378257D02*
X109614999Y-181521114D01*
X109614999Y-181521114D02*
X109686428Y-181592542D01*
X109686428Y-181592542D02*
X109829285Y-181663971D01*
X109829285Y-181663971D02*
X109972142Y-181663971D01*
X112257856Y-180735400D02*
X112114998Y-180663971D01*
X112114998Y-180663971D02*
X111829284Y-180663971D01*
X111829284Y-180663971D02*
X111686427Y-180735400D01*
X111686427Y-180735400D02*
X111614998Y-180806828D01*
X111614998Y-180806828D02*
X111543570Y-180949685D01*
X111543570Y-180949685D02*
X111543570Y-181378257D01*
X111543570Y-181378257D02*
X111614998Y-181521114D01*
X111614998Y-181521114D02*
X111686427Y-181592542D01*
X111686427Y-181592542D02*
X111829284Y-181663971D01*
X111829284Y-181663971D02*
X112114998Y-181663971D01*
X112114998Y-181663971D02*
X112257856Y-181592542D01*
X113114998Y-180663971D02*
X112972141Y-180735400D01*
X112972141Y-180735400D02*
X112900712Y-180806828D01*
X112900712Y-180806828D02*
X112829284Y-180949685D01*
X112829284Y-180949685D02*
X112829284Y-181378257D01*
X112829284Y-181378257D02*
X112900712Y-181521114D01*
X112900712Y-181521114D02*
X112972141Y-181592542D01*
X112972141Y-181592542D02*
X113114998Y-181663971D01*
X113114998Y-181663971D02*
X113329284Y-181663971D01*
X113329284Y-181663971D02*
X113472141Y-181592542D01*
X113472141Y-181592542D02*
X113543570Y-181521114D01*
X113543570Y-181521114D02*
X113614998Y-181378257D01*
X113614998Y-181378257D02*
X113614998Y-180949685D01*
X113614998Y-180949685D02*
X113543570Y-180806828D01*
X113543570Y-180806828D02*
X113472141Y-180735400D01*
X113472141Y-180735400D02*
X113329284Y-180663971D01*
X113329284Y-180663971D02*
X113114998Y-180663971D01*
X114257855Y-181663971D02*
X114257855Y-180663971D01*
X114257855Y-181521114D02*
X114329284Y-181592542D01*
X114329284Y-181592542D02*
X114472141Y-181663971D01*
X114472141Y-181663971D02*
X114686427Y-181663971D01*
X114686427Y-181663971D02*
X114829284Y-181592542D01*
X114829284Y-181592542D02*
X114900713Y-181449685D01*
X114900713Y-181449685D02*
X114900713Y-180663971D01*
X115543570Y-180735400D02*
X115686427Y-180663971D01*
X115686427Y-180663971D02*
X115972141Y-180663971D01*
X115972141Y-180663971D02*
X116114998Y-180735400D01*
X116114998Y-180735400D02*
X116186427Y-180878257D01*
X116186427Y-180878257D02*
X116186427Y-180949685D01*
X116186427Y-180949685D02*
X116114998Y-181092542D01*
X116114998Y-181092542D02*
X115972141Y-181163971D01*
X115972141Y-181163971D02*
X115757856Y-181163971D01*
X115757856Y-181163971D02*
X115614998Y-181235400D01*
X115614998Y-181235400D02*
X115543570Y-181378257D01*
X115543570Y-181378257D02*
X115543570Y-181449685D01*
X115543570Y-181449685D02*
X115614998Y-181592542D01*
X115614998Y-181592542D02*
X115757856Y-181663971D01*
X115757856Y-181663971D02*
X115972141Y-181663971D01*
X115972141Y-181663971D02*
X116114998Y-181592542D01*
X117043570Y-180663971D02*
X116900713Y-180735400D01*
X116900713Y-180735400D02*
X116829284Y-180806828D01*
X116829284Y-180806828D02*
X116757856Y-180949685D01*
X116757856Y-180949685D02*
X116757856Y-181378257D01*
X116757856Y-181378257D02*
X116829284Y-181521114D01*
X116829284Y-181521114D02*
X116900713Y-181592542D01*
X116900713Y-181592542D02*
X117043570Y-181663971D01*
X117043570Y-181663971D02*
X117257856Y-181663971D01*
X117257856Y-181663971D02*
X117400713Y-181592542D01*
X117400713Y-181592542D02*
X117472142Y-181521114D01*
X117472142Y-181521114D02*
X117543570Y-181378257D01*
X117543570Y-181378257D02*
X117543570Y-180949685D01*
X117543570Y-180949685D02*
X117472142Y-180806828D01*
X117472142Y-180806828D02*
X117400713Y-180735400D01*
X117400713Y-180735400D02*
X117257856Y-180663971D01*
X117257856Y-180663971D02*
X117043570Y-180663971D01*
X118400713Y-180663971D02*
X118257856Y-180735400D01*
X118257856Y-180735400D02*
X118186427Y-180878257D01*
X118186427Y-180878257D02*
X118186427Y-182163971D01*
X119543570Y-180735400D02*
X119400713Y-180663971D01*
X119400713Y-180663971D02*
X119114999Y-180663971D01*
X119114999Y-180663971D02*
X118972141Y-180735400D01*
X118972141Y-180735400D02*
X118900713Y-180878257D01*
X118900713Y-180878257D02*
X118900713Y-181449685D01*
X118900713Y-181449685D02*
X118972141Y-181592542D01*
X118972141Y-181592542D02*
X119114999Y-181663971D01*
X119114999Y-181663971D02*
X119400713Y-181663971D01*
X119400713Y-181663971D02*
X119543570Y-181592542D01*
X119543570Y-181592542D02*
X119614999Y-181449685D01*
X119614999Y-181449685D02*
X119614999Y-181306828D01*
X119614999Y-181306828D02*
X118900713Y-181163971D01*
X120257855Y-180806828D02*
X120329284Y-180735400D01*
X120329284Y-180735400D02*
X120257855Y-180663971D01*
X120257855Y-180663971D02*
X120186427Y-180735400D01*
X120186427Y-180735400D02*
X120257855Y-180806828D01*
X120257855Y-180806828D02*
X120257855Y-180663971D01*
X119300714Y-120096196D02*
X119300714Y-118596196D01*
X118800713Y-119096196D02*
X118229285Y-119096196D01*
X118586428Y-120096196D02*
X118586428Y-118810482D01*
X118586428Y-118810482D02*
X118514999Y-118667625D01*
X118514999Y-118667625D02*
X118372142Y-118596196D01*
X118372142Y-118596196D02*
X118229285Y-118596196D01*
X116729285Y-119096196D02*
X116372142Y-120096196D01*
X116014999Y-119096196D02*
X116372142Y-120096196D01*
X116372142Y-120096196D02*
X116514999Y-120453339D01*
X116514999Y-120453339D02*
X116586428Y-120524768D01*
X116586428Y-120524768D02*
X116729285Y-120596196D01*
X115229285Y-120096196D02*
X115372142Y-120024768D01*
X115372142Y-120024768D02*
X115443571Y-119953339D01*
X115443571Y-119953339D02*
X115514999Y-119810482D01*
X115514999Y-119810482D02*
X115514999Y-119381910D01*
X115514999Y-119381910D02*
X115443571Y-119239053D01*
X115443571Y-119239053D02*
X115372142Y-119167625D01*
X115372142Y-119167625D02*
X115229285Y-119096196D01*
X115229285Y-119096196D02*
X115014999Y-119096196D01*
X115014999Y-119096196D02*
X114872142Y-119167625D01*
X114872142Y-119167625D02*
X114800714Y-119239053D01*
X114800714Y-119239053D02*
X114729285Y-119381910D01*
X114729285Y-119381910D02*
X114729285Y-119810482D01*
X114729285Y-119810482D02*
X114800714Y-119953339D01*
X114800714Y-119953339D02*
X114872142Y-120024768D01*
X114872142Y-120024768D02*
X115014999Y-120096196D01*
X115014999Y-120096196D02*
X115229285Y-120096196D01*
X113443571Y-119096196D02*
X113443571Y-120096196D01*
X114086428Y-119096196D02*
X114086428Y-119881910D01*
X114086428Y-119881910D02*
X114014999Y-120024768D01*
X114014999Y-120024768D02*
X113872142Y-120096196D01*
X113872142Y-120096196D02*
X113657856Y-120096196D01*
X113657856Y-120096196D02*
X113514999Y-120024768D01*
X113514999Y-120024768D02*
X113443571Y-119953339D01*
X110943571Y-120024768D02*
X111086428Y-120096196D01*
X111086428Y-120096196D02*
X111372142Y-120096196D01*
X111372142Y-120096196D02*
X111514999Y-120024768D01*
X111514999Y-120024768D02*
X111586428Y-119953339D01*
X111586428Y-119953339D02*
X111657856Y-119810482D01*
X111657856Y-119810482D02*
X111657856Y-119381910D01*
X111657856Y-119381910D02*
X111586428Y-119239053D01*
X111586428Y-119239053D02*
X111514999Y-119167625D01*
X111514999Y-119167625D02*
X111372142Y-119096196D01*
X111372142Y-119096196D02*
X111086428Y-119096196D01*
X111086428Y-119096196D02*
X110943571Y-119167625D01*
X109657857Y-120096196D02*
X109657857Y-119310482D01*
X109657857Y-119310482D02*
X109729285Y-119167625D01*
X109729285Y-119167625D02*
X109872142Y-119096196D01*
X109872142Y-119096196D02*
X110157857Y-119096196D01*
X110157857Y-119096196D02*
X110300714Y-119167625D01*
X109657857Y-120024768D02*
X109800714Y-120096196D01*
X109800714Y-120096196D02*
X110157857Y-120096196D01*
X110157857Y-120096196D02*
X110300714Y-120024768D01*
X110300714Y-120024768D02*
X110372142Y-119881910D01*
X110372142Y-119881910D02*
X110372142Y-119739053D01*
X110372142Y-119739053D02*
X110300714Y-119596196D01*
X110300714Y-119596196D02*
X110157857Y-119524768D01*
X110157857Y-119524768D02*
X109800714Y-119524768D01*
X109800714Y-119524768D02*
X109657857Y-119453339D01*
X108943571Y-119096196D02*
X108943571Y-120096196D01*
X108943571Y-119239053D02*
X108872142Y-119167625D01*
X108872142Y-119167625D02*
X108729285Y-119096196D01*
X108729285Y-119096196D02*
X108514999Y-119096196D01*
X108514999Y-119096196D02*
X108372142Y-119167625D01*
X108372142Y-119167625D02*
X108300714Y-119310482D01*
X108300714Y-119310482D02*
X108300714Y-120096196D01*
X106514999Y-120024768D02*
X106372142Y-120096196D01*
X106372142Y-120096196D02*
X106086428Y-120096196D01*
X106086428Y-120096196D02*
X105943571Y-120024768D01*
X105943571Y-120024768D02*
X105872142Y-119881910D01*
X105872142Y-119881910D02*
X105872142Y-119810482D01*
X105872142Y-119810482D02*
X105943571Y-119667625D01*
X105943571Y-119667625D02*
X106086428Y-119596196D01*
X106086428Y-119596196D02*
X106300714Y-119596196D01*
X106300714Y-119596196D02*
X106443571Y-119524768D01*
X106443571Y-119524768D02*
X106514999Y-119381910D01*
X106514999Y-119381910D02*
X106514999Y-119310482D01*
X106514999Y-119310482D02*
X106443571Y-119167625D01*
X106443571Y-119167625D02*
X106300714Y-119096196D01*
X106300714Y-119096196D02*
X106086428Y-119096196D01*
X106086428Y-119096196D02*
X105943571Y-119167625D01*
X104657856Y-120024768D02*
X104800713Y-120096196D01*
X104800713Y-120096196D02*
X105086428Y-120096196D01*
X105086428Y-120096196D02*
X105229285Y-120024768D01*
X105229285Y-120024768D02*
X105300713Y-119881910D01*
X105300713Y-119881910D02*
X105300713Y-119310482D01*
X105300713Y-119310482D02*
X105229285Y-119167625D01*
X105229285Y-119167625D02*
X105086428Y-119096196D01*
X105086428Y-119096196D02*
X104800713Y-119096196D01*
X104800713Y-119096196D02*
X104657856Y-119167625D01*
X104657856Y-119167625D02*
X104586428Y-119310482D01*
X104586428Y-119310482D02*
X104586428Y-119453339D01*
X104586428Y-119453339D02*
X105300713Y-119596196D01*
X103372142Y-120024768D02*
X103514999Y-120096196D01*
X103514999Y-120096196D02*
X103800714Y-120096196D01*
X103800714Y-120096196D02*
X103943571Y-120024768D01*
X103943571Y-120024768D02*
X104014999Y-119881910D01*
X104014999Y-119881910D02*
X104014999Y-119310482D01*
X104014999Y-119310482D02*
X103943571Y-119167625D01*
X103943571Y-119167625D02*
X103800714Y-119096196D01*
X103800714Y-119096196D02*
X103514999Y-119096196D01*
X103514999Y-119096196D02*
X103372142Y-119167625D01*
X103372142Y-119167625D02*
X103300714Y-119310482D01*
X103300714Y-119310482D02*
X103300714Y-119453339D01*
X103300714Y-119453339D02*
X104014999Y-119596196D01*
X101729285Y-119096196D02*
X101157857Y-119096196D01*
X101515000Y-118596196D02*
X101515000Y-119881910D01*
X101515000Y-119881910D02*
X101443571Y-120024768D01*
X101443571Y-120024768D02*
X101300714Y-120096196D01*
X101300714Y-120096196D02*
X101157857Y-120096196D01*
X100657857Y-120096196D02*
X100657857Y-118596196D01*
X100015000Y-120096196D02*
X100015000Y-119310482D01*
X100015000Y-119310482D02*
X100086428Y-119167625D01*
X100086428Y-119167625D02*
X100229285Y-119096196D01*
X100229285Y-119096196D02*
X100443571Y-119096196D01*
X100443571Y-119096196D02*
X100586428Y-119167625D01*
X100586428Y-119167625D02*
X100657857Y-119239053D01*
X99300714Y-120096196D02*
X99300714Y-119096196D01*
X99300714Y-118596196D02*
X99372142Y-118667625D01*
X99372142Y-118667625D02*
X99300714Y-118739053D01*
X99300714Y-118739053D02*
X99229285Y-118667625D01*
X99229285Y-118667625D02*
X99300714Y-118596196D01*
X99300714Y-118596196D02*
X99300714Y-118739053D01*
X98657856Y-120024768D02*
X98514999Y-120096196D01*
X98514999Y-120096196D02*
X98229285Y-120096196D01*
X98229285Y-120096196D02*
X98086428Y-120024768D01*
X98086428Y-120024768D02*
X98014999Y-119881910D01*
X98014999Y-119881910D02*
X98014999Y-119810482D01*
X98014999Y-119810482D02*
X98086428Y-119667625D01*
X98086428Y-119667625D02*
X98229285Y-119596196D01*
X98229285Y-119596196D02*
X98443571Y-119596196D01*
X98443571Y-119596196D02*
X98586428Y-119524768D01*
X98586428Y-119524768D02*
X98657856Y-119381910D01*
X98657856Y-119381910D02*
X98657856Y-119310482D01*
X98657856Y-119310482D02*
X98586428Y-119167625D01*
X98586428Y-119167625D02*
X98443571Y-119096196D01*
X98443571Y-119096196D02*
X98229285Y-119096196D01*
X98229285Y-119096196D02*
X98086428Y-119167625D01*
X96443570Y-119096196D02*
X95872142Y-119096196D01*
X96229285Y-118596196D02*
X96229285Y-119881910D01*
X96229285Y-119881910D02*
X96157856Y-120024768D01*
X96157856Y-120024768D02*
X96014999Y-120096196D01*
X96014999Y-120096196D02*
X95872142Y-120096196D01*
X94800713Y-120024768D02*
X94943570Y-120096196D01*
X94943570Y-120096196D02*
X95229285Y-120096196D01*
X95229285Y-120096196D02*
X95372142Y-120024768D01*
X95372142Y-120024768D02*
X95443570Y-119881910D01*
X95443570Y-119881910D02*
X95443570Y-119310482D01*
X95443570Y-119310482D02*
X95372142Y-119167625D01*
X95372142Y-119167625D02*
X95229285Y-119096196D01*
X95229285Y-119096196D02*
X94943570Y-119096196D01*
X94943570Y-119096196D02*
X94800713Y-119167625D01*
X94800713Y-119167625D02*
X94729285Y-119310482D01*
X94729285Y-119310482D02*
X94729285Y-119453339D01*
X94729285Y-119453339D02*
X95443570Y-119596196D01*
X94229285Y-120096196D02*
X93443571Y-119096196D01*
X94229285Y-119096196D02*
X93443571Y-120096196D01*
X93086427Y-119096196D02*
X92514999Y-119096196D01*
X92872142Y-118596196D02*
X92872142Y-119881910D01*
X92872142Y-119881910D02*
X92800713Y-120024768D01*
X92800713Y-120024768D02*
X92657856Y-120096196D01*
X92657856Y-120096196D02*
X92514999Y-120096196D01*
X121050713Y-121511112D02*
X120693570Y-122511112D01*
X120336427Y-121511112D02*
X120693570Y-122511112D01*
X120693570Y-122511112D02*
X120836427Y-122868255D01*
X120836427Y-122868255D02*
X120907856Y-122939684D01*
X120907856Y-122939684D02*
X121050713Y-123011112D01*
X119550713Y-122511112D02*
X119693570Y-122439684D01*
X119693570Y-122439684D02*
X119764999Y-122368255D01*
X119764999Y-122368255D02*
X119836427Y-122225398D01*
X119836427Y-122225398D02*
X119836427Y-121796826D01*
X119836427Y-121796826D02*
X119764999Y-121653969D01*
X119764999Y-121653969D02*
X119693570Y-121582541D01*
X119693570Y-121582541D02*
X119550713Y-121511112D01*
X119550713Y-121511112D02*
X119336427Y-121511112D01*
X119336427Y-121511112D02*
X119193570Y-121582541D01*
X119193570Y-121582541D02*
X119122142Y-121653969D01*
X119122142Y-121653969D02*
X119050713Y-121796826D01*
X119050713Y-121796826D02*
X119050713Y-122225398D01*
X119050713Y-122225398D02*
X119122142Y-122368255D01*
X119122142Y-122368255D02*
X119193570Y-122439684D01*
X119193570Y-122439684D02*
X119336427Y-122511112D01*
X119336427Y-122511112D02*
X119550713Y-122511112D01*
X117764999Y-121511112D02*
X117764999Y-122511112D01*
X118407856Y-121511112D02*
X118407856Y-122296826D01*
X118407856Y-122296826D02*
X118336427Y-122439684D01*
X118336427Y-122439684D02*
X118193570Y-122511112D01*
X118193570Y-122511112D02*
X117979284Y-122511112D01*
X117979284Y-122511112D02*
X117836427Y-122439684D01*
X117836427Y-122439684D02*
X117764999Y-122368255D01*
X115907856Y-122511112D02*
X115907856Y-121011112D01*
X115264999Y-122511112D02*
X115264999Y-121725398D01*
X115264999Y-121725398D02*
X115336427Y-121582541D01*
X115336427Y-121582541D02*
X115479284Y-121511112D01*
X115479284Y-121511112D02*
X115693570Y-121511112D01*
X115693570Y-121511112D02*
X115836427Y-121582541D01*
X115836427Y-121582541D02*
X115907856Y-121653969D01*
X113907856Y-122511112D02*
X113907856Y-121725398D01*
X113907856Y-121725398D02*
X113979284Y-121582541D01*
X113979284Y-121582541D02*
X114122141Y-121511112D01*
X114122141Y-121511112D02*
X114407856Y-121511112D01*
X114407856Y-121511112D02*
X114550713Y-121582541D01*
X113907856Y-122439684D02*
X114050713Y-122511112D01*
X114050713Y-122511112D02*
X114407856Y-122511112D01*
X114407856Y-122511112D02*
X114550713Y-122439684D01*
X114550713Y-122439684D02*
X114622141Y-122296826D01*
X114622141Y-122296826D02*
X114622141Y-122153969D01*
X114622141Y-122153969D02*
X114550713Y-122011112D01*
X114550713Y-122011112D02*
X114407856Y-121939684D01*
X114407856Y-121939684D02*
X114050713Y-121939684D01*
X114050713Y-121939684D02*
X113907856Y-121868255D01*
X113336427Y-121511112D02*
X112979284Y-122511112D01*
X112979284Y-122511112D02*
X112622141Y-121511112D01*
X111479284Y-122439684D02*
X111622141Y-122511112D01*
X111622141Y-122511112D02*
X111907856Y-122511112D01*
X111907856Y-122511112D02*
X112050713Y-122439684D01*
X112050713Y-122439684D02*
X112122141Y-122296826D01*
X112122141Y-122296826D02*
X112122141Y-121725398D01*
X112122141Y-121725398D02*
X112050713Y-121582541D01*
X112050713Y-121582541D02*
X111907856Y-121511112D01*
X111907856Y-121511112D02*
X111622141Y-121511112D01*
X111622141Y-121511112D02*
X111479284Y-121582541D01*
X111479284Y-121582541D02*
X111407856Y-121725398D01*
X111407856Y-121725398D02*
X111407856Y-121868255D01*
X111407856Y-121868255D02*
X112122141Y-122011112D01*
X109622142Y-122511112D02*
X109622142Y-121511112D01*
X109622142Y-121011112D02*
X109693570Y-121082541D01*
X109693570Y-121082541D02*
X109622142Y-121153969D01*
X109622142Y-121153969D02*
X109550713Y-121082541D01*
X109550713Y-121082541D02*
X109622142Y-121011112D01*
X109622142Y-121011112D02*
X109622142Y-121153969D01*
X108907856Y-121511112D02*
X108907856Y-122511112D01*
X108907856Y-121653969D02*
X108836427Y-121582541D01*
X108836427Y-121582541D02*
X108693570Y-121511112D01*
X108693570Y-121511112D02*
X108479284Y-121511112D01*
X108479284Y-121511112D02*
X108336427Y-121582541D01*
X108336427Y-121582541D02*
X108264999Y-121725398D01*
X108264999Y-121725398D02*
X108264999Y-122511112D01*
X107622141Y-122439684D02*
X107479284Y-122511112D01*
X107479284Y-122511112D02*
X107193570Y-122511112D01*
X107193570Y-122511112D02*
X107050713Y-122439684D01*
X107050713Y-122439684D02*
X106979284Y-122296826D01*
X106979284Y-122296826D02*
X106979284Y-122225398D01*
X106979284Y-122225398D02*
X107050713Y-122082541D01*
X107050713Y-122082541D02*
X107193570Y-122011112D01*
X107193570Y-122011112D02*
X107407856Y-122011112D01*
X107407856Y-122011112D02*
X107550713Y-121939684D01*
X107550713Y-121939684D02*
X107622141Y-121796826D01*
X107622141Y-121796826D02*
X107622141Y-121725398D01*
X107622141Y-121725398D02*
X107550713Y-121582541D01*
X107550713Y-121582541D02*
X107407856Y-121511112D01*
X107407856Y-121511112D02*
X107193570Y-121511112D01*
X107193570Y-121511112D02*
X107050713Y-121582541D01*
X105764998Y-122439684D02*
X105907855Y-122511112D01*
X105907855Y-122511112D02*
X106193570Y-122511112D01*
X106193570Y-122511112D02*
X106336427Y-122439684D01*
X106336427Y-122439684D02*
X106407855Y-122296826D01*
X106407855Y-122296826D02*
X106407855Y-121725398D01*
X106407855Y-121725398D02*
X106336427Y-121582541D01*
X106336427Y-121582541D02*
X106193570Y-121511112D01*
X106193570Y-121511112D02*
X105907855Y-121511112D01*
X105907855Y-121511112D02*
X105764998Y-121582541D01*
X105764998Y-121582541D02*
X105693570Y-121725398D01*
X105693570Y-121725398D02*
X105693570Y-121868255D01*
X105693570Y-121868255D02*
X106407855Y-122011112D01*
X105050713Y-122511112D02*
X105050713Y-121511112D01*
X105050713Y-121796826D02*
X104979284Y-121653969D01*
X104979284Y-121653969D02*
X104907856Y-121582541D01*
X104907856Y-121582541D02*
X104764998Y-121511112D01*
X104764998Y-121511112D02*
X104622141Y-121511112D01*
X104336427Y-121511112D02*
X103764999Y-121511112D01*
X104122142Y-121011112D02*
X104122142Y-122296826D01*
X104122142Y-122296826D02*
X104050713Y-122439684D01*
X104050713Y-122439684D02*
X103907856Y-122511112D01*
X103907856Y-122511112D02*
X103764999Y-122511112D01*
X102693570Y-122439684D02*
X102836427Y-122511112D01*
X102836427Y-122511112D02*
X103122142Y-122511112D01*
X103122142Y-122511112D02*
X103264999Y-122439684D01*
X103264999Y-122439684D02*
X103336427Y-122296826D01*
X103336427Y-122296826D02*
X103336427Y-121725398D01*
X103336427Y-121725398D02*
X103264999Y-121582541D01*
X103264999Y-121582541D02*
X103122142Y-121511112D01*
X103122142Y-121511112D02*
X102836427Y-121511112D01*
X102836427Y-121511112D02*
X102693570Y-121582541D01*
X102693570Y-121582541D02*
X102622142Y-121725398D01*
X102622142Y-121725398D02*
X102622142Y-121868255D01*
X102622142Y-121868255D02*
X103336427Y-122011112D01*
X101336428Y-122511112D02*
X101336428Y-121011112D01*
X101336428Y-122439684D02*
X101479285Y-122511112D01*
X101479285Y-122511112D02*
X101764999Y-122511112D01*
X101764999Y-122511112D02*
X101907856Y-122439684D01*
X101907856Y-122439684D02*
X101979285Y-122368255D01*
X101979285Y-122368255D02*
X102050713Y-122225398D01*
X102050713Y-122225398D02*
X102050713Y-121796826D01*
X102050713Y-121796826D02*
X101979285Y-121653969D01*
X101979285Y-121653969D02*
X101907856Y-121582541D01*
X101907856Y-121582541D02*
X101764999Y-121511112D01*
X101764999Y-121511112D02*
X101479285Y-121511112D01*
X101479285Y-121511112D02*
X101336428Y-121582541D01*
X99693570Y-121511112D02*
X99122142Y-121511112D01*
X99479285Y-121011112D02*
X99479285Y-122296826D01*
X99479285Y-122296826D02*
X99407856Y-122439684D01*
X99407856Y-122439684D02*
X99264999Y-122511112D01*
X99264999Y-122511112D02*
X99122142Y-122511112D01*
X98622142Y-122511112D02*
X98622142Y-121011112D01*
X97979285Y-122511112D02*
X97979285Y-121725398D01*
X97979285Y-121725398D02*
X98050713Y-121582541D01*
X98050713Y-121582541D02*
X98193570Y-121511112D01*
X98193570Y-121511112D02*
X98407856Y-121511112D01*
X98407856Y-121511112D02*
X98550713Y-121582541D01*
X98550713Y-121582541D02*
X98622142Y-121653969D01*
X96693570Y-122439684D02*
X96836427Y-122511112D01*
X96836427Y-122511112D02*
X97122142Y-122511112D01*
X97122142Y-122511112D02*
X97264999Y-122439684D01*
X97264999Y-122439684D02*
X97336427Y-122296826D01*
X97336427Y-122296826D02*
X97336427Y-121725398D01*
X97336427Y-121725398D02*
X97264999Y-121582541D01*
X97264999Y-121582541D02*
X97122142Y-121511112D01*
X97122142Y-121511112D02*
X96836427Y-121511112D01*
X96836427Y-121511112D02*
X96693570Y-121582541D01*
X96693570Y-121582541D02*
X96622142Y-121725398D01*
X96622142Y-121725398D02*
X96622142Y-121868255D01*
X96622142Y-121868255D02*
X97336427Y-122011112D01*
X94193571Y-122439684D02*
X94336428Y-122511112D01*
X94336428Y-122511112D02*
X94622142Y-122511112D01*
X94622142Y-122511112D02*
X94764999Y-122439684D01*
X94764999Y-122439684D02*
X94836428Y-122368255D01*
X94836428Y-122368255D02*
X94907856Y-122225398D01*
X94907856Y-122225398D02*
X94907856Y-121796826D01*
X94907856Y-121796826D02*
X94836428Y-121653969D01*
X94836428Y-121653969D02*
X94764999Y-121582541D01*
X94764999Y-121582541D02*
X94622142Y-121511112D01*
X94622142Y-121511112D02*
X94336428Y-121511112D01*
X94336428Y-121511112D02*
X94193571Y-121582541D01*
X92907857Y-122511112D02*
X92907857Y-121725398D01*
X92907857Y-121725398D02*
X92979285Y-121582541D01*
X92979285Y-121582541D02*
X93122142Y-121511112D01*
X93122142Y-121511112D02*
X93407857Y-121511112D01*
X93407857Y-121511112D02*
X93550714Y-121582541D01*
X92907857Y-122439684D02*
X93050714Y-122511112D01*
X93050714Y-122511112D02*
X93407857Y-122511112D01*
X93407857Y-122511112D02*
X93550714Y-122439684D01*
X93550714Y-122439684D02*
X93622142Y-122296826D01*
X93622142Y-122296826D02*
X93622142Y-122153969D01*
X93622142Y-122153969D02*
X93550714Y-122011112D01*
X93550714Y-122011112D02*
X93407857Y-121939684D01*
X93407857Y-121939684D02*
X93050714Y-121939684D01*
X93050714Y-121939684D02*
X92907857Y-121868255D01*
X92193571Y-122511112D02*
X92193571Y-121511112D01*
X92193571Y-121796826D02*
X92122142Y-121653969D01*
X92122142Y-121653969D02*
X92050714Y-121582541D01*
X92050714Y-121582541D02*
X91907856Y-121511112D01*
X91907856Y-121511112D02*
X91764999Y-121511112D01*
X91479285Y-121511112D02*
X90907857Y-121511112D01*
X91265000Y-121011112D02*
X91265000Y-122296826D01*
X91265000Y-122296826D02*
X91193571Y-122439684D01*
X91193571Y-122439684D02*
X91050714Y-122511112D01*
X91050714Y-122511112D02*
X90907857Y-122511112D01*
X119764999Y-124854600D02*
X119907856Y-124926028D01*
X119907856Y-124926028D02*
X120193570Y-124926028D01*
X120193570Y-124926028D02*
X120336427Y-124854600D01*
X120336427Y-124854600D02*
X120407856Y-124783171D01*
X120407856Y-124783171D02*
X120479284Y-124640314D01*
X120479284Y-124640314D02*
X120479284Y-124211742D01*
X120479284Y-124211742D02*
X120407856Y-124068885D01*
X120407856Y-124068885D02*
X120336427Y-123997457D01*
X120336427Y-123997457D02*
X120193570Y-123926028D01*
X120193570Y-123926028D02*
X119907856Y-123926028D01*
X119907856Y-123926028D02*
X119764999Y-123997457D01*
X118907856Y-124926028D02*
X119050713Y-124854600D01*
X119050713Y-124854600D02*
X119122142Y-124783171D01*
X119122142Y-124783171D02*
X119193570Y-124640314D01*
X119193570Y-124640314D02*
X119193570Y-124211742D01*
X119193570Y-124211742D02*
X119122142Y-124068885D01*
X119122142Y-124068885D02*
X119050713Y-123997457D01*
X119050713Y-123997457D02*
X118907856Y-123926028D01*
X118907856Y-123926028D02*
X118693570Y-123926028D01*
X118693570Y-123926028D02*
X118550713Y-123997457D01*
X118550713Y-123997457D02*
X118479285Y-124068885D01*
X118479285Y-124068885D02*
X118407856Y-124211742D01*
X118407856Y-124211742D02*
X118407856Y-124640314D01*
X118407856Y-124640314D02*
X118479285Y-124783171D01*
X118479285Y-124783171D02*
X118550713Y-124854600D01*
X118550713Y-124854600D02*
X118693570Y-124926028D01*
X118693570Y-124926028D02*
X118907856Y-124926028D01*
X117764999Y-124926028D02*
X117764999Y-123926028D01*
X117764999Y-124211742D02*
X117693570Y-124068885D01*
X117693570Y-124068885D02*
X117622142Y-123997457D01*
X117622142Y-123997457D02*
X117479284Y-123926028D01*
X117479284Y-123926028D02*
X117336427Y-123926028D01*
X116836428Y-124926028D02*
X116836428Y-123926028D01*
X116836428Y-124211742D02*
X116764999Y-124068885D01*
X116764999Y-124068885D02*
X116693571Y-123997457D01*
X116693571Y-123997457D02*
X116550713Y-123926028D01*
X116550713Y-123926028D02*
X116407856Y-123926028D01*
X115336428Y-124854600D02*
X115479285Y-124926028D01*
X115479285Y-124926028D02*
X115765000Y-124926028D01*
X115765000Y-124926028D02*
X115907857Y-124854600D01*
X115907857Y-124854600D02*
X115979285Y-124711742D01*
X115979285Y-124711742D02*
X115979285Y-124140314D01*
X115979285Y-124140314D02*
X115907857Y-123997457D01*
X115907857Y-123997457D02*
X115765000Y-123926028D01*
X115765000Y-123926028D02*
X115479285Y-123926028D01*
X115479285Y-123926028D02*
X115336428Y-123997457D01*
X115336428Y-123997457D02*
X115265000Y-124140314D01*
X115265000Y-124140314D02*
X115265000Y-124283171D01*
X115265000Y-124283171D02*
X115979285Y-124426028D01*
X113979286Y-124854600D02*
X114122143Y-124926028D01*
X114122143Y-124926028D02*
X114407857Y-124926028D01*
X114407857Y-124926028D02*
X114550714Y-124854600D01*
X114550714Y-124854600D02*
X114622143Y-124783171D01*
X114622143Y-124783171D02*
X114693571Y-124640314D01*
X114693571Y-124640314D02*
X114693571Y-124211742D01*
X114693571Y-124211742D02*
X114622143Y-124068885D01*
X114622143Y-124068885D02*
X114550714Y-123997457D01*
X114550714Y-123997457D02*
X114407857Y-123926028D01*
X114407857Y-123926028D02*
X114122143Y-123926028D01*
X114122143Y-123926028D02*
X113979286Y-123997457D01*
X113550714Y-123926028D02*
X112979286Y-123926028D01*
X113336429Y-123426028D02*
X113336429Y-124711742D01*
X113336429Y-124711742D02*
X113265000Y-124854600D01*
X113265000Y-124854600D02*
X113122143Y-124926028D01*
X113122143Y-124926028D02*
X112979286Y-124926028D01*
X112265000Y-124926028D02*
X112407857Y-124854600D01*
X112407857Y-124854600D02*
X112479286Y-124711742D01*
X112479286Y-124711742D02*
X112479286Y-123426028D01*
X111836429Y-123926028D02*
X111479286Y-124926028D01*
X111122143Y-123926028D02*
X111479286Y-124926028D01*
X111479286Y-124926028D02*
X111622143Y-125283171D01*
X111622143Y-125283171D02*
X111693572Y-125354600D01*
X111693572Y-125354600D02*
X111836429Y-125426028D01*
X109407858Y-124926028D02*
X109407858Y-123926028D01*
X109407858Y-123426028D02*
X109479286Y-123497457D01*
X109479286Y-123497457D02*
X109407858Y-123568885D01*
X109407858Y-123568885D02*
X109336429Y-123497457D01*
X109336429Y-123497457D02*
X109407858Y-123426028D01*
X109407858Y-123426028D02*
X109407858Y-123568885D01*
X108693572Y-123926028D02*
X108693572Y-124926028D01*
X108693572Y-124068885D02*
X108622143Y-123997457D01*
X108622143Y-123997457D02*
X108479286Y-123926028D01*
X108479286Y-123926028D02*
X108265000Y-123926028D01*
X108265000Y-123926028D02*
X108122143Y-123997457D01*
X108122143Y-123997457D02*
X108050715Y-124140314D01*
X108050715Y-124140314D02*
X108050715Y-124926028D01*
X106336429Y-123926028D02*
X105979286Y-124926028D01*
X105622143Y-123926028D02*
X105979286Y-124926028D01*
X105979286Y-124926028D02*
X106122143Y-125283171D01*
X106122143Y-125283171D02*
X106193572Y-125354600D01*
X106193572Y-125354600D02*
X106336429Y-125426028D01*
X104836429Y-124926028D02*
X104979286Y-124854600D01*
X104979286Y-124854600D02*
X105050715Y-124783171D01*
X105050715Y-124783171D02*
X105122143Y-124640314D01*
X105122143Y-124640314D02*
X105122143Y-124211742D01*
X105122143Y-124211742D02*
X105050715Y-124068885D01*
X105050715Y-124068885D02*
X104979286Y-123997457D01*
X104979286Y-123997457D02*
X104836429Y-123926028D01*
X104836429Y-123926028D02*
X104622143Y-123926028D01*
X104622143Y-123926028D02*
X104479286Y-123997457D01*
X104479286Y-123997457D02*
X104407858Y-124068885D01*
X104407858Y-124068885D02*
X104336429Y-124211742D01*
X104336429Y-124211742D02*
X104336429Y-124640314D01*
X104336429Y-124640314D02*
X104407858Y-124783171D01*
X104407858Y-124783171D02*
X104479286Y-124854600D01*
X104479286Y-124854600D02*
X104622143Y-124926028D01*
X104622143Y-124926028D02*
X104836429Y-124926028D01*
X103050715Y-123926028D02*
X103050715Y-124926028D01*
X103693572Y-123926028D02*
X103693572Y-124711742D01*
X103693572Y-124711742D02*
X103622143Y-124854600D01*
X103622143Y-124854600D02*
X103479286Y-124926028D01*
X103479286Y-124926028D02*
X103265000Y-124926028D01*
X103265000Y-124926028D02*
X103122143Y-124854600D01*
X103122143Y-124854600D02*
X103050715Y-124783171D01*
X102336429Y-124926028D02*
X102336429Y-123926028D01*
X102336429Y-124211742D02*
X102265000Y-124068885D01*
X102265000Y-124068885D02*
X102193572Y-123997457D01*
X102193572Y-123997457D02*
X102050714Y-123926028D01*
X102050714Y-123926028D02*
X101907857Y-123926028D01*
X99622144Y-124854600D02*
X99765001Y-124926028D01*
X99765001Y-124926028D02*
X100050715Y-124926028D01*
X100050715Y-124926028D02*
X100193572Y-124854600D01*
X100193572Y-124854600D02*
X100265001Y-124783171D01*
X100265001Y-124783171D02*
X100336429Y-124640314D01*
X100336429Y-124640314D02*
X100336429Y-124211742D01*
X100336429Y-124211742D02*
X100265001Y-124068885D01*
X100265001Y-124068885D02*
X100193572Y-123997457D01*
X100193572Y-123997457D02*
X100050715Y-123926028D01*
X100050715Y-123926028D02*
X99765001Y-123926028D01*
X99765001Y-123926028D02*
X99622144Y-123997457D01*
X98765001Y-124926028D02*
X98907858Y-124854600D01*
X98907858Y-124854600D02*
X98979287Y-124783171D01*
X98979287Y-124783171D02*
X99050715Y-124640314D01*
X99050715Y-124640314D02*
X99050715Y-124211742D01*
X99050715Y-124211742D02*
X98979287Y-124068885D01*
X98979287Y-124068885D02*
X98907858Y-123997457D01*
X98907858Y-123997457D02*
X98765001Y-123926028D01*
X98765001Y-123926028D02*
X98550715Y-123926028D01*
X98550715Y-123926028D02*
X98407858Y-123997457D01*
X98407858Y-123997457D02*
X98336430Y-124068885D01*
X98336430Y-124068885D02*
X98265001Y-124211742D01*
X98265001Y-124211742D02*
X98265001Y-124640314D01*
X98265001Y-124640314D02*
X98336430Y-124783171D01*
X98336430Y-124783171D02*
X98407858Y-124854600D01*
X98407858Y-124854600D02*
X98550715Y-124926028D01*
X98550715Y-124926028D02*
X98765001Y-124926028D01*
X97622144Y-123926028D02*
X97622144Y-124926028D01*
X97622144Y-124068885D02*
X97550715Y-123997457D01*
X97550715Y-123997457D02*
X97407858Y-123926028D01*
X97407858Y-123926028D02*
X97193572Y-123926028D01*
X97193572Y-123926028D02*
X97050715Y-123997457D01*
X97050715Y-123997457D02*
X96979287Y-124140314D01*
X96979287Y-124140314D02*
X96979287Y-124926028D01*
X96336429Y-124854600D02*
X96193572Y-124926028D01*
X96193572Y-124926028D02*
X95907858Y-124926028D01*
X95907858Y-124926028D02*
X95765001Y-124854600D01*
X95765001Y-124854600D02*
X95693572Y-124711742D01*
X95693572Y-124711742D02*
X95693572Y-124640314D01*
X95693572Y-124640314D02*
X95765001Y-124497457D01*
X95765001Y-124497457D02*
X95907858Y-124426028D01*
X95907858Y-124426028D02*
X96122144Y-124426028D01*
X96122144Y-124426028D02*
X96265001Y-124354600D01*
X96265001Y-124354600D02*
X96336429Y-124211742D01*
X96336429Y-124211742D02*
X96336429Y-124140314D01*
X96336429Y-124140314D02*
X96265001Y-123997457D01*
X96265001Y-123997457D02*
X96122144Y-123926028D01*
X96122144Y-123926028D02*
X95907858Y-123926028D01*
X95907858Y-123926028D02*
X95765001Y-123997457D01*
X94836429Y-124926028D02*
X94979286Y-124854600D01*
X94979286Y-124854600D02*
X95050715Y-124783171D01*
X95050715Y-124783171D02*
X95122143Y-124640314D01*
X95122143Y-124640314D02*
X95122143Y-124211742D01*
X95122143Y-124211742D02*
X95050715Y-124068885D01*
X95050715Y-124068885D02*
X94979286Y-123997457D01*
X94979286Y-123997457D02*
X94836429Y-123926028D01*
X94836429Y-123926028D02*
X94622143Y-123926028D01*
X94622143Y-123926028D02*
X94479286Y-123997457D01*
X94479286Y-123997457D02*
X94407858Y-124068885D01*
X94407858Y-124068885D02*
X94336429Y-124211742D01*
X94336429Y-124211742D02*
X94336429Y-124640314D01*
X94336429Y-124640314D02*
X94407858Y-124783171D01*
X94407858Y-124783171D02*
X94479286Y-124854600D01*
X94479286Y-124854600D02*
X94622143Y-124926028D01*
X94622143Y-124926028D02*
X94836429Y-124926028D01*
X93479286Y-124926028D02*
X93622143Y-124854600D01*
X93622143Y-124854600D02*
X93693572Y-124711742D01*
X93693572Y-124711742D02*
X93693572Y-123426028D01*
X92336429Y-124854600D02*
X92479286Y-124926028D01*
X92479286Y-124926028D02*
X92765001Y-124926028D01*
X92765001Y-124926028D02*
X92907858Y-124854600D01*
X92907858Y-124854600D02*
X92979286Y-124711742D01*
X92979286Y-124711742D02*
X92979286Y-124140314D01*
X92979286Y-124140314D02*
X92907858Y-123997457D01*
X92907858Y-123997457D02*
X92765001Y-123926028D01*
X92765001Y-123926028D02*
X92479286Y-123926028D01*
X92479286Y-123926028D02*
X92336429Y-123997457D01*
X92336429Y-123997457D02*
X92265001Y-124140314D01*
X92265001Y-124140314D02*
X92265001Y-124283171D01*
X92265001Y-124283171D02*
X92979286Y-124426028D01*
X91622144Y-124783171D02*
X91550715Y-124854600D01*
X91550715Y-124854600D02*
X91622144Y-124926028D01*
X91622144Y-124926028D02*
X91693572Y-124854600D01*
X91693572Y-124854600D02*
X91622144Y-124783171D01*
X91622144Y-124783171D02*
X91622144Y-124926028D01*
D12*
G36*
X110615000Y-133373960D02*
G01*
X108661057Y-133373960D01*
X108661057Y-134037079D01*
X108657609Y-134323345D01*
X108647266Y-134578406D01*
X108627001Y-134831694D01*
X108589005Y-135090987D01*
X108567735Y-135174707D01*
X108476774Y-135406585D01*
X108350868Y-135618551D01*
X108265842Y-135727495D01*
X108073519Y-135906873D01*
X107856277Y-136045976D01*
X107816320Y-136066384D01*
X107576094Y-136155091D01*
X107327653Y-136201173D01*
X107079584Y-136214504D01*
X106827829Y-136200538D01*
X106566012Y-136150372D01*
X106331826Y-136063723D01*
X106101392Y-135922634D01*
X105989586Y-135827966D01*
X105821094Y-135640133D01*
X105694720Y-135429888D01*
X105610464Y-135197233D01*
X105588651Y-135093656D01*
X105558705Y-134827577D01*
X105543695Y-134549834D01*
X105536597Y-134262467D01*
X105534748Y-133988230D01*
X105534748Y-133864888D01*
X106394483Y-133864888D01*
X106396119Y-134087725D01*
X106404134Y-134345039D01*
X106428677Y-134596395D01*
X106498873Y-134809756D01*
X106648496Y-135005502D01*
X106847859Y-135126402D01*
X107094239Y-135166702D01*
X107251547Y-135150559D01*
X107480143Y-135051908D01*
X107592342Y-134953448D01*
X107724385Y-134734392D01*
X107733702Y-134707497D01*
X107779608Y-134456864D01*
X107796513Y-134206370D01*
X107801322Y-133930833D01*
X107801322Y-133373960D01*
X106394483Y-133373960D01*
X106394483Y-133864888D01*
X105534748Y-133864888D01*
X105534748Y-132356688D01*
X110615000Y-132356688D01*
X110615000Y-133373960D01*
G37*
G36*
X110615000Y-136991196D02*
G01*
X105534748Y-136991196D01*
X105534748Y-138007247D01*
X110615000Y-138007247D01*
X110615000Y-136991196D01*
G37*
G36*
X108661057Y-142187463D02*
G01*
X108973688Y-143172983D01*
X109223494Y-143094665D01*
X109452370Y-143001679D01*
X109699394Y-142870732D01*
X109916279Y-142718662D01*
X110103025Y-142545469D01*
X110210778Y-142418272D01*
X110348150Y-142210890D01*
X110457100Y-141983501D01*
X110537629Y-141736105D01*
X110589736Y-141468702D01*
X110613421Y-141181292D01*
X110615000Y-141081043D01*
X110604390Y-140835960D01*
X110561290Y-140545278D01*
X110485036Y-140272007D01*
X110375627Y-140016149D01*
X110233065Y-139777702D01*
X110057348Y-139556667D01*
X109936004Y-139432404D01*
X109711654Y-139246645D01*
X109462975Y-139092372D01*
X109189967Y-138969582D01*
X108954043Y-138894020D01*
X108702549Y-138838607D01*
X108435485Y-138803345D01*
X108152850Y-138788232D01*
X108079759Y-138787602D01*
X107777050Y-138797735D01*
X107491744Y-138828131D01*
X107223840Y-138878793D01*
X106973339Y-138949719D01*
X106740239Y-139040909D01*
X106473337Y-139183394D01*
X106233626Y-139357542D01*
X106145355Y-139436067D01*
X105946932Y-139649052D01*
X105782140Y-139881953D01*
X105650978Y-140134771D01*
X105553448Y-140407505D01*
X105489549Y-140700155D01*
X105462644Y-140948615D01*
X105456591Y-141143325D01*
X105470723Y-141423721D01*
X105513119Y-141687123D01*
X105583781Y-141933530D01*
X105682706Y-142162943D01*
X105809896Y-142375362D01*
X105965350Y-142570786D01*
X106035446Y-142644197D01*
X106225650Y-142805092D01*
X106453101Y-142944616D01*
X106682675Y-143049168D01*
X106940767Y-143137358D01*
X107019745Y-143159549D01*
X107176060Y-142153269D01*
X106922125Y-142069035D01*
X106707729Y-141938912D01*
X106547135Y-141780799D01*
X106415727Y-141571584D01*
X106338865Y-141333510D01*
X106316325Y-141092034D01*
X106341208Y-140825504D01*
X106415854Y-140585230D01*
X106540266Y-140371212D01*
X106714441Y-140183450D01*
X106944411Y-140031180D01*
X107196350Y-139933632D01*
X107449971Y-139876531D01*
X107738369Y-139843901D01*
X108005265Y-139835404D01*
X108287730Y-139843782D01*
X108543601Y-139868916D01*
X108815540Y-139921195D01*
X109049183Y-139997602D01*
X109273364Y-140117239D01*
X109353485Y-140178565D01*
X109529264Y-140363045D01*
X109654820Y-140573323D01*
X109730153Y-140809399D01*
X109755265Y-141071273D01*
X109724095Y-141336595D01*
X109630586Y-141575076D01*
X109491482Y-141768586D01*
X109297042Y-141934905D01*
X109071471Y-142057061D01*
X108830739Y-142143748D01*
X108661057Y-142187463D01*
G37*
G36*
X108180460Y-143811104D02*
G01*
X108470546Y-143826646D01*
X108744413Y-143862910D01*
X109002061Y-143919897D01*
X109243489Y-143997606D01*
X109522466Y-144123884D01*
X109776100Y-144282541D01*
X110004392Y-144473576D01*
X110202816Y-144692041D01*
X110367608Y-144932986D01*
X110498769Y-145196412D01*
X110596300Y-145482318D01*
X110650109Y-145727229D01*
X110682395Y-145986527D01*
X110693157Y-146260212D01*
X110682338Y-146530463D01*
X110649880Y-146786785D01*
X110595784Y-147029177D01*
X110497736Y-147312578D01*
X110365877Y-147574215D01*
X110200208Y-147814087D01*
X110000729Y-148032194D01*
X109912091Y-148112494D01*
X109672254Y-148290578D01*
X109406360Y-148436283D01*
X109174883Y-148529534D01*
X108926728Y-148602062D01*
X108661896Y-148653869D01*
X108380387Y-148684952D01*
X108082201Y-148695314D01*
X107929688Y-148692704D01*
X107637398Y-148671829D01*
X107362090Y-148630079D01*
X107103765Y-148567453D01*
X106862423Y-148483953D01*
X106638063Y-148379577D01*
X106381495Y-148219752D01*
X106151461Y-148027309D01*
X105951279Y-147807676D01*
X105785026Y-147566277D01*
X105652702Y-147303114D01*
X105554307Y-147018186D01*
X105500020Y-146774573D01*
X105467448Y-146517030D01*
X105457031Y-146256549D01*
X106316325Y-146256549D01*
X106318014Y-146334043D01*
X106350522Y-146590022D01*
X106438335Y-146853519D01*
X106580186Y-147086026D01*
X106748635Y-147264050D01*
X106776015Y-147287417D01*
X106992115Y-147430212D01*
X107250991Y-147536659D01*
X107506931Y-147598970D01*
X107794298Y-147634576D01*
X108057777Y-147643848D01*
X108112833Y-147643468D01*
X108375126Y-147630152D01*
X108661305Y-147589065D01*
X108916314Y-147520587D01*
X109174431Y-147406075D01*
X109390122Y-147254281D01*
X109443803Y-147204731D01*
X109604413Y-147017858D01*
X109736017Y-146778671D01*
X109812210Y-146512161D01*
X109833422Y-146256549D01*
X109831676Y-146181358D01*
X109798067Y-145931264D01*
X109707277Y-145670344D01*
X109560617Y-145435986D01*
X109386458Y-145252711D01*
X109328799Y-145204945D01*
X109101220Y-145062033D01*
X108874246Y-144969583D01*
X108617819Y-144904868D01*
X108331941Y-144867889D01*
X108071210Y-144858258D01*
X108016612Y-144858634D01*
X107756609Y-144871782D01*
X107473178Y-144912354D01*
X107220916Y-144979974D01*
X106966005Y-145093050D01*
X106753520Y-145242941D01*
X106700579Y-145291980D01*
X106522968Y-145507219D01*
X106400007Y-145752989D01*
X106337246Y-145993081D01*
X106316325Y-146256549D01*
X105457031Y-146256549D01*
X105456591Y-146245558D01*
X105457373Y-146169332D01*
X105472433Y-145911333D01*
X105506660Y-145667008D01*
X105569248Y-145404523D01*
X105656870Y-145159898D01*
X105666336Y-145137894D01*
X105790936Y-144902928D01*
X105936766Y-144700593D01*
X106113604Y-144508991D01*
X106152234Y-144472383D01*
X106354832Y-144303942D01*
X106573172Y-144159829D01*
X106807254Y-144040045D01*
X107048857Y-143950586D01*
X107314186Y-143883100D01*
X107560495Y-143842742D01*
X107824234Y-143818528D01*
X108105404Y-143810457D01*
X108180460Y-143811104D01*
G37*
G36*
X110615000Y-150025216D02*
G01*
X109442634Y-150440429D01*
X109442634Y-152454211D01*
X110615000Y-152893848D01*
X110615000Y-153999047D01*
X105534748Y-151982822D01*
X105534748Y-151433276D01*
X106785272Y-151433276D01*
X108582899Y-152126926D01*
X108582899Y-150753060D01*
X106785272Y-151433276D01*
X105534748Y-151433276D01*
X105534748Y-150908154D01*
X110615000Y-148946884D01*
X110615000Y-150025216D01*
G37*
G36*
X110615000Y-156766318D02*
G01*
X110615000Y-155801559D01*
X106939145Y-155801559D01*
X107128194Y-155596610D01*
X107297838Y-155378351D01*
X107448076Y-155146783D01*
X107578908Y-154901906D01*
X107690335Y-154643719D01*
X107723164Y-154554699D01*
X106785272Y-154554699D01*
X106688481Y-154796986D01*
X106565069Y-155026057D01*
X106426499Y-155238434D01*
X106326095Y-155375355D01*
X106149324Y-155579603D01*
X105958510Y-155749047D01*
X105753651Y-155883686D01*
X105534748Y-155983520D01*
X105534748Y-156766318D01*
X110615000Y-156766318D01*
G37*
G36*
X108195441Y-158187029D02*
G01*
X108455149Y-158193613D01*
X108777148Y-158214678D01*
X109071404Y-158249788D01*
X109337915Y-158298942D01*
X109632038Y-158380134D01*
X109882810Y-158483269D01*
X110126514Y-158635997D01*
X110195131Y-158693437D01*
X110374420Y-158879095D01*
X110513868Y-159084760D01*
X110613473Y-159310432D01*
X110673236Y-159556111D01*
X110693157Y-159821796D01*
X110680546Y-160042170D01*
X110632117Y-160285916D01*
X110529710Y-160541745D01*
X110377866Y-160766836D01*
X110176584Y-160961189D01*
X109960748Y-161103674D01*
X109705557Y-161222009D01*
X109473069Y-161299289D01*
X109215393Y-161361113D01*
X108932529Y-161407481D01*
X108624478Y-161438393D01*
X108376910Y-161451434D01*
X108115174Y-161455781D01*
X107938842Y-161453863D01*
X107686294Y-161443796D01*
X107371870Y-161416948D01*
X107082938Y-161374759D01*
X106819499Y-161317228D01*
X106526050Y-161223741D01*
X106272433Y-161106282D01*
X106058649Y-160964853D01*
X105880605Y-160798901D01*
X105719444Y-160577075D01*
X105608422Y-160324860D01*
X105553167Y-160084491D01*
X105534748Y-159821796D01*
X106394483Y-159821796D01*
X106401276Y-159906671D01*
X106503171Y-160131985D01*
X106693065Y-160270788D01*
X106934260Y-160357909D01*
X107073636Y-160388206D01*
X107318375Y-160418851D01*
X107587744Y-160436524D01*
X107859655Y-160444882D01*
X108115174Y-160447058D01*
X108322590Y-160445493D01*
X108604375Y-160437279D01*
X108850956Y-160422023D01*
X109094137Y-160395326D01*
X109336388Y-160346919D01*
X109522089Y-160282118D01*
X109724734Y-160134427D01*
X109772285Y-160063139D01*
X109833422Y-159821796D01*
X109826782Y-159736846D01*
X109727177Y-159510387D01*
X109538657Y-159372571D01*
X109298531Y-159285683D01*
X109158697Y-159255387D01*
X108913347Y-159224742D01*
X108643443Y-159207069D01*
X108371074Y-159198711D01*
X108115174Y-159196535D01*
X107907987Y-159198099D01*
X107626259Y-159206314D01*
X107379392Y-159221570D01*
X107135443Y-159248267D01*
X106891517Y-159296674D01*
X106705816Y-159361475D01*
X106503171Y-159509166D01*
X106455620Y-159580454D01*
X106394483Y-159821796D01*
X105534748Y-159821796D01*
X105547360Y-159601071D01*
X105595789Y-159356981D01*
X105698195Y-159100860D01*
X105850040Y-158875594D01*
X106051322Y-158681182D01*
X106266978Y-158538697D01*
X106521632Y-158420362D01*
X106753434Y-158343082D01*
X107010195Y-158281259D01*
X107291913Y-158234891D01*
X107598591Y-158203979D01*
X107844978Y-158190938D01*
X108105404Y-158186591D01*
X108195441Y-158187029D01*
G37*
G36*
X109598949Y-163975146D02*
G01*
X110615000Y-163975146D01*
X110615000Y-164909375D01*
X109598949Y-164909375D01*
X109598949Y-165534637D01*
X108739214Y-165534637D01*
X108739214Y-164909375D01*
X105612906Y-164909375D01*
X105612906Y-164099710D01*
X105791362Y-163975146D01*
X107083248Y-163975146D01*
X108739214Y-163975146D01*
X108739214Y-162818656D01*
X107083248Y-163975146D01*
X105791362Y-163975146D01*
X108742878Y-161914958D01*
X109598949Y-161914958D01*
X109598949Y-163975146D01*
G37*
G36*
X108195441Y-165973491D02*
G01*
X108455149Y-165980075D01*
X108777148Y-166001140D01*
X109071404Y-166036250D01*
X109337915Y-166085404D01*
X109632038Y-166166596D01*
X109882810Y-166269731D01*
X110126514Y-166422459D01*
X110195131Y-166479899D01*
X110374420Y-166665557D01*
X110513868Y-166871222D01*
X110613473Y-167096894D01*
X110673236Y-167342573D01*
X110693157Y-167608258D01*
X110680546Y-167828632D01*
X110632117Y-168072378D01*
X110529710Y-168328207D01*
X110377866Y-168553298D01*
X110176584Y-168747651D01*
X109960748Y-168890136D01*
X109705557Y-169008471D01*
X109473069Y-169085751D01*
X109215393Y-169147575D01*
X108932529Y-169193943D01*
X108624478Y-169224855D01*
X108376910Y-169237896D01*
X108115174Y-169242243D01*
X107938842Y-169240325D01*
X107686294Y-169230257D01*
X107371870Y-169203410D01*
X107082938Y-169161221D01*
X106819499Y-169103690D01*
X106526050Y-169010203D01*
X106272433Y-168892744D01*
X106058649Y-168751315D01*
X105880605Y-168585363D01*
X105719444Y-168363536D01*
X105608422Y-168111322D01*
X105553167Y-167870953D01*
X105534748Y-167608258D01*
X106394483Y-167608258D01*
X106401276Y-167693133D01*
X106503171Y-167918447D01*
X106693065Y-168057250D01*
X106934260Y-168144371D01*
X107073636Y-168174668D01*
X107318375Y-168205313D01*
X107587744Y-168222986D01*
X107859655Y-168231344D01*
X108115174Y-168233520D01*
X108322590Y-168231955D01*
X108604375Y-168223741D01*
X108850956Y-168208485D01*
X109094137Y-168181788D01*
X109336388Y-168133381D01*
X109522089Y-168068580D01*
X109724734Y-167920889D01*
X109772285Y-167849601D01*
X109833422Y-167608258D01*
X109826782Y-167523308D01*
X109727177Y-167296849D01*
X109538657Y-167159033D01*
X109298531Y-167072145D01*
X109158697Y-167041849D01*
X108913347Y-167011204D01*
X108643443Y-166993531D01*
X108371074Y-166985173D01*
X108115174Y-166982997D01*
X107907987Y-166984561D01*
X107626259Y-166992776D01*
X107379392Y-167008032D01*
X107135443Y-167034729D01*
X106891517Y-167083136D01*
X106705816Y-167147937D01*
X106503171Y-167295628D01*
X106455620Y-167366916D01*
X106394483Y-167608258D01*
X105534748Y-167608258D01*
X105547360Y-167387533D01*
X105595789Y-167143443D01*
X105698195Y-166887322D01*
X105850040Y-166662056D01*
X106051322Y-166467644D01*
X106266978Y-166325159D01*
X106521632Y-166206824D01*
X106753434Y-166129544D01*
X107010195Y-166067720D01*
X107291913Y-166021353D01*
X107598591Y-165990441D01*
X107844978Y-165977400D01*
X108105404Y-165973053D01*
X108195441Y-165973491D01*
G37*
G36*
X108195441Y-169866722D02*
G01*
X108455149Y-169873306D01*
X108777148Y-169894371D01*
X109071404Y-169929481D01*
X109337915Y-169978635D01*
X109632038Y-170059827D01*
X109882810Y-170162962D01*
X110126514Y-170315690D01*
X110195131Y-170373130D01*
X110374420Y-170558788D01*
X110513868Y-170764453D01*
X110613473Y-170990125D01*
X110673236Y-171235804D01*
X110693157Y-171501489D01*
X110680546Y-171721862D01*
X110632117Y-171965609D01*
X110529710Y-172221438D01*
X110377866Y-172446529D01*
X110176584Y-172640882D01*
X109960748Y-172783367D01*
X109705557Y-172901702D01*
X109473069Y-172978982D01*
X109215393Y-173040806D01*
X108932529Y-173087174D01*
X108624478Y-173118086D01*
X108376910Y-173131127D01*
X108115174Y-173135474D01*
X107938842Y-173133556D01*
X107686294Y-173123488D01*
X107371870Y-173096641D01*
X107082938Y-173054452D01*
X106819499Y-172996921D01*
X106526050Y-172903434D01*
X106272433Y-172785975D01*
X106058649Y-172644546D01*
X105880605Y-172478594D01*
X105719444Y-172256767D01*
X105608422Y-172004553D01*
X105553167Y-171764184D01*
X105534748Y-171501489D01*
X106394483Y-171501489D01*
X106401276Y-171586364D01*
X106503171Y-171811678D01*
X106693065Y-171950481D01*
X106934260Y-172037602D01*
X107073636Y-172067899D01*
X107318375Y-172098544D01*
X107587744Y-172116217D01*
X107859655Y-172124575D01*
X108115174Y-172126751D01*
X108322590Y-172125186D01*
X108604375Y-172116972D01*
X108850956Y-172101716D01*
X109094137Y-172075019D01*
X109336388Y-172026612D01*
X109522089Y-171961811D01*
X109724734Y-171814120D01*
X109772285Y-171742832D01*
X109833422Y-171501489D01*
X109826782Y-171416539D01*
X109727177Y-171190080D01*
X109538657Y-171052264D01*
X109298531Y-170965376D01*
X109158697Y-170935080D01*
X108913347Y-170904435D01*
X108643443Y-170886762D01*
X108371074Y-170878404D01*
X108115174Y-170876228D01*
X107907987Y-170877792D01*
X107626259Y-170886007D01*
X107379392Y-170901263D01*
X107135443Y-170927960D01*
X106891517Y-170976367D01*
X106705816Y-171041168D01*
X106503171Y-171188859D01*
X106455620Y-171260147D01*
X106394483Y-171501489D01*
X105534748Y-171501489D01*
X105547360Y-171280764D01*
X105595789Y-171036674D01*
X105698195Y-170780553D01*
X105850040Y-170555287D01*
X106051322Y-170360875D01*
X106266978Y-170218390D01*
X106521632Y-170100055D01*
X106753434Y-170022775D01*
X107010195Y-169960951D01*
X107291913Y-169914583D01*
X107598591Y-169883672D01*
X107844978Y-169870631D01*
X108105404Y-169866284D01*
X108195441Y-169866722D01*
G37*
D10*
X80242200Y-147646667D02*
X80289819Y-147789524D01*
X80289819Y-147789524D02*
X80289819Y-148027619D01*
X80289819Y-148027619D02*
X80242200Y-148122857D01*
X80242200Y-148122857D02*
X80194580Y-148170476D01*
X80194580Y-148170476D02*
X80099342Y-148218095D01*
X80099342Y-148218095D02*
X80004104Y-148218095D01*
X80004104Y-148218095D02*
X79908866Y-148170476D01*
X79908866Y-148170476D02*
X79861247Y-148122857D01*
X79861247Y-148122857D02*
X79813628Y-148027619D01*
X79813628Y-148027619D02*
X79766009Y-147837143D01*
X79766009Y-147837143D02*
X79718390Y-147741905D01*
X79718390Y-147741905D02*
X79670771Y-147694286D01*
X79670771Y-147694286D02*
X79575533Y-147646667D01*
X79575533Y-147646667D02*
X79480295Y-147646667D01*
X79480295Y-147646667D02*
X79385057Y-147694286D01*
X79385057Y-147694286D02*
X79337438Y-147741905D01*
X79337438Y-147741905D02*
X79289819Y-147837143D01*
X79289819Y-147837143D02*
X79289819Y-148075238D01*
X79289819Y-148075238D02*
X79337438Y-148218095D01*
X79289819Y-148551429D02*
X80289819Y-148789524D01*
X80289819Y-148789524D02*
X79575533Y-148980000D01*
X79575533Y-148980000D02*
X80289819Y-149170476D01*
X80289819Y-149170476D02*
X79289819Y-149408572D01*
X80289819Y-150313333D02*
X80289819Y-149741905D01*
X80289819Y-150027619D02*
X79289819Y-150027619D01*
X79289819Y-150027619D02*
X79432676Y-149932381D01*
X79432676Y-149932381D02*
X79527914Y-149837143D01*
X79527914Y-149837143D02*
X79575533Y-149741905D01*
X133929819Y-154001905D02*
X132929819Y-154001905D01*
X132929819Y-154001905D02*
X132929819Y-154240000D01*
X132929819Y-154240000D02*
X132977438Y-154382857D01*
X132977438Y-154382857D02*
X133072676Y-154478095D01*
X133072676Y-154478095D02*
X133167914Y-154525714D01*
X133167914Y-154525714D02*
X133358390Y-154573333D01*
X133358390Y-154573333D02*
X133501247Y-154573333D01*
X133501247Y-154573333D02*
X133691723Y-154525714D01*
X133691723Y-154525714D02*
X133786961Y-154478095D01*
X133786961Y-154478095D02*
X133882200Y-154382857D01*
X133882200Y-154382857D02*
X133929819Y-154240000D01*
X133929819Y-154240000D02*
X133929819Y-154001905D01*
X133025057Y-154954286D02*
X132977438Y-155001905D01*
X132977438Y-155001905D02*
X132929819Y-155097143D01*
X132929819Y-155097143D02*
X132929819Y-155335238D01*
X132929819Y-155335238D02*
X132977438Y-155430476D01*
X132977438Y-155430476D02*
X133025057Y-155478095D01*
X133025057Y-155478095D02*
X133120295Y-155525714D01*
X133120295Y-155525714D02*
X133215533Y-155525714D01*
X133215533Y-155525714D02*
X133358390Y-155478095D01*
X133358390Y-155478095D02*
X133929819Y-154906667D01*
X133929819Y-154906667D02*
X133929819Y-155525714D01*
D13*
%TO.C,g1*%
G36*
X77853830Y-137365770D02*
G01*
X77853830Y-139322916D01*
X77545512Y-139322916D01*
X77237195Y-139322916D01*
X77237195Y-137365770D01*
X77237195Y-135408624D01*
X77545512Y-135408624D01*
X77853830Y-135408624D01*
X77853830Y-137365770D01*
G37*
G36*
X83221235Y-130242296D02*
G01*
X83221235Y-134566784D01*
X82580471Y-134566784D01*
X81939707Y-134566784D01*
X81939707Y-130242296D01*
X81939707Y-125917808D01*
X82580471Y-125917808D01*
X83221235Y-125917808D01*
X83221235Y-130242296D01*
G37*
G36*
X85644879Y-135698175D02*
G01*
X85644879Y-135987725D01*
X85234682Y-135987725D01*
X84824486Y-135987725D01*
X84824486Y-137655321D01*
X84824486Y-139322916D01*
X84518850Y-139322916D01*
X84213213Y-139322916D01*
X84213213Y-137655321D01*
X84213213Y-135987725D01*
X83819103Y-135987725D01*
X83424993Y-135987725D01*
X83424993Y-135698175D01*
X83424993Y-135408624D01*
X84534936Y-135408624D01*
X85644879Y-135408624D01*
X85644879Y-135698175D01*
G37*
G36*
X76213044Y-135228996D02*
G01*
X76213044Y-135499779D01*
X76167467Y-135499779D01*
X76121890Y-135499779D01*
X76121890Y-135395219D01*
X76121890Y-135290660D01*
X76074843Y-135290660D01*
X76027797Y-135290660D01*
X75953328Y-135395219D01*
X75878858Y-135499779D01*
X75833834Y-135499779D01*
X75816067Y-135499578D01*
X75800556Y-135498559D01*
X75793269Y-135496469D01*
X75792786Y-135493077D01*
X75794890Y-135489627D01*
X75802158Y-135477831D01*
X75813681Y-135459187D01*
X75828629Y-135435034D01*
X75846174Y-135406710D01*
X75865490Y-135375553D01*
X75879339Y-135353158D01*
X75897035Y-135324337D01*
X75912144Y-135299491D01*
X75923892Y-135279900D01*
X75931508Y-135266847D01*
X75934218Y-135261610D01*
X75930183Y-135259461D01*
X75919472Y-135258457D01*
X75911918Y-135258168D01*
X75880581Y-135250925D01*
X75852463Y-135235161D01*
X75828482Y-135212499D01*
X75809559Y-135184563D01*
X75796614Y-135152978D01*
X75790567Y-135119367D01*
X75790946Y-135112094D01*
X75878084Y-135112094D01*
X75878474Y-135121846D01*
X75885019Y-135151925D01*
X75899336Y-135175278D01*
X75921052Y-135191216D01*
X75930584Y-135194808D01*
X75951998Y-135199185D01*
X75981248Y-135201667D01*
X76019253Y-135202316D01*
X76066929Y-135201195D01*
X76121890Y-135199130D01*
X76121890Y-135122328D01*
X76121890Y-135045527D01*
X76035214Y-135042761D01*
X76012410Y-135042123D01*
X75978841Y-135041802D01*
X75953223Y-135042780D01*
X75933794Y-135045341D01*
X75918797Y-135049768D01*
X75906471Y-135056345D01*
X75895057Y-135065356D01*
X75887539Y-135072547D01*
X75881225Y-135081769D01*
X75878563Y-135093603D01*
X75878084Y-135112094D01*
X75790946Y-135112094D01*
X75792339Y-135085355D01*
X75802847Y-135052567D01*
X75821918Y-135023548D01*
X75850900Y-134997801D01*
X75888173Y-134977907D01*
X75933141Y-134964273D01*
X75935031Y-134963910D01*
X75951430Y-134962037D01*
X75976551Y-134960464D01*
X76008700Y-134959258D01*
X76046181Y-134958485D01*
X76087300Y-134958213D01*
X76213044Y-134958213D01*
X76213044Y-135045527D01*
X76213044Y-135228996D01*
G37*
G36*
X76512586Y-135275893D02*
G01*
X76501089Y-135344865D01*
X76480181Y-135410561D01*
X76450536Y-135472147D01*
X76412827Y-135528791D01*
X76367728Y-135579659D01*
X76315913Y-135623919D01*
X76258055Y-135660737D01*
X76194826Y-135689280D01*
X76126901Y-135708715D01*
X76119249Y-135709782D01*
X76100166Y-135711088D01*
X76074325Y-135711929D01*
X76044126Y-135712239D01*
X76011968Y-135711949D01*
X75999689Y-135711684D01*
X75958507Y-135710044D01*
X75924601Y-135706982D01*
X75895252Y-135701930D01*
X75867743Y-135694319D01*
X75839357Y-135683581D01*
X75807378Y-135669148D01*
X75793995Y-135662554D01*
X75733213Y-135625764D01*
X75680072Y-135581578D01*
X75634907Y-135530428D01*
X75598055Y-135472744D01*
X75569850Y-135408956D01*
X75550626Y-135339495D01*
X75547055Y-135316953D01*
X75543917Y-135279384D01*
X75542935Y-135237786D01*
X75543022Y-135234358D01*
X75636625Y-135234358D01*
X75636722Y-135260763D01*
X75637284Y-135288542D01*
X75638564Y-135309919D01*
X75640810Y-135327368D01*
X75644267Y-135343359D01*
X75649182Y-135360366D01*
X75651693Y-135368168D01*
X75676701Y-135428353D01*
X75709273Y-135481636D01*
X75748887Y-135527496D01*
X75795017Y-135565408D01*
X75847138Y-135594850D01*
X75904727Y-135615297D01*
X75918026Y-135618163D01*
X75948011Y-135622214D01*
X75983696Y-135624936D01*
X76021921Y-135626245D01*
X76059527Y-135626060D01*
X76093353Y-135624299D01*
X76120239Y-135620881D01*
X76122406Y-135620459D01*
X76179054Y-135603945D01*
X76231556Y-135578084D01*
X76279244Y-135543655D01*
X76321447Y-135501434D01*
X76357497Y-135452200D01*
X76386723Y-135396731D01*
X76408457Y-135335804D01*
X76422029Y-135270198D01*
X76424382Y-135232905D01*
X76419761Y-135179993D01*
X76406851Y-135125797D01*
X76386349Y-135072430D01*
X76358952Y-135022007D01*
X76325355Y-134976642D01*
X76304785Y-134954386D01*
X76255243Y-134911210D01*
X76201484Y-134877351D01*
X76144326Y-134853039D01*
X76084585Y-134838507D01*
X76023079Y-134833984D01*
X75960624Y-134839701D01*
X75898038Y-134855890D01*
X75877984Y-134863251D01*
X75834267Y-134883523D01*
X75794742Y-134909012D01*
X75755423Y-134942127D01*
X75753555Y-134943875D01*
X75710399Y-134991465D01*
X75676476Y-135044074D01*
X75652186Y-135101085D01*
X75650044Y-135107675D01*
X75644707Y-135125276D01*
X75641006Y-135140894D01*
X75638644Y-135157070D01*
X75637324Y-135176345D01*
X75636750Y-135201261D01*
X75636625Y-135234358D01*
X75543022Y-135234358D01*
X75544015Y-135195083D01*
X75547063Y-135154199D01*
X75551983Y-135118058D01*
X75558683Y-135089583D01*
X75570492Y-135056801D01*
X75600871Y-134995086D01*
X75639508Y-134939659D01*
X75685767Y-134891053D01*
X75739009Y-134849801D01*
X75798598Y-134816436D01*
X75863895Y-134791491D01*
X75934265Y-134775499D01*
X75949152Y-134773615D01*
X75984408Y-134771389D01*
X76024397Y-134771100D01*
X76066044Y-134772606D01*
X76106270Y-134775763D01*
X76141997Y-134780428D01*
X76170148Y-134786458D01*
X76211963Y-134800436D01*
X76275844Y-134830537D01*
X76333850Y-134869203D01*
X76385256Y-134915834D01*
X76429339Y-134969833D01*
X76465374Y-135030600D01*
X76471820Y-135043869D01*
X76491757Y-135091005D01*
X76504968Y-135135234D01*
X76512322Y-135180062D01*
X76514693Y-135228996D01*
X76514517Y-135232905D01*
X76512586Y-135275893D01*
G37*
G36*
X81671605Y-125917808D02*
G01*
X81671563Y-126610852D01*
X81671278Y-126869010D01*
X81670381Y-127129014D01*
X81668841Y-127378903D01*
X81666626Y-127618982D01*
X81663703Y-127849553D01*
X81660041Y-128070920D01*
X81655608Y-128283387D01*
X81650370Y-128487257D01*
X81644297Y-128682835D01*
X81637356Y-128870423D01*
X81629515Y-129050325D01*
X81620743Y-129222845D01*
X81611006Y-129388287D01*
X81600273Y-129546953D01*
X81588512Y-129699149D01*
X81575691Y-129845176D01*
X81561778Y-129985340D01*
X81546740Y-130119943D01*
X81530545Y-130249289D01*
X81513163Y-130373682D01*
X81494559Y-130493426D01*
X81474703Y-130608823D01*
X81453562Y-130720178D01*
X81431104Y-130827794D01*
X81407297Y-130931975D01*
X81382110Y-131033024D01*
X81355509Y-131131246D01*
X81327463Y-131226943D01*
X81297940Y-131320419D01*
X81266908Y-131411978D01*
X81234334Y-131501924D01*
X81200187Y-131590560D01*
X81164434Y-131678189D01*
X81127044Y-131765116D01*
X81110520Y-131801766D01*
X81088117Y-131849776D01*
X81062796Y-131902666D01*
X81035475Y-131958605D01*
X81007071Y-132015763D01*
X80978504Y-132072308D01*
X80950691Y-132126409D01*
X80924552Y-132176236D01*
X80901004Y-132219958D01*
X80880965Y-132255743D01*
X80825642Y-132348072D01*
X80729271Y-132494462D01*
X80623134Y-132639874D01*
X80507821Y-132783861D01*
X80383918Y-132925975D01*
X80252012Y-133065770D01*
X80112692Y-133202799D01*
X79966544Y-133336614D01*
X79814157Y-133466769D01*
X79656116Y-133592816D01*
X79493010Y-133714309D01*
X79325427Y-133830799D01*
X79153953Y-133941842D01*
X78979176Y-134046988D01*
X78801683Y-134145791D01*
X78622062Y-134237805D01*
X78440901Y-134322581D01*
X78258786Y-134399674D01*
X78076305Y-134468635D01*
X77894045Y-134529019D01*
X77763133Y-134567332D01*
X77634052Y-134600825D01*
X77507909Y-134628918D01*
X77381915Y-134652231D01*
X77253281Y-134671384D01*
X77228597Y-134674570D01*
X77198083Y-134678308D01*
X77171562Y-134681336D01*
X77151243Y-134683403D01*
X77139337Y-134684260D01*
X77119230Y-134684749D01*
X77119230Y-134031005D01*
X77119230Y-133377262D01*
X77133975Y-133374290D01*
X77138570Y-133373408D01*
X77154274Y-133370579D01*
X77175721Y-133366850D01*
X77199660Y-133362791D01*
X77263359Y-133351274D01*
X77367006Y-133329388D01*
X77474353Y-133303216D01*
X77582113Y-133273577D01*
X77686996Y-133241290D01*
X77747733Y-133220897D01*
X77929240Y-133152505D01*
X78107781Y-133073912D01*
X78283400Y-132985091D01*
X78456143Y-132886013D01*
X78626057Y-132776652D01*
X78793185Y-132656981D01*
X78957575Y-132526972D01*
X79119272Y-132386598D01*
X79143603Y-132364154D01*
X79183814Y-132325946D01*
X79228536Y-132282391D01*
X79276220Y-132235066D01*
X79325321Y-132185546D01*
X79374288Y-132135409D01*
X79421576Y-132086231D01*
X79465636Y-132039588D01*
X79504921Y-131997057D01*
X79537882Y-131960214D01*
X79596060Y-131892729D01*
X79674282Y-131798978D01*
X79751744Y-131702810D01*
X79827661Y-131605310D01*
X79901249Y-131507561D01*
X79971723Y-131410647D01*
X80038299Y-131315651D01*
X80100193Y-131223658D01*
X80156618Y-131135751D01*
X80206792Y-131053014D01*
X80249930Y-130976532D01*
X80290777Y-130897871D01*
X80354867Y-130762005D01*
X80416239Y-130616079D01*
X80474851Y-130460302D01*
X80530663Y-130294877D01*
X80583632Y-130120012D01*
X80633716Y-129935911D01*
X80680875Y-129742782D01*
X80725065Y-129540830D01*
X80766247Y-129330260D01*
X80804377Y-129111279D01*
X80839414Y-128884093D01*
X80871316Y-128648908D01*
X80900042Y-128405929D01*
X80925550Y-128155363D01*
X80947799Y-127897415D01*
X80966746Y-127632291D01*
X80982350Y-127360197D01*
X80983580Y-127335709D01*
X80987299Y-127259591D01*
X80990549Y-127189019D01*
X80993359Y-127122637D01*
X80995760Y-127059090D01*
X80997783Y-126997022D01*
X80999456Y-126935076D01*
X81000811Y-126871897D01*
X81001877Y-126806130D01*
X81002686Y-126736418D01*
X81003266Y-126661405D01*
X81003649Y-126579737D01*
X81003864Y-126490056D01*
X81003942Y-126391008D01*
X81004030Y-125917807D01*
X81337817Y-125917807D01*
X81671605Y-125917808D01*
G37*
G36*
X84129021Y-126391008D02*
G01*
X84129626Y-126482518D01*
X84130272Y-126566869D01*
X84130978Y-126643040D01*
X84131774Y-126712319D01*
X84132693Y-126775993D01*
X84133767Y-126835350D01*
X84135027Y-126891677D01*
X84136505Y-126946261D01*
X84138234Y-127000390D01*
X84140244Y-127055350D01*
X84142568Y-127112430D01*
X84145238Y-127172916D01*
X84148286Y-127238096D01*
X84151743Y-127309258D01*
X84158565Y-127439628D01*
X84175626Y-127713626D01*
X84195987Y-127980107D01*
X84219611Y-128238902D01*
X84246463Y-128489844D01*
X84276508Y-128732764D01*
X84309711Y-128967494D01*
X84346036Y-129193865D01*
X84385449Y-129411710D01*
X84427913Y-129620859D01*
X84473395Y-129821144D01*
X84521858Y-130012398D01*
X84573268Y-130194451D01*
X84627589Y-130367135D01*
X84684786Y-130530283D01*
X84744824Y-130683725D01*
X84807667Y-130827294D01*
X84873281Y-130960820D01*
X84941629Y-131084136D01*
X84959662Y-131114096D01*
X84998918Y-131176278D01*
X85044026Y-131244430D01*
X85094065Y-131317295D01*
X85148114Y-131393614D01*
X85205252Y-131472129D01*
X85264555Y-131551580D01*
X85325105Y-131630711D01*
X85385978Y-131708261D01*
X85446253Y-131782974D01*
X85505010Y-131853590D01*
X85603568Y-131967035D01*
X85750084Y-132125305D01*
X85900347Y-132275748D01*
X86053602Y-132417644D01*
X86209096Y-132550277D01*
X86366074Y-132672928D01*
X86482557Y-132756785D01*
X86651904Y-132868265D01*
X86823977Y-132969394D01*
X86998845Y-133060203D01*
X87176573Y-133140721D01*
X87357229Y-133210977D01*
X87540881Y-133271003D01*
X87727595Y-133320827D01*
X87917439Y-133360479D01*
X87939435Y-133364441D01*
X87966076Y-133369206D01*
X87987501Y-133372999D01*
X88001932Y-133375505D01*
X88007590Y-133376410D01*
X88007798Y-133380132D01*
X88008037Y-133393896D01*
X88008266Y-133417188D01*
X88008482Y-133449359D01*
X88008683Y-133489759D01*
X88008868Y-133537740D01*
X88009035Y-133592650D01*
X88009181Y-133653841D01*
X88009305Y-133720664D01*
X88009405Y-133792468D01*
X88009479Y-133868603D01*
X88009524Y-133948421D01*
X88009540Y-134031272D01*
X88009540Y-134686134D01*
X87970665Y-134682502D01*
X87959348Y-134681388D01*
X87913345Y-134676015D01*
X87860148Y-134668732D01*
X87802293Y-134659935D01*
X87742318Y-134650024D01*
X87682759Y-134639396D01*
X87626154Y-134628449D01*
X87620905Y-134627383D01*
X87436358Y-134584906D01*
X87249240Y-134532151D01*
X87059762Y-134469195D01*
X86868138Y-134396114D01*
X86674579Y-134312982D01*
X86479298Y-134219877D01*
X86358123Y-134157485D01*
X86177407Y-134057729D01*
X85999950Y-133951757D01*
X85826284Y-133840043D01*
X85656942Y-133723058D01*
X85492457Y-133601277D01*
X85333362Y-133475172D01*
X85180188Y-133345217D01*
X85033470Y-133211884D01*
X84893738Y-133075648D01*
X84761527Y-132936980D01*
X84637369Y-132796355D01*
X84521797Y-132654244D01*
X84415342Y-132511123D01*
X84318539Y-132367462D01*
X84231919Y-132223737D01*
X84214433Y-132192147D01*
X84189745Y-132145810D01*
X84162640Y-132093398D01*
X84134144Y-132036990D01*
X84105284Y-131978666D01*
X84077088Y-131920505D01*
X84050583Y-131864587D01*
X84026795Y-131812991D01*
X84006752Y-131767797D01*
X83978973Y-131702288D01*
X83938442Y-131602045D01*
X83900050Y-131500969D01*
X83863738Y-131398650D01*
X83829447Y-131294677D01*
X83797120Y-131188637D01*
X83766698Y-131080120D01*
X83738123Y-130968716D01*
X83711337Y-130854012D01*
X83686281Y-130735599D01*
X83662898Y-130613064D01*
X83641129Y-130485997D01*
X83620916Y-130353986D01*
X83602200Y-130216621D01*
X83584924Y-130073491D01*
X83569029Y-129924183D01*
X83554457Y-129768289D01*
X83541150Y-129605395D01*
X83529050Y-129435092D01*
X83518097Y-129256967D01*
X83508235Y-129070611D01*
X83499405Y-128875611D01*
X83491548Y-128671558D01*
X83484607Y-128458039D01*
X83478523Y-128234644D01*
X83473238Y-128000961D01*
X83471983Y-127936152D01*
X83470485Y-127849468D01*
X83469010Y-127754340D01*
X83467569Y-127652016D01*
X83466173Y-127543739D01*
X83464836Y-127430754D01*
X83463568Y-127314308D01*
X83462382Y-127195644D01*
X83461289Y-127076009D01*
X83460301Y-126956646D01*
X83459430Y-126838803D01*
X83458688Y-126723722D01*
X83458086Y-126612651D01*
X83457637Y-126506833D01*
X83457352Y-126407514D01*
X83457243Y-126315939D01*
X83457165Y-125917808D01*
X83791616Y-125917808D01*
X84126067Y-125917808D01*
X84129021Y-126391008D01*
G37*
G36*
X83377889Y-137851172D02*
G01*
X83410784Y-137966643D01*
X83443187Y-138080410D01*
X83474969Y-138192021D01*
X83505999Y-138301021D01*
X83536149Y-138406958D01*
X83565290Y-138509379D01*
X83593293Y-138607831D01*
X83620028Y-138701861D01*
X83645366Y-138791016D01*
X83669179Y-138874843D01*
X83691336Y-138952888D01*
X83711710Y-139024699D01*
X83730170Y-139089823D01*
X83746588Y-139147807D01*
X83760834Y-139198198D01*
X83772780Y-139240542D01*
X83782296Y-139274387D01*
X83789253Y-139299279D01*
X83793522Y-139314766D01*
X83794974Y-139320395D01*
X83791779Y-139320757D01*
X83778861Y-139321155D01*
X83756910Y-139321479D01*
X83726878Y-139321723D01*
X83689712Y-139321884D01*
X83646365Y-139321958D01*
X83597784Y-139321941D01*
X83544921Y-139321829D01*
X83488725Y-139321620D01*
X83182477Y-139320235D01*
X83047387Y-138840332D01*
X82912296Y-138360429D01*
X82322379Y-138359066D01*
X81732462Y-138357702D01*
X81605507Y-138809477D01*
X81590385Y-138863286D01*
X81571743Y-138929612D01*
X81553958Y-138992881D01*
X81537256Y-139052286D01*
X81521866Y-139107019D01*
X81508013Y-139156272D01*
X81495926Y-139199238D01*
X81485831Y-139235110D01*
X81477955Y-139263080D01*
X81472526Y-139282341D01*
X81469771Y-139292084D01*
X81460990Y-139322916D01*
X81156101Y-139322916D01*
X81100790Y-139322868D01*
X81033979Y-139322645D01*
X80977720Y-139322239D01*
X80931912Y-139321646D01*
X80896457Y-139320867D01*
X80871255Y-139319899D01*
X80856206Y-139318740D01*
X80851212Y-139317388D01*
X80851657Y-139315290D01*
X80854685Y-139303733D01*
X80860469Y-139282567D01*
X80868879Y-139252244D01*
X80879785Y-139213214D01*
X80893061Y-139165930D01*
X80908576Y-139110842D01*
X80926202Y-139048402D01*
X80945809Y-138979062D01*
X80967270Y-138903273D01*
X80990455Y-138821485D01*
X81015236Y-138734151D01*
X81041483Y-138641722D01*
X81069068Y-138544650D01*
X81097862Y-138443385D01*
X81127736Y-138338379D01*
X81158562Y-138230083D01*
X81190209Y-138118950D01*
X81222551Y-138005429D01*
X81255457Y-137889974D01*
X81288339Y-137774648D01*
X81880724Y-137774648D01*
X81881439Y-137774880D01*
X81890400Y-137775494D01*
X81908984Y-137776075D01*
X81936389Y-137776617D01*
X81971808Y-137777110D01*
X82014438Y-137777549D01*
X82063475Y-137777924D01*
X82118112Y-137778229D01*
X82177547Y-137778457D01*
X82240973Y-137778599D01*
X82307588Y-137778648D01*
X82734452Y-137778648D01*
X82730785Y-137763902D01*
X82728935Y-137757209D01*
X82724342Y-137740921D01*
X82717214Y-137715767D01*
X82707758Y-137682471D01*
X82696181Y-137641758D01*
X82682689Y-137594351D01*
X82667488Y-137540973D01*
X82650786Y-137482350D01*
X82632788Y-137419205D01*
X82613703Y-137352262D01*
X82593735Y-137282245D01*
X82573092Y-137209878D01*
X82551981Y-137135885D01*
X82530608Y-137060989D01*
X82509179Y-136985916D01*
X82487902Y-136911388D01*
X82466983Y-136838130D01*
X82446628Y-136766865D01*
X82427045Y-136698319D01*
X82408439Y-136633213D01*
X82391017Y-136572274D01*
X82374987Y-136516223D01*
X82360554Y-136465787D01*
X82347926Y-136421687D01*
X82337308Y-136384649D01*
X82328908Y-136355397D01*
X82322932Y-136334653D01*
X82319587Y-136323143D01*
X82313231Y-136303816D01*
X82308048Y-136293526D01*
X82304421Y-136293652D01*
X82304329Y-136293871D01*
X82302053Y-136301126D01*
X82297076Y-136317874D01*
X82289599Y-136343409D01*
X82279825Y-136377022D01*
X82267957Y-136418007D01*
X82254196Y-136465657D01*
X82238746Y-136519265D01*
X82221808Y-136578123D01*
X82203584Y-136641524D01*
X82184277Y-136708761D01*
X82164089Y-136779128D01*
X82143223Y-136851916D01*
X82121881Y-136926419D01*
X82100265Y-137001930D01*
X82078577Y-137077741D01*
X82057020Y-137153146D01*
X82035796Y-137227436D01*
X82015108Y-137299906D01*
X81995157Y-137369848D01*
X81976146Y-137436554D01*
X81958277Y-137499318D01*
X81941753Y-137557433D01*
X81926775Y-137610190D01*
X81913547Y-137656885D01*
X81902270Y-137696808D01*
X81893147Y-137729253D01*
X81886380Y-137753512D01*
X81882172Y-137768880D01*
X81880724Y-137774648D01*
X81288339Y-137774648D01*
X81288799Y-137773034D01*
X81322449Y-137655062D01*
X81356276Y-137536509D01*
X81390154Y-137417825D01*
X81423951Y-137299464D01*
X81457541Y-137181875D01*
X81490794Y-137065511D01*
X81523580Y-136950822D01*
X81555772Y-136838260D01*
X81587241Y-136728278D01*
X81617857Y-136621324D01*
X81647492Y-136517853D01*
X81676017Y-136418313D01*
X81703303Y-136323158D01*
X81729222Y-136232839D01*
X81753644Y-136147806D01*
X81776440Y-136068511D01*
X81797483Y-135995406D01*
X81816642Y-135928942D01*
X81833790Y-135869571D01*
X81848796Y-135817743D01*
X81861534Y-135773910D01*
X81871873Y-135738524D01*
X81879685Y-135712036D01*
X81884841Y-135694897D01*
X81887212Y-135687559D01*
X81917201Y-135624390D01*
X81953348Y-135567915D01*
X81996008Y-135518137D01*
X82019517Y-135495714D01*
X82058874Y-135465199D01*
X82100892Y-135441900D01*
X82148826Y-135423807D01*
X82156602Y-135421447D01*
X82169676Y-135417945D01*
X82182862Y-135415353D01*
X82197928Y-135413535D01*
X82216643Y-135412357D01*
X82240776Y-135411683D01*
X82272095Y-135411377D01*
X82312369Y-135411305D01*
X82318426Y-135411308D01*
X82363989Y-135411596D01*
X82400959Y-135412589D01*
X82431240Y-135414610D01*
X82456731Y-135417980D01*
X82479336Y-135423023D01*
X82500954Y-135430061D01*
X82523488Y-135439416D01*
X82548838Y-135451411D01*
X82578394Y-135467903D01*
X82626090Y-135503842D01*
X82669848Y-135549054D01*
X82709185Y-135602925D01*
X82743613Y-135664841D01*
X82772647Y-135734187D01*
X82773128Y-135735671D01*
X82776368Y-135746511D01*
X82782345Y-135766972D01*
X82790928Y-135796602D01*
X82801989Y-135834947D01*
X82815398Y-135881555D01*
X82831027Y-135935972D01*
X82848746Y-135997746D01*
X82868426Y-136066423D01*
X82889938Y-136141550D01*
X82913152Y-136222674D01*
X82937941Y-136309343D01*
X82964173Y-136401104D01*
X82991721Y-136497502D01*
X83020456Y-136598086D01*
X83050247Y-136702402D01*
X83080967Y-136809997D01*
X83112485Y-136920419D01*
X83144673Y-137033214D01*
X83177401Y-137147928D01*
X83210540Y-137264110D01*
X83243962Y-137381306D01*
X83277537Y-137499064D01*
X83311136Y-137616929D01*
X83344629Y-137734449D01*
X83357223Y-137778648D01*
X83377889Y-137851172D01*
G37*
G36*
X87761966Y-137802549D02*
G01*
X87794961Y-137918466D01*
X87827523Y-138032886D01*
X87859522Y-138145344D01*
X87890825Y-138255379D01*
X87921300Y-138362526D01*
X87950815Y-138466322D01*
X87979239Y-138566304D01*
X88006439Y-138662008D01*
X88032284Y-138752972D01*
X88056641Y-138838732D01*
X88079379Y-138918824D01*
X88100366Y-138992785D01*
X88119469Y-139060153D01*
X88136557Y-139120463D01*
X88151498Y-139173252D01*
X88164161Y-139218057D01*
X88174412Y-139254415D01*
X88182120Y-139281862D01*
X88187153Y-139299935D01*
X88189380Y-139308171D01*
X88193012Y-139322916D01*
X87887048Y-139322916D01*
X87581083Y-139322916D01*
X87571217Y-139289403D01*
X87569305Y-139282768D01*
X87564380Y-139265438D01*
X87556966Y-139239205D01*
X87547291Y-139204887D01*
X87535586Y-139163301D01*
X87522080Y-139115264D01*
X87507002Y-139061591D01*
X87490583Y-139003102D01*
X87473052Y-138940612D01*
X87454639Y-138874938D01*
X87435572Y-138806897D01*
X87309793Y-138357903D01*
X86719968Y-138357870D01*
X86130144Y-138357837D01*
X86001781Y-138814907D01*
X85985126Y-138874200D01*
X85966507Y-138940469D01*
X85948785Y-139003524D01*
X85932182Y-139062575D01*
X85916922Y-139116832D01*
X85903225Y-139165504D01*
X85891315Y-139207802D01*
X85881413Y-139242935D01*
X85873743Y-139270114D01*
X85868526Y-139288548D01*
X85865986Y-139297447D01*
X85858554Y-139322916D01*
X85553321Y-139322916D01*
X85525926Y-139322900D01*
X85467059Y-139322746D01*
X85413558Y-139322440D01*
X85366187Y-139321993D01*
X85325713Y-139321418D01*
X85292900Y-139320726D01*
X85268515Y-139319931D01*
X85253322Y-139319044D01*
X85248088Y-139318077D01*
X85248115Y-139317924D01*
X85249954Y-139311053D01*
X85254585Y-139294383D01*
X85261878Y-139268367D01*
X85271706Y-139233457D01*
X85283939Y-139190108D01*
X85298448Y-139138771D01*
X85315105Y-139079900D01*
X85333781Y-139013947D01*
X85354347Y-138941366D01*
X85376674Y-138862609D01*
X85400633Y-138778129D01*
X85426097Y-138688380D01*
X85452935Y-138593814D01*
X85481020Y-138494883D01*
X85510221Y-138392042D01*
X85540412Y-138285743D01*
X85571462Y-138176438D01*
X85603243Y-138064581D01*
X85635626Y-137950625D01*
X85668483Y-137835022D01*
X85685284Y-137775920D01*
X86277600Y-137775920D01*
X86278288Y-137776076D01*
X86287177Y-137776495D01*
X86305695Y-137776892D01*
X86333038Y-137777261D01*
X86368400Y-137777598D01*
X86410975Y-137777897D01*
X86459960Y-137778154D01*
X86514548Y-137778362D01*
X86573934Y-137778517D01*
X86637314Y-137778614D01*
X86703882Y-137778648D01*
X86789465Y-137778586D01*
X86869083Y-137778389D01*
X86938177Y-137778056D01*
X86996721Y-137777589D01*
X87044684Y-137776987D01*
X87082039Y-137776250D01*
X87108756Y-137775380D01*
X87124808Y-137774376D01*
X87130165Y-137773239D01*
X87130154Y-137773157D01*
X87128476Y-137766738D01*
X87124067Y-137750774D01*
X87117129Y-137725972D01*
X87107862Y-137693037D01*
X87096470Y-137652677D01*
X87083152Y-137605598D01*
X87068110Y-137552507D01*
X87051546Y-137494109D01*
X87033661Y-137431113D01*
X87014655Y-137364223D01*
X86994731Y-137294147D01*
X86974090Y-137221592D01*
X86952932Y-137147263D01*
X86931460Y-137071867D01*
X86909874Y-136996111D01*
X86888377Y-136920702D01*
X86867168Y-136846345D01*
X86846450Y-136773748D01*
X86826424Y-136703617D01*
X86807291Y-136636658D01*
X86789253Y-136573578D01*
X86772510Y-136515083D01*
X86757264Y-136461880D01*
X86743717Y-136414676D01*
X86732069Y-136374177D01*
X86722523Y-136341090D01*
X86715278Y-136316120D01*
X86710538Y-136299975D01*
X86708502Y-136293362D01*
X86707935Y-136291965D01*
X86704832Y-136289166D01*
X86700738Y-136296043D01*
X86700646Y-136296285D01*
X86698365Y-136303723D01*
X86693386Y-136320633D01*
X86685913Y-136346306D01*
X86676147Y-136380036D01*
X86664290Y-136421118D01*
X86650544Y-136468846D01*
X86635111Y-136522511D01*
X86618194Y-136581409D01*
X86599993Y-136644833D01*
X86580712Y-136712076D01*
X86560552Y-136782432D01*
X86539714Y-136855195D01*
X86518401Y-136929658D01*
X86496816Y-137005115D01*
X86475159Y-137080860D01*
X86453633Y-137156186D01*
X86432440Y-137230387D01*
X86411782Y-137302757D01*
X86391860Y-137372589D01*
X86372877Y-137439176D01*
X86355035Y-137501813D01*
X86338536Y-137559792D01*
X86323581Y-137612409D01*
X86310373Y-137658956D01*
X86299113Y-137698726D01*
X86290004Y-137731014D01*
X86283247Y-137755114D01*
X86279045Y-137770318D01*
X86277600Y-137775920D01*
X85685284Y-137775920D01*
X85701684Y-137718226D01*
X85735101Y-137600689D01*
X85768605Y-137482865D01*
X85802068Y-137365205D01*
X85835360Y-137248164D01*
X85868352Y-137132194D01*
X85900917Y-137017747D01*
X85932924Y-136905278D01*
X85964246Y-136795238D01*
X85994753Y-136688081D01*
X86024317Y-136584260D01*
X86052810Y-136484227D01*
X86080101Y-136388436D01*
X86106062Y-136297339D01*
X86130566Y-136211389D01*
X86153482Y-136131039D01*
X86174682Y-136056743D01*
X86194037Y-135988953D01*
X86211418Y-135928121D01*
X86226698Y-135874702D01*
X86239746Y-135829147D01*
X86250434Y-135791910D01*
X86258633Y-135763443D01*
X86264215Y-135744200D01*
X86267051Y-135734634D01*
X86286712Y-135679475D01*
X86316964Y-135615764D01*
X86352681Y-135559815D01*
X86393422Y-135512202D01*
X86438752Y-135473500D01*
X86488231Y-135444285D01*
X86505323Y-135436567D01*
X86527653Y-135427992D01*
X86550277Y-135421565D01*
X86575278Y-135416925D01*
X86604743Y-135413711D01*
X86640755Y-135411560D01*
X86685401Y-135410112D01*
X86692403Y-135409949D01*
X86743014Y-135409494D01*
X86785236Y-135410716D01*
X86821062Y-135413857D01*
X86852485Y-135419155D01*
X86881499Y-135426852D01*
X86910096Y-135437188D01*
X86932054Y-135446832D01*
X86986646Y-135478480D01*
X87035953Y-135519030D01*
X87080095Y-135568632D01*
X87119194Y-135627436D01*
X87153372Y-135695590D01*
X87182749Y-135773243D01*
X87183569Y-135775911D01*
X87187347Y-135788773D01*
X87193861Y-135811257D01*
X87202977Y-135842899D01*
X87214563Y-135883238D01*
X87228489Y-135931808D01*
X87244621Y-135988148D01*
X87262828Y-136051792D01*
X87282979Y-136122280D01*
X87304940Y-136199146D01*
X87328580Y-136281927D01*
X87353768Y-136370161D01*
X87380371Y-136463384D01*
X87408257Y-136561133D01*
X87437294Y-136662944D01*
X87467351Y-136768354D01*
X87498295Y-136876899D01*
X87529995Y-136988117D01*
X87562319Y-137101544D01*
X87595134Y-137216717D01*
X87628309Y-137333172D01*
X87661711Y-137450446D01*
X87695210Y-137568075D01*
X87728672Y-137685598D01*
X87753622Y-137773239D01*
X87761966Y-137802549D01*
G37*
G36*
X79730724Y-135408649D02*
G01*
X79805671Y-135408770D01*
X79871352Y-135409033D01*
X79928574Y-135409479D01*
X79978143Y-135410153D01*
X80020866Y-135411096D01*
X80057551Y-135412352D01*
X80089005Y-135413964D01*
X80116035Y-135415974D01*
X80139447Y-135418426D01*
X80160049Y-135421363D01*
X80178648Y-135424827D01*
X80196050Y-135428862D01*
X80213064Y-135433510D01*
X80230495Y-135438814D01*
X80233699Y-135439834D01*
X80297049Y-135464788D01*
X80352603Y-135496559D01*
X80400676Y-135535503D01*
X80441586Y-135581977D01*
X80475649Y-135636338D01*
X80503180Y-135698942D01*
X80524497Y-135770147D01*
X80525447Y-135774050D01*
X80527837Y-135783776D01*
X80530073Y-135793008D01*
X80532160Y-135802108D01*
X80534103Y-135811437D01*
X80535907Y-135821359D01*
X80537578Y-135832234D01*
X80539120Y-135844424D01*
X80540539Y-135858292D01*
X80541840Y-135874199D01*
X80543028Y-135892507D01*
X80544108Y-135913578D01*
X80545085Y-135937774D01*
X80545964Y-135965456D01*
X80546751Y-135996987D01*
X80547450Y-136032729D01*
X80548067Y-136073042D01*
X80548607Y-136118290D01*
X80549075Y-136168834D01*
X80549476Y-136225036D01*
X80549815Y-136287258D01*
X80550098Y-136355861D01*
X80550329Y-136431208D01*
X80550514Y-136513660D01*
X80550658Y-136603579D01*
X80550765Y-136701328D01*
X80550842Y-136807267D01*
X80550892Y-136921760D01*
X80550922Y-137045167D01*
X80550937Y-137177851D01*
X80550940Y-137320173D01*
X80550939Y-137472495D01*
X80550937Y-137635180D01*
X80550937Y-139322916D01*
X80245301Y-139322916D01*
X79939664Y-139322916D01*
X79939664Y-137723473D01*
X79939664Y-137660733D01*
X79939656Y-137508288D01*
X79939638Y-137366070D01*
X79939608Y-137233721D01*
X79939563Y-137110884D01*
X79939503Y-136997202D01*
X79939426Y-136892318D01*
X79939329Y-136795874D01*
X79939211Y-136707514D01*
X79939070Y-136626880D01*
X79938904Y-136553615D01*
X79938711Y-136487362D01*
X79938490Y-136427763D01*
X79938238Y-136374461D01*
X79937955Y-136327100D01*
X79937638Y-136285322D01*
X79937285Y-136248769D01*
X79936894Y-136217085D01*
X79936464Y-136189912D01*
X79935993Y-136166893D01*
X79935479Y-136147671D01*
X79934921Y-136131889D01*
X79934316Y-136119189D01*
X79933662Y-136109215D01*
X79932958Y-136101608D01*
X79932202Y-136096013D01*
X79931393Y-136092071D01*
X79926767Y-136076967D01*
X79910494Y-136045156D01*
X79886966Y-136020895D01*
X79855729Y-136003793D01*
X79816325Y-135993459D01*
X79804588Y-135992218D01*
X79781950Y-135990940D01*
X79751356Y-135989886D01*
X79714312Y-135989056D01*
X79672323Y-135988450D01*
X79626895Y-135988071D01*
X79579534Y-135987917D01*
X79531745Y-135987991D01*
X79485035Y-135988291D01*
X79440908Y-135988821D01*
X79400870Y-135989579D01*
X79366427Y-135990567D01*
X79339085Y-135991785D01*
X79320348Y-135993234D01*
X79319333Y-135993348D01*
X79242631Y-136006735D01*
X79172424Y-136028633D01*
X79108826Y-136058937D01*
X79051951Y-136097541D01*
X79001914Y-136144338D01*
X78958827Y-136199221D01*
X78922806Y-136262085D01*
X78893964Y-136332822D01*
X78872416Y-136411327D01*
X78869294Y-136426316D01*
X78856488Y-136513896D01*
X78853756Y-136597811D01*
X78861095Y-136678052D01*
X78878504Y-136754612D01*
X78905979Y-136827483D01*
X78943519Y-136896657D01*
X78991122Y-136962125D01*
X79048784Y-137023879D01*
X79049519Y-137024581D01*
X79091339Y-137062343D01*
X79134644Y-137096926D01*
X79181215Y-137129498D01*
X79232833Y-137161226D01*
X79291279Y-137193278D01*
X79358332Y-137226821D01*
X79377884Y-137236243D01*
X79415674Y-137254453D01*
X79454591Y-137273204D01*
X79491040Y-137290764D01*
X79521425Y-137305399D01*
X79544319Y-137316567D01*
X79568153Y-137328921D01*
X79586548Y-137339878D01*
X79602003Y-137351118D01*
X79617015Y-137364320D01*
X79634085Y-137381167D01*
X79658219Y-137407944D01*
X79691415Y-137455909D01*
X79715736Y-137508445D01*
X79731599Y-137566542D01*
X79739423Y-137631192D01*
X79740030Y-137646864D01*
X79736516Y-137713190D01*
X79723753Y-137780427D01*
X79702327Y-137846142D01*
X79672823Y-137907901D01*
X79671884Y-137909506D01*
X79665059Y-137920581D01*
X79652848Y-137939989D01*
X79635587Y-137967208D01*
X79613608Y-138001718D01*
X79587247Y-138042996D01*
X79556836Y-138090523D01*
X79522712Y-138143776D01*
X79485207Y-138202235D01*
X79444655Y-138265379D01*
X79401392Y-138332685D01*
X79355750Y-138403633D01*
X79308065Y-138477702D01*
X79258669Y-138554371D01*
X79207899Y-138633118D01*
X78763002Y-139322916D01*
X78410284Y-139322916D01*
X78057566Y-139322916D01*
X78512940Y-138639887D01*
X78529381Y-138615222D01*
X78580816Y-138538002D01*
X78630666Y-138463074D01*
X78678595Y-138390950D01*
X78724266Y-138322137D01*
X78767343Y-138257146D01*
X78807490Y-138196486D01*
X78844370Y-138140667D01*
X78877647Y-138090197D01*
X78906985Y-138045588D01*
X78932046Y-138007347D01*
X78952495Y-137975985D01*
X78967995Y-137952011D01*
X78978210Y-137935934D01*
X78982803Y-137928265D01*
X78996693Y-137899323D01*
X79013430Y-137856428D01*
X79022285Y-137818794D01*
X79023235Y-137785137D01*
X79016256Y-137754177D01*
X79001323Y-137724632D01*
X78978412Y-137695220D01*
X78966865Y-137683629D01*
X78952062Y-137671632D01*
X78932922Y-137658835D01*
X78907633Y-137644032D01*
X78874382Y-137626019D01*
X78813281Y-137592825D01*
X78758469Y-137560909D01*
X78710363Y-137530172D01*
X78667238Y-137499378D01*
X78627370Y-137467294D01*
X78589034Y-137432688D01*
X78550506Y-137394325D01*
X78497345Y-137334116D01*
X78444926Y-137261837D01*
X78399675Y-137183734D01*
X78361303Y-137099157D01*
X78329516Y-137007455D01*
X78304025Y-136907977D01*
X78284538Y-136800075D01*
X78284341Y-136798721D01*
X78280639Y-136765211D01*
X78277768Y-136723432D01*
X78275730Y-136675489D01*
X78274523Y-136623490D01*
X78274146Y-136569541D01*
X78274599Y-136515750D01*
X78275881Y-136464224D01*
X78277992Y-136417069D01*
X78280930Y-136376392D01*
X78284694Y-136344301D01*
X78301056Y-136256279D01*
X78329840Y-136147464D01*
X78367125Y-136045115D01*
X78412951Y-135949137D01*
X78467357Y-135859438D01*
X78530385Y-135775924D01*
X78565852Y-135735791D01*
X78639856Y-135664156D01*
X78720654Y-135600485D01*
X78807578Y-135545181D01*
X78899963Y-135498644D01*
X78997143Y-135461276D01*
X79098450Y-135433480D01*
X79111149Y-135430706D01*
X79131101Y-135426599D01*
X79150614Y-135423033D01*
X79170546Y-135419969D01*
X79191754Y-135417370D01*
X79215100Y-135415198D01*
X79241440Y-135413415D01*
X79271633Y-135411983D01*
X79306540Y-135410865D01*
X79347018Y-135410023D01*
X79393925Y-135409419D01*
X79448122Y-135409015D01*
X79510467Y-135408773D01*
X79581817Y-135408655D01*
X79663033Y-135408624D01*
X79730724Y-135408649D01*
G37*
D14*
%TO.C,D2*%
X127970000Y-157300000D02*
X131060000Y-157300000D01*
X127970170Y-157300000D02*
G75*
G02*
X129515462Y-151750000I1544830J2560000D01*
G01*
X129514538Y-151750000D02*
G75*
G02*
X131059830Y-157300000I462J-2990000D01*
G01*
X132015000Y-154740000D02*
G75*
G02*
X127015000Y-154740000I-2500000J0D01*
G01*
X127015000Y-154740000D02*
G75*
G02*
X132015000Y-154740000I2500000J0D01*
G01*
%TD*%
M02*
