%TF.GenerationSoftware,KiCad,Pcbnew,8.0.6*%
%TF.CreationDate,2024-11-26T16:01:55+01:00*%
%TF.ProjectId,PicoA10400,5069636f-4131-4303-9430-302e6b696361,rev?*%
%TF.SameCoordinates,Original*%
%TF.FileFunction,Drillmap*%
%TF.FilePolarity,Positive*%
%FSLAX45Y45*%
G04 Gerber Fmt 4.5, Leading zero omitted, Abs format (unit mm)*
G04 Created by KiCad (PCBNEW 8.0.6) date 2024-11-26 16:01:55*
%MOMM*%
%LPD*%
G01*
G04 APERTURE LIST*
%ADD10C,0.100000*%
%ADD11C,0.050000*%
%ADD12C,0.200000*%
%ADD13C,0.120000*%
%ADD14C,0.130000*%
%ADD15C,0.150000*%
G04 APERTURE END LIST*
D10*
X12880000Y-18800000D02*
X13500000Y-18800000D01*
X12040000Y-11670000D02*
X13500000Y-11670000D01*
X8120000Y-18800000D02*
X7500000Y-18800000D01*
X13253000Y-18205500D02*
G75*
G02*
X12753000Y-18205500I-250000J0D01*
G01*
X12753000Y-18205500D02*
G75*
G02*
X13253000Y-18205500I250000J0D01*
G01*
X8980000Y-11670000D02*
X7500000Y-11670000D01*
X8250000Y-18200000D02*
G75*
G02*
X7750000Y-18200000I-250000J0D01*
G01*
X7750000Y-18200000D02*
G75*
G02*
X8250000Y-18200000I250000J0D01*
G01*
X8246000Y-12196500D02*
G75*
G02*
X7746000Y-12196500I-250000J0D01*
G01*
X7746000Y-12196500D02*
G75*
G02*
X8246000Y-12196500I250000J0D01*
G01*
X13500000Y-11670000D02*
X13500000Y-18800000D01*
X7500000Y-11670000D02*
X7500000Y-18800000D01*
X13250000Y-12200000D02*
G75*
G02*
X12750000Y-12200000I-250000J0D01*
G01*
X12750000Y-12200000D02*
G75*
G02*
X13250000Y-12200000I250000J0D01*
G01*
D11*
X8980000Y-10019000D02*
X8980000Y-11670000D01*
X8980000Y-10019000D02*
X12040000Y-10020000D01*
X12040000Y-10020000D02*
X12040000Y-11670000D01*
X8120000Y-18800000D02*
X8120000Y-20451000D01*
X8120000Y-20451000D02*
X8730000Y-20451000D01*
X8730000Y-19481000D02*
X8980000Y-19481000D01*
X8730000Y-20451000D02*
X8730000Y-19481000D01*
X8980000Y-19481000D02*
X8980000Y-20451000D01*
X8980000Y-20451000D02*
X12030000Y-20451000D01*
X12030000Y-19481000D02*
X12290000Y-19481000D01*
X12030000Y-20451000D02*
X12030000Y-19481000D01*
X12290000Y-19481000D02*
X12290000Y-20451000D01*
X12290000Y-20451000D02*
X12880000Y-20451000D01*
X12880000Y-20451000D02*
X12880000Y-18800000D01*
D12*
D10*
X9005850Y-15431740D02*
X9045850Y-15471740D01*
X9045850Y-15431740D02*
X9005850Y-15471740D01*
X9158770Y-17651710D02*
X9198770Y-17691710D01*
X9198770Y-17651710D02*
X9158770Y-17691710D01*
X9405630Y-19490480D02*
X9445630Y-19530480D01*
X9445630Y-19490480D02*
X9405630Y-19530480D01*
X9668630Y-16244160D02*
X9708630Y-16284160D01*
X9708630Y-16244160D02*
X9668630Y-16284160D01*
X9881100Y-18443830D02*
X9921100Y-18483830D01*
X9921100Y-18443830D02*
X9881100Y-18483830D01*
X9884340Y-19010770D02*
X9924340Y-19050770D01*
X9924340Y-19010770D02*
X9884340Y-19050770D01*
X9985990Y-18477120D02*
X10025990Y-18517120D01*
X10025990Y-18477120D02*
X9985990Y-18517120D01*
X10025800Y-18255720D02*
X10065800Y-18295720D01*
X10065800Y-18255720D02*
X10025800Y-18295720D01*
X10161140Y-18842490D02*
X10201140Y-18882490D01*
X10201140Y-18842490D02*
X10161140Y-18882490D01*
X10221530Y-18429700D02*
X10261530Y-18469700D01*
X10261530Y-18429700D02*
X10221530Y-18469700D01*
X10299640Y-18507810D02*
X10339640Y-18547810D01*
X10339640Y-18507810D02*
X10299640Y-18547810D01*
X10378520Y-18586130D02*
X10418520Y-18626130D01*
X10418520Y-18586130D02*
X10378520Y-18626130D01*
X10453380Y-14205220D02*
X10493380Y-14245220D01*
X10493380Y-14205220D02*
X10453380Y-14245220D01*
X10525810Y-19212190D02*
X10565810Y-19252190D01*
X10565810Y-19212190D02*
X10525810Y-19252190D01*
X10584470Y-18990230D02*
X10624470Y-19030230D01*
X10624470Y-18990230D02*
X10584470Y-19030230D01*
X10641130Y-15544320D02*
X10681130Y-15584320D01*
X10681130Y-15544320D02*
X10641130Y-15584320D01*
X10648300Y-18909210D02*
X10688300Y-18949210D01*
X10688300Y-18909210D02*
X10648300Y-18949210D01*
X10756900Y-18915050D02*
X10796900Y-18955050D01*
X10796900Y-18915050D02*
X10756900Y-18955050D01*
X10898230Y-11109920D02*
X10938230Y-11149920D01*
X10938230Y-11109920D02*
X10898230Y-11149920D01*
X10914050Y-10936860D02*
X10954050Y-10976860D01*
X10954050Y-10936860D02*
X10914050Y-10976860D01*
X10978050Y-11343680D02*
X11018050Y-11383680D01*
X11018050Y-11343680D02*
X10978050Y-11383680D01*
X11115000Y-15732410D02*
X11155000Y-15772410D01*
X11155000Y-15732410D02*
X11115000Y-15772410D01*
X11180400Y-15520750D02*
X11220400Y-15560750D01*
X11220400Y-15520750D02*
X11180400Y-15560750D01*
X11294500Y-17079990D02*
X11334500Y-17119990D01*
X11334500Y-17079990D02*
X11294500Y-17119990D01*
X11305120Y-15542700D02*
X11345120Y-15582700D01*
X11345120Y-15542700D02*
X11305120Y-15582700D01*
X11869640Y-18731250D02*
X11909640Y-18771250D01*
X11909640Y-18731250D02*
X11869640Y-18771250D01*
X12055660Y-19048540D02*
X12095660Y-19088540D01*
X12095660Y-19048540D02*
X12055660Y-19088540D01*
X12354000Y-17272790D02*
X12394000Y-17312790D01*
X12394000Y-17272790D02*
X12354000Y-17312790D01*
X12377630Y-17376670D02*
X12417630Y-17416670D01*
X12417630Y-17376670D02*
X12377630Y-17416670D01*
X13069000Y-12753500D02*
G75*
G02*
X12989000Y-12753500I-40000J0D01*
G01*
X12989000Y-12753500D02*
G75*
G02*
X13069000Y-12753500I40000J0D01*
G01*
X13069000Y-13515500D02*
G75*
G02*
X12989000Y-13515500I-40000J0D01*
G01*
X12989000Y-13515500D02*
G75*
G02*
X13069000Y-13515500I40000J0D01*
G01*
X13274000Y-16172500D02*
G75*
G02*
X13194000Y-16172500I-40000J0D01*
G01*
X13194000Y-16172500D02*
G75*
G02*
X13274000Y-16172500I40000J0D01*
G01*
X13274000Y-17188500D02*
G75*
G02*
X13194000Y-17188500I-40000J0D01*
G01*
X13194000Y-17188500D02*
G75*
G02*
X13274000Y-17188500I40000J0D01*
G01*
X12951500Y-15302000D02*
X12951500Y-15392000D01*
X12906500Y-15347000D02*
X12996500Y-15347000D01*
X12951500Y-15556000D02*
X12951500Y-15646000D01*
X12906500Y-15601000D02*
X12996500Y-15601000D01*
X7818002Y-14706502D02*
X7818002Y-14636498D01*
X7747998Y-14636498D01*
X7747998Y-14706502D01*
X7818002Y-14706502D01*
X7818002Y-15156502D02*
X7818002Y-15086498D01*
X7747998Y-15086498D01*
X7747998Y-15156502D01*
X7818002Y-15156502D01*
X10306500Y-12951500D02*
X10356500Y-12901500D01*
X10306500Y-12851500D01*
X10256500Y-12901500D01*
X10306500Y-12951500D01*
X10306500Y-13205500D02*
X10356500Y-13155500D01*
X10306500Y-13105500D01*
X10256500Y-13155500D01*
X10306500Y-13205500D01*
X10306500Y-13459500D02*
X10356500Y-13409500D01*
X10306500Y-13359500D01*
X10256500Y-13409500D01*
X10306500Y-13459500D01*
X10306500Y-13713500D02*
X10356500Y-13663500D01*
X10306500Y-13613500D01*
X10256500Y-13663500D01*
X10306500Y-13713500D01*
X10306500Y-13967500D02*
X10356500Y-13917500D01*
X10306500Y-13867500D01*
X10256500Y-13917500D01*
X10306500Y-13967500D01*
X10306500Y-14221500D02*
X10356500Y-14171500D01*
X10306500Y-14121500D01*
X10256500Y-14171500D01*
X10306500Y-14221500D01*
X10306500Y-14475500D02*
X10356500Y-14425500D01*
X10306500Y-14375500D01*
X10256500Y-14425500D01*
X10306500Y-14475500D01*
X10306500Y-14729500D02*
X10356500Y-14679500D01*
X10306500Y-14629500D01*
X10256500Y-14679500D01*
X10306500Y-14729500D01*
X10306500Y-14983500D02*
X10356500Y-14933500D01*
X10306500Y-14883500D01*
X10256500Y-14933500D01*
X10306500Y-14983500D01*
X10306500Y-15237500D02*
X10356500Y-15187500D01*
X10306500Y-15137500D01*
X10256500Y-15187500D01*
X10306500Y-15237500D01*
X10306500Y-15491500D02*
X10356500Y-15441500D01*
X10306500Y-15391500D01*
X10256500Y-15441500D01*
X10306500Y-15491500D01*
X10306500Y-15745500D02*
X10356500Y-15695500D01*
X10306500Y-15645500D01*
X10256500Y-15695500D01*
X10306500Y-15745500D01*
X10306500Y-15999500D02*
X10356500Y-15949500D01*
X10306500Y-15899500D01*
X10256500Y-15949500D01*
X10306500Y-15999500D01*
X10306500Y-16253500D02*
X10356500Y-16203500D01*
X10306500Y-16153500D01*
X10256500Y-16203500D01*
X10306500Y-16253500D01*
X10306500Y-16507500D02*
X10356500Y-16457500D01*
X10306500Y-16407500D01*
X10256500Y-16457500D01*
X10306500Y-16507500D01*
X10306500Y-16761500D02*
X10356500Y-16711500D01*
X10306500Y-16661500D01*
X10256500Y-16711500D01*
X10306500Y-16761500D01*
X10306500Y-17015500D02*
X10356500Y-16965500D01*
X10306500Y-16915500D01*
X10256500Y-16965500D01*
X10306500Y-17015500D01*
X10306500Y-17269500D02*
X10356500Y-17219500D01*
X10306500Y-17169500D01*
X10256500Y-17219500D01*
X10306500Y-17269500D01*
X10306500Y-17523500D02*
X10356500Y-17473500D01*
X10306500Y-17423500D01*
X10256500Y-17473500D01*
X10306500Y-17523500D01*
X10306500Y-17777500D02*
X10356500Y-17727500D01*
X10306500Y-17677500D01*
X10256500Y-17727500D01*
X10306500Y-17777500D01*
X12086500Y-12955000D02*
X12136500Y-12905000D01*
X12086500Y-12855000D01*
X12036500Y-12905000D01*
X12086500Y-12955000D01*
X12086500Y-13209000D02*
X12136500Y-13159000D01*
X12086500Y-13109000D01*
X12036500Y-13159000D01*
X12086500Y-13209000D01*
X12086500Y-13463000D02*
X12136500Y-13413000D01*
X12086500Y-13363000D01*
X12036500Y-13413000D01*
X12086500Y-13463000D01*
X12086500Y-13717000D02*
X12136500Y-13667000D01*
X12086500Y-13617000D01*
X12036500Y-13667000D01*
X12086500Y-13717000D01*
X12086500Y-13971000D02*
X12136500Y-13921000D01*
X12086500Y-13871000D01*
X12036500Y-13921000D01*
X12086500Y-13971000D01*
X12086500Y-14225000D02*
X12136500Y-14175000D01*
X12086500Y-14125000D01*
X12036500Y-14175000D01*
X12086500Y-14225000D01*
X12086500Y-14479000D02*
X12136500Y-14429000D01*
X12086500Y-14379000D01*
X12036500Y-14429000D01*
X12086500Y-14479000D01*
X12086500Y-14733000D02*
X12136500Y-14683000D01*
X12086500Y-14633000D01*
X12036500Y-14683000D01*
X12086500Y-14733000D01*
X12086500Y-14987000D02*
X12136500Y-14937000D01*
X12086500Y-14887000D01*
X12036500Y-14937000D01*
X12086500Y-14987000D01*
X12086500Y-15241000D02*
X12136500Y-15191000D01*
X12086500Y-15141000D01*
X12036500Y-15191000D01*
X12086500Y-15241000D01*
X12086500Y-15495000D02*
X12136500Y-15445000D01*
X12086500Y-15395000D01*
X12036500Y-15445000D01*
X12086500Y-15495000D01*
X12086500Y-15749000D02*
X12136500Y-15699000D01*
X12086500Y-15649000D01*
X12036500Y-15699000D01*
X12086500Y-15749000D01*
X12086500Y-16003000D02*
X12136500Y-15953000D01*
X12086500Y-15903000D01*
X12036500Y-15953000D01*
X12086500Y-16003000D01*
X12086500Y-16257000D02*
X12136500Y-16207000D01*
X12086500Y-16157000D01*
X12036500Y-16207000D01*
X12086500Y-16257000D01*
X12086500Y-16511000D02*
X12136500Y-16461000D01*
X12086500Y-16411000D01*
X12036500Y-16461000D01*
X12086500Y-16511000D01*
X12086500Y-16765000D02*
X12136500Y-16715000D01*
X12086500Y-16665000D01*
X12036500Y-16715000D01*
X12086500Y-16765000D01*
X12086500Y-17019000D02*
X12136500Y-16969000D01*
X12086500Y-16919000D01*
X12036500Y-16969000D01*
X12086500Y-17019000D01*
X12086500Y-17273000D02*
X12136500Y-17223000D01*
X12086500Y-17173000D01*
X12036500Y-17223000D01*
X12086500Y-17273000D01*
X12086500Y-17527000D02*
X12136500Y-17477000D01*
X12086500Y-17427000D01*
X12036500Y-17477000D01*
X12086500Y-17527000D01*
X12086500Y-17781000D02*
X12136500Y-17731000D01*
X12086500Y-17681000D01*
X12036500Y-17731000D01*
X12086500Y-17781000D01*
D13*
X13103000Y-14008500D02*
X13223000Y-14128500D01*
X13223000Y-14008500D02*
X13103000Y-14128500D01*
X13223000Y-14068500D02*
G75*
G02*
X13103000Y-14068500I-60000J0D01*
G01*
X13103000Y-14068500D02*
G75*
G02*
X13223000Y-14068500I60000J0D01*
G01*
X13103000Y-14527500D02*
X13223000Y-14647500D01*
X13223000Y-14527500D02*
X13103000Y-14647500D01*
X13223000Y-14587500D02*
G75*
G02*
X13103000Y-14587500I-60000J0D01*
G01*
X13103000Y-14587500D02*
G75*
G02*
X13223000Y-14587500I60000J0D01*
G01*
D14*
X7967000Y-14480500D02*
X8097000Y-14610500D01*
X8097000Y-14480500D02*
X7967000Y-14610500D01*
X8032000Y-14480500D02*
X8032000Y-14610500D01*
X7967000Y-14545500D02*
X8097000Y-14545500D01*
X7967000Y-15181500D02*
X8097000Y-15311500D01*
X8097000Y-15181500D02*
X7967000Y-15311500D01*
X8032000Y-15181500D02*
X8032000Y-15311500D01*
X7967000Y-15246500D02*
X8097000Y-15246500D01*
D15*
X8764000Y-15037000D02*
X8914000Y-15187000D01*
X8914000Y-15037000D02*
X8764000Y-15187000D01*
X8892034Y-15165033D02*
X8892034Y-15058966D01*
X8785967Y-15058966D01*
X8785967Y-15165033D01*
X8892034Y-15165033D01*
X8764000Y-17086000D02*
X8914000Y-17236000D01*
X8914000Y-17086000D02*
X8764000Y-17236000D01*
X8892034Y-17214034D02*
X8892034Y-17107967D01*
X8785967Y-17107967D01*
X8785967Y-17214034D01*
X8892034Y-17214034D01*
D12*
X7755777Y-20764984D02*
X7755777Y-20564984D01*
X7755777Y-20564984D02*
X7803396Y-20564984D01*
X7803396Y-20564984D02*
X7831967Y-20574508D01*
X7831967Y-20574508D02*
X7851015Y-20593555D01*
X7851015Y-20593555D02*
X7860539Y-20612603D01*
X7860539Y-20612603D02*
X7870062Y-20650698D01*
X7870062Y-20650698D02*
X7870062Y-20679270D01*
X7870062Y-20679270D02*
X7860539Y-20717365D01*
X7860539Y-20717365D02*
X7851015Y-20736412D01*
X7851015Y-20736412D02*
X7831967Y-20755460D01*
X7831967Y-20755460D02*
X7803396Y-20764984D01*
X7803396Y-20764984D02*
X7755777Y-20764984D01*
X7955777Y-20764984D02*
X7955777Y-20631650D01*
X7955777Y-20669746D02*
X7965301Y-20650698D01*
X7965301Y-20650698D02*
X7974824Y-20641174D01*
X7974824Y-20641174D02*
X7993872Y-20631650D01*
X7993872Y-20631650D02*
X8012920Y-20631650D01*
X8079586Y-20764984D02*
X8079586Y-20631650D01*
X8079586Y-20564984D02*
X8070062Y-20574508D01*
X8070062Y-20574508D02*
X8079586Y-20584031D01*
X8079586Y-20584031D02*
X8089110Y-20574508D01*
X8089110Y-20574508D02*
X8079586Y-20564984D01*
X8079586Y-20564984D02*
X8079586Y-20584031D01*
X8203396Y-20764984D02*
X8184348Y-20755460D01*
X8184348Y-20755460D02*
X8174824Y-20736412D01*
X8174824Y-20736412D02*
X8174824Y-20564984D01*
X8308158Y-20764984D02*
X8289110Y-20755460D01*
X8289110Y-20755460D02*
X8279586Y-20736412D01*
X8279586Y-20736412D02*
X8279586Y-20564984D01*
X8536729Y-20764984D02*
X8536729Y-20564984D01*
X8536729Y-20564984D02*
X8603396Y-20707841D01*
X8603396Y-20707841D02*
X8670063Y-20564984D01*
X8670063Y-20564984D02*
X8670063Y-20764984D01*
X8851015Y-20764984D02*
X8851015Y-20660222D01*
X8851015Y-20660222D02*
X8841491Y-20641174D01*
X8841491Y-20641174D02*
X8822444Y-20631650D01*
X8822444Y-20631650D02*
X8784348Y-20631650D01*
X8784348Y-20631650D02*
X8765301Y-20641174D01*
X8851015Y-20755460D02*
X8831967Y-20764984D01*
X8831967Y-20764984D02*
X8784348Y-20764984D01*
X8784348Y-20764984D02*
X8765301Y-20755460D01*
X8765301Y-20755460D02*
X8755777Y-20736412D01*
X8755777Y-20736412D02*
X8755777Y-20717365D01*
X8755777Y-20717365D02*
X8765301Y-20698317D01*
X8765301Y-20698317D02*
X8784348Y-20688793D01*
X8784348Y-20688793D02*
X8831967Y-20688793D01*
X8831967Y-20688793D02*
X8851015Y-20679270D01*
X8946253Y-20631650D02*
X8946253Y-20831650D01*
X8946253Y-20641174D02*
X8965301Y-20631650D01*
X8965301Y-20631650D02*
X9003396Y-20631650D01*
X9003396Y-20631650D02*
X9022444Y-20641174D01*
X9022444Y-20641174D02*
X9031967Y-20650698D01*
X9031967Y-20650698D02*
X9041491Y-20669746D01*
X9041491Y-20669746D02*
X9041491Y-20726889D01*
X9041491Y-20726889D02*
X9031967Y-20745936D01*
X9031967Y-20745936D02*
X9022444Y-20755460D01*
X9022444Y-20755460D02*
X9003396Y-20764984D01*
X9003396Y-20764984D02*
X8965301Y-20764984D01*
X8965301Y-20764984D02*
X8946253Y-20755460D01*
X9127205Y-20745936D02*
X9136729Y-20755460D01*
X9136729Y-20755460D02*
X9127205Y-20764984D01*
X9127205Y-20764984D02*
X9117682Y-20755460D01*
X9117682Y-20755460D02*
X9127205Y-20745936D01*
X9127205Y-20745936D02*
X9127205Y-20764984D01*
X9127205Y-20641174D02*
X9136729Y-20650698D01*
X9136729Y-20650698D02*
X9127205Y-20660222D01*
X9127205Y-20660222D02*
X9117682Y-20650698D01*
X9117682Y-20650698D02*
X9127205Y-20641174D01*
X9127205Y-20641174D02*
X9127205Y-20660222D01*
D10*
X7455000Y-21073500D02*
X7495000Y-21113500D01*
X7495000Y-21073500D02*
X7455000Y-21113500D01*
D12*
X7793872Y-20984984D02*
X7812920Y-20984984D01*
X7812920Y-20984984D02*
X7831967Y-20994508D01*
X7831967Y-20994508D02*
X7841491Y-21004031D01*
X7841491Y-21004031D02*
X7851015Y-21023079D01*
X7851015Y-21023079D02*
X7860539Y-21061174D01*
X7860539Y-21061174D02*
X7860539Y-21108793D01*
X7860539Y-21108793D02*
X7851015Y-21146889D01*
X7851015Y-21146889D02*
X7841491Y-21165936D01*
X7841491Y-21165936D02*
X7831967Y-21175460D01*
X7831967Y-21175460D02*
X7812920Y-21184984D01*
X7812920Y-21184984D02*
X7793872Y-21184984D01*
X7793872Y-21184984D02*
X7774824Y-21175460D01*
X7774824Y-21175460D02*
X7765301Y-21165936D01*
X7765301Y-21165936D02*
X7755777Y-21146889D01*
X7755777Y-21146889D02*
X7746253Y-21108793D01*
X7746253Y-21108793D02*
X7746253Y-21061174D01*
X7746253Y-21061174D02*
X7755777Y-21023079D01*
X7755777Y-21023079D02*
X7765301Y-21004031D01*
X7765301Y-21004031D02*
X7774824Y-20994508D01*
X7774824Y-20994508D02*
X7793872Y-20984984D01*
X7946253Y-21165936D02*
X7955777Y-21175460D01*
X7955777Y-21175460D02*
X7946253Y-21184984D01*
X7946253Y-21184984D02*
X7936729Y-21175460D01*
X7936729Y-21175460D02*
X7946253Y-21165936D01*
X7946253Y-21165936D02*
X7946253Y-21184984D01*
X8127205Y-21051650D02*
X8127205Y-21184984D01*
X8079586Y-20975460D02*
X8031967Y-21118317D01*
X8031967Y-21118317D02*
X8155777Y-21118317D01*
X8270062Y-20984984D02*
X8289110Y-20984984D01*
X8289110Y-20984984D02*
X8308158Y-20994508D01*
X8308158Y-20994508D02*
X8317682Y-21004031D01*
X8317682Y-21004031D02*
X8327205Y-21023079D01*
X8327205Y-21023079D02*
X8336729Y-21061174D01*
X8336729Y-21061174D02*
X8336729Y-21108793D01*
X8336729Y-21108793D02*
X8327205Y-21146889D01*
X8327205Y-21146889D02*
X8317682Y-21165936D01*
X8317682Y-21165936D02*
X8308158Y-21175460D01*
X8308158Y-21175460D02*
X8289110Y-21184984D01*
X8289110Y-21184984D02*
X8270062Y-21184984D01*
X8270062Y-21184984D02*
X8251015Y-21175460D01*
X8251015Y-21175460D02*
X8241491Y-21165936D01*
X8241491Y-21165936D02*
X8231967Y-21146889D01*
X8231967Y-21146889D02*
X8222443Y-21108793D01*
X8222443Y-21108793D02*
X8222443Y-21061174D01*
X8222443Y-21061174D02*
X8231967Y-21023079D01*
X8231967Y-21023079D02*
X8241491Y-21004031D01*
X8241491Y-21004031D02*
X8251015Y-20994508D01*
X8251015Y-20994508D02*
X8270062Y-20984984D01*
X8460539Y-20984984D02*
X8479586Y-20984984D01*
X8479586Y-20984984D02*
X8498634Y-20994508D01*
X8498634Y-20994508D02*
X8508158Y-21004031D01*
X8508158Y-21004031D02*
X8517682Y-21023079D01*
X8517682Y-21023079D02*
X8527205Y-21061174D01*
X8527205Y-21061174D02*
X8527205Y-21108793D01*
X8527205Y-21108793D02*
X8517682Y-21146889D01*
X8517682Y-21146889D02*
X8508158Y-21165936D01*
X8508158Y-21165936D02*
X8498634Y-21175460D01*
X8498634Y-21175460D02*
X8479586Y-21184984D01*
X8479586Y-21184984D02*
X8460539Y-21184984D01*
X8460539Y-21184984D02*
X8441491Y-21175460D01*
X8441491Y-21175460D02*
X8431967Y-21165936D01*
X8431967Y-21165936D02*
X8422444Y-21146889D01*
X8422444Y-21146889D02*
X8412920Y-21108793D01*
X8412920Y-21108793D02*
X8412920Y-21061174D01*
X8412920Y-21061174D02*
X8422444Y-21023079D01*
X8422444Y-21023079D02*
X8431967Y-21004031D01*
X8431967Y-21004031D02*
X8441491Y-20994508D01*
X8441491Y-20994508D02*
X8460539Y-20984984D01*
X8612920Y-21184984D02*
X8612920Y-21051650D01*
X8612920Y-21070698D02*
X8622444Y-21061174D01*
X8622444Y-21061174D02*
X8641491Y-21051650D01*
X8641491Y-21051650D02*
X8670063Y-21051650D01*
X8670063Y-21051650D02*
X8689110Y-21061174D01*
X8689110Y-21061174D02*
X8698634Y-21080222D01*
X8698634Y-21080222D02*
X8698634Y-21184984D01*
X8698634Y-21080222D02*
X8708158Y-21061174D01*
X8708158Y-21061174D02*
X8727205Y-21051650D01*
X8727205Y-21051650D02*
X8755777Y-21051650D01*
X8755777Y-21051650D02*
X8774825Y-21061174D01*
X8774825Y-21061174D02*
X8784348Y-21080222D01*
X8784348Y-21080222D02*
X8784348Y-21184984D01*
X8879586Y-21184984D02*
X8879586Y-21051650D01*
X8879586Y-21070698D02*
X8889110Y-21061174D01*
X8889110Y-21061174D02*
X8908158Y-21051650D01*
X8908158Y-21051650D02*
X8936729Y-21051650D01*
X8936729Y-21051650D02*
X8955777Y-21061174D01*
X8955777Y-21061174D02*
X8965301Y-21080222D01*
X8965301Y-21080222D02*
X8965301Y-21184984D01*
X8965301Y-21080222D02*
X8974825Y-21061174D01*
X8974825Y-21061174D02*
X8993872Y-21051650D01*
X8993872Y-21051650D02*
X9022444Y-21051650D01*
X9022444Y-21051650D02*
X9041491Y-21061174D01*
X9041491Y-21061174D02*
X9051015Y-21080222D01*
X9051015Y-21080222D02*
X9051015Y-21184984D01*
X9441491Y-20975460D02*
X9270063Y-21232603D01*
X9698634Y-20984984D02*
X9717682Y-20984984D01*
X9717682Y-20984984D02*
X9736729Y-20994508D01*
X9736729Y-20994508D02*
X9746253Y-21004031D01*
X9746253Y-21004031D02*
X9755777Y-21023079D01*
X9755777Y-21023079D02*
X9765301Y-21061174D01*
X9765301Y-21061174D02*
X9765301Y-21108793D01*
X9765301Y-21108793D02*
X9755777Y-21146889D01*
X9755777Y-21146889D02*
X9746253Y-21165936D01*
X9746253Y-21165936D02*
X9736729Y-21175460D01*
X9736729Y-21175460D02*
X9717682Y-21184984D01*
X9717682Y-21184984D02*
X9698634Y-21184984D01*
X9698634Y-21184984D02*
X9679587Y-21175460D01*
X9679587Y-21175460D02*
X9670063Y-21165936D01*
X9670063Y-21165936D02*
X9660539Y-21146889D01*
X9660539Y-21146889D02*
X9651015Y-21108793D01*
X9651015Y-21108793D02*
X9651015Y-21061174D01*
X9651015Y-21061174D02*
X9660539Y-21023079D01*
X9660539Y-21023079D02*
X9670063Y-21004031D01*
X9670063Y-21004031D02*
X9679587Y-20994508D01*
X9679587Y-20994508D02*
X9698634Y-20984984D01*
X9851015Y-21165936D02*
X9860539Y-21175460D01*
X9860539Y-21175460D02*
X9851015Y-21184984D01*
X9851015Y-21184984D02*
X9841491Y-21175460D01*
X9841491Y-21175460D02*
X9851015Y-21165936D01*
X9851015Y-21165936D02*
X9851015Y-21184984D01*
X9984348Y-20984984D02*
X10003396Y-20984984D01*
X10003396Y-20984984D02*
X10022444Y-20994508D01*
X10022444Y-20994508D02*
X10031968Y-21004031D01*
X10031968Y-21004031D02*
X10041491Y-21023079D01*
X10041491Y-21023079D02*
X10051015Y-21061174D01*
X10051015Y-21061174D02*
X10051015Y-21108793D01*
X10051015Y-21108793D02*
X10041491Y-21146889D01*
X10041491Y-21146889D02*
X10031968Y-21165936D01*
X10031968Y-21165936D02*
X10022444Y-21175460D01*
X10022444Y-21175460D02*
X10003396Y-21184984D01*
X10003396Y-21184984D02*
X9984348Y-21184984D01*
X9984348Y-21184984D02*
X9965301Y-21175460D01*
X9965301Y-21175460D02*
X9955777Y-21165936D01*
X9955777Y-21165936D02*
X9946253Y-21146889D01*
X9946253Y-21146889D02*
X9936729Y-21108793D01*
X9936729Y-21108793D02*
X9936729Y-21061174D01*
X9936729Y-21061174D02*
X9946253Y-21023079D01*
X9946253Y-21023079D02*
X9955777Y-21004031D01*
X9955777Y-21004031D02*
X9965301Y-20994508D01*
X9965301Y-20994508D02*
X9984348Y-20984984D01*
X10241491Y-21184984D02*
X10127206Y-21184984D01*
X10184348Y-21184984D02*
X10184348Y-20984984D01*
X10184348Y-20984984D02*
X10165301Y-21013555D01*
X10165301Y-21013555D02*
X10146253Y-21032603D01*
X10146253Y-21032603D02*
X10127206Y-21042127D01*
X10422444Y-20984984D02*
X10327206Y-20984984D01*
X10327206Y-20984984D02*
X10317682Y-21080222D01*
X10317682Y-21080222D02*
X10327206Y-21070698D01*
X10327206Y-21070698D02*
X10346253Y-21061174D01*
X10346253Y-21061174D02*
X10393872Y-21061174D01*
X10393872Y-21061174D02*
X10412920Y-21070698D01*
X10412920Y-21070698D02*
X10422444Y-21080222D01*
X10422444Y-21080222D02*
X10431968Y-21099270D01*
X10431968Y-21099270D02*
X10431968Y-21146889D01*
X10431968Y-21146889D02*
X10422444Y-21165936D01*
X10422444Y-21165936D02*
X10412920Y-21175460D01*
X10412920Y-21175460D02*
X10393872Y-21184984D01*
X10393872Y-21184984D02*
X10346253Y-21184984D01*
X10346253Y-21184984D02*
X10327206Y-21175460D01*
X10327206Y-21175460D02*
X10317682Y-21165936D01*
X10498634Y-20984984D02*
X10631968Y-20984984D01*
X10631968Y-20984984D02*
X10546253Y-21184984D01*
X10698634Y-20984984D02*
X10698634Y-21023079D01*
X10774825Y-20984984D02*
X10774825Y-21023079D01*
X11070063Y-21261174D02*
X11060539Y-21251650D01*
X11060539Y-21251650D02*
X11041491Y-21223079D01*
X11041491Y-21223079D02*
X11031968Y-21204031D01*
X11031968Y-21204031D02*
X11022444Y-21175460D01*
X11022444Y-21175460D02*
X11012920Y-21127841D01*
X11012920Y-21127841D02*
X11012920Y-21089746D01*
X11012920Y-21089746D02*
X11022444Y-21042127D01*
X11022444Y-21042127D02*
X11031968Y-21013555D01*
X11031968Y-21013555D02*
X11041491Y-20994508D01*
X11041491Y-20994508D02*
X11060539Y-20965936D01*
X11060539Y-20965936D02*
X11070063Y-20956412D01*
X11136730Y-21004031D02*
X11146253Y-20994508D01*
X11146253Y-20994508D02*
X11165301Y-20984984D01*
X11165301Y-20984984D02*
X11212920Y-20984984D01*
X11212920Y-20984984D02*
X11231968Y-20994508D01*
X11231968Y-20994508D02*
X11241491Y-21004031D01*
X11241491Y-21004031D02*
X11251015Y-21023079D01*
X11251015Y-21023079D02*
X11251015Y-21042127D01*
X11251015Y-21042127D02*
X11241491Y-21070698D01*
X11241491Y-21070698D02*
X11127206Y-21184984D01*
X11127206Y-21184984D02*
X11251015Y-21184984D01*
X11346253Y-21184984D02*
X11384348Y-21184984D01*
X11384348Y-21184984D02*
X11403396Y-21175460D01*
X11403396Y-21175460D02*
X11412920Y-21165936D01*
X11412920Y-21165936D02*
X11431968Y-21137365D01*
X11431968Y-21137365D02*
X11441491Y-21099270D01*
X11441491Y-21099270D02*
X11441491Y-21023079D01*
X11441491Y-21023079D02*
X11431968Y-21004031D01*
X11431968Y-21004031D02*
X11422444Y-20994508D01*
X11422444Y-20994508D02*
X11403396Y-20984984D01*
X11403396Y-20984984D02*
X11365301Y-20984984D01*
X11365301Y-20984984D02*
X11346253Y-20994508D01*
X11346253Y-20994508D02*
X11336729Y-21004031D01*
X11336729Y-21004031D02*
X11327206Y-21023079D01*
X11327206Y-21023079D02*
X11327206Y-21070698D01*
X11327206Y-21070698D02*
X11336729Y-21089746D01*
X11336729Y-21089746D02*
X11346253Y-21099270D01*
X11346253Y-21099270D02*
X11365301Y-21108793D01*
X11365301Y-21108793D02*
X11403396Y-21108793D01*
X11403396Y-21108793D02*
X11422444Y-21099270D01*
X11422444Y-21099270D02*
X11431968Y-21089746D01*
X11431968Y-21089746D02*
X11441491Y-21070698D01*
X11679587Y-21184984D02*
X11679587Y-20984984D01*
X11765301Y-21184984D02*
X11765301Y-21080222D01*
X11765301Y-21080222D02*
X11755777Y-21061174D01*
X11755777Y-21061174D02*
X11736730Y-21051650D01*
X11736730Y-21051650D02*
X11708158Y-21051650D01*
X11708158Y-21051650D02*
X11689110Y-21061174D01*
X11689110Y-21061174D02*
X11679587Y-21070698D01*
X11889110Y-21184984D02*
X11870063Y-21175460D01*
X11870063Y-21175460D02*
X11860539Y-21165936D01*
X11860539Y-21165936D02*
X11851015Y-21146889D01*
X11851015Y-21146889D02*
X11851015Y-21089746D01*
X11851015Y-21089746D02*
X11860539Y-21070698D01*
X11860539Y-21070698D02*
X11870063Y-21061174D01*
X11870063Y-21061174D02*
X11889110Y-21051650D01*
X11889110Y-21051650D02*
X11917682Y-21051650D01*
X11917682Y-21051650D02*
X11936730Y-21061174D01*
X11936730Y-21061174D02*
X11946253Y-21070698D01*
X11946253Y-21070698D02*
X11955777Y-21089746D01*
X11955777Y-21089746D02*
X11955777Y-21146889D01*
X11955777Y-21146889D02*
X11946253Y-21165936D01*
X11946253Y-21165936D02*
X11936730Y-21175460D01*
X11936730Y-21175460D02*
X11917682Y-21184984D01*
X11917682Y-21184984D02*
X11889110Y-21184984D01*
X12070063Y-21184984D02*
X12051015Y-21175460D01*
X12051015Y-21175460D02*
X12041491Y-21156412D01*
X12041491Y-21156412D02*
X12041491Y-20984984D01*
X12222444Y-21175460D02*
X12203396Y-21184984D01*
X12203396Y-21184984D02*
X12165301Y-21184984D01*
X12165301Y-21184984D02*
X12146253Y-21175460D01*
X12146253Y-21175460D02*
X12136730Y-21156412D01*
X12136730Y-21156412D02*
X12136730Y-21080222D01*
X12136730Y-21080222D02*
X12146253Y-21061174D01*
X12146253Y-21061174D02*
X12165301Y-21051650D01*
X12165301Y-21051650D02*
X12203396Y-21051650D01*
X12203396Y-21051650D02*
X12222444Y-21061174D01*
X12222444Y-21061174D02*
X12231968Y-21080222D01*
X12231968Y-21080222D02*
X12231968Y-21099270D01*
X12231968Y-21099270D02*
X12136730Y-21118317D01*
X12308158Y-21175460D02*
X12327206Y-21184984D01*
X12327206Y-21184984D02*
X12365301Y-21184984D01*
X12365301Y-21184984D02*
X12384349Y-21175460D01*
X12384349Y-21175460D02*
X12393872Y-21156412D01*
X12393872Y-21156412D02*
X12393872Y-21146889D01*
X12393872Y-21146889D02*
X12384349Y-21127841D01*
X12384349Y-21127841D02*
X12365301Y-21118317D01*
X12365301Y-21118317D02*
X12336730Y-21118317D01*
X12336730Y-21118317D02*
X12317682Y-21108793D01*
X12317682Y-21108793D02*
X12308158Y-21089746D01*
X12308158Y-21089746D02*
X12308158Y-21080222D01*
X12308158Y-21080222D02*
X12317682Y-21061174D01*
X12317682Y-21061174D02*
X12336730Y-21051650D01*
X12336730Y-21051650D02*
X12365301Y-21051650D01*
X12365301Y-21051650D02*
X12384349Y-21061174D01*
X12460539Y-21261174D02*
X12470063Y-21251650D01*
X12470063Y-21251650D02*
X12489111Y-21223079D01*
X12489111Y-21223079D02*
X12498634Y-21204031D01*
X12498634Y-21204031D02*
X12508158Y-21175460D01*
X12508158Y-21175460D02*
X12517682Y-21127841D01*
X12517682Y-21127841D02*
X12517682Y-21089746D01*
X12517682Y-21089746D02*
X12508158Y-21042127D01*
X12508158Y-21042127D02*
X12498634Y-21013555D01*
X12498634Y-21013555D02*
X12489111Y-20994508D01*
X12489111Y-20994508D02*
X12470063Y-20965936D01*
X12470063Y-20965936D02*
X12460539Y-20956412D01*
D10*
X7495000Y-21357500D02*
G75*
G02*
X7415000Y-21357500I-40000J0D01*
G01*
X7415000Y-21357500D02*
G75*
G02*
X7495000Y-21357500I40000J0D01*
G01*
D12*
X7793872Y-21248984D02*
X7812920Y-21248984D01*
X7812920Y-21248984D02*
X7831967Y-21258508D01*
X7831967Y-21258508D02*
X7841491Y-21268031D01*
X7841491Y-21268031D02*
X7851015Y-21287079D01*
X7851015Y-21287079D02*
X7860539Y-21325174D01*
X7860539Y-21325174D02*
X7860539Y-21372793D01*
X7860539Y-21372793D02*
X7851015Y-21410889D01*
X7851015Y-21410889D02*
X7841491Y-21429936D01*
X7841491Y-21429936D02*
X7831967Y-21439460D01*
X7831967Y-21439460D02*
X7812920Y-21448984D01*
X7812920Y-21448984D02*
X7793872Y-21448984D01*
X7793872Y-21448984D02*
X7774824Y-21439460D01*
X7774824Y-21439460D02*
X7765301Y-21429936D01*
X7765301Y-21429936D02*
X7755777Y-21410889D01*
X7755777Y-21410889D02*
X7746253Y-21372793D01*
X7746253Y-21372793D02*
X7746253Y-21325174D01*
X7746253Y-21325174D02*
X7755777Y-21287079D01*
X7755777Y-21287079D02*
X7765301Y-21268031D01*
X7765301Y-21268031D02*
X7774824Y-21258508D01*
X7774824Y-21258508D02*
X7793872Y-21248984D01*
X7946253Y-21429936D02*
X7955777Y-21439460D01*
X7955777Y-21439460D02*
X7946253Y-21448984D01*
X7946253Y-21448984D02*
X7936729Y-21439460D01*
X7936729Y-21439460D02*
X7946253Y-21429936D01*
X7946253Y-21429936D02*
X7946253Y-21448984D01*
X8070062Y-21334698D02*
X8051015Y-21325174D01*
X8051015Y-21325174D02*
X8041491Y-21315650D01*
X8041491Y-21315650D02*
X8031967Y-21296603D01*
X8031967Y-21296603D02*
X8031967Y-21287079D01*
X8031967Y-21287079D02*
X8041491Y-21268031D01*
X8041491Y-21268031D02*
X8051015Y-21258508D01*
X8051015Y-21258508D02*
X8070062Y-21248984D01*
X8070062Y-21248984D02*
X8108158Y-21248984D01*
X8108158Y-21248984D02*
X8127205Y-21258508D01*
X8127205Y-21258508D02*
X8136729Y-21268031D01*
X8136729Y-21268031D02*
X8146253Y-21287079D01*
X8146253Y-21287079D02*
X8146253Y-21296603D01*
X8146253Y-21296603D02*
X8136729Y-21315650D01*
X8136729Y-21315650D02*
X8127205Y-21325174D01*
X8127205Y-21325174D02*
X8108158Y-21334698D01*
X8108158Y-21334698D02*
X8070062Y-21334698D01*
X8070062Y-21334698D02*
X8051015Y-21344222D01*
X8051015Y-21344222D02*
X8041491Y-21353746D01*
X8041491Y-21353746D02*
X8031967Y-21372793D01*
X8031967Y-21372793D02*
X8031967Y-21410889D01*
X8031967Y-21410889D02*
X8041491Y-21429936D01*
X8041491Y-21429936D02*
X8051015Y-21439460D01*
X8051015Y-21439460D02*
X8070062Y-21448984D01*
X8070062Y-21448984D02*
X8108158Y-21448984D01*
X8108158Y-21448984D02*
X8127205Y-21439460D01*
X8127205Y-21439460D02*
X8136729Y-21429936D01*
X8136729Y-21429936D02*
X8146253Y-21410889D01*
X8146253Y-21410889D02*
X8146253Y-21372793D01*
X8146253Y-21372793D02*
X8136729Y-21353746D01*
X8136729Y-21353746D02*
X8127205Y-21344222D01*
X8127205Y-21344222D02*
X8108158Y-21334698D01*
X8270062Y-21248984D02*
X8289110Y-21248984D01*
X8289110Y-21248984D02*
X8308158Y-21258508D01*
X8308158Y-21258508D02*
X8317682Y-21268031D01*
X8317682Y-21268031D02*
X8327205Y-21287079D01*
X8327205Y-21287079D02*
X8336729Y-21325174D01*
X8336729Y-21325174D02*
X8336729Y-21372793D01*
X8336729Y-21372793D02*
X8327205Y-21410889D01*
X8327205Y-21410889D02*
X8317682Y-21429936D01*
X8317682Y-21429936D02*
X8308158Y-21439460D01*
X8308158Y-21439460D02*
X8289110Y-21448984D01*
X8289110Y-21448984D02*
X8270062Y-21448984D01*
X8270062Y-21448984D02*
X8251015Y-21439460D01*
X8251015Y-21439460D02*
X8241491Y-21429936D01*
X8241491Y-21429936D02*
X8231967Y-21410889D01*
X8231967Y-21410889D02*
X8222443Y-21372793D01*
X8222443Y-21372793D02*
X8222443Y-21325174D01*
X8222443Y-21325174D02*
X8231967Y-21287079D01*
X8231967Y-21287079D02*
X8241491Y-21268031D01*
X8241491Y-21268031D02*
X8251015Y-21258508D01*
X8251015Y-21258508D02*
X8270062Y-21248984D01*
X8460539Y-21248984D02*
X8479586Y-21248984D01*
X8479586Y-21248984D02*
X8498634Y-21258508D01*
X8498634Y-21258508D02*
X8508158Y-21268031D01*
X8508158Y-21268031D02*
X8517682Y-21287079D01*
X8517682Y-21287079D02*
X8527205Y-21325174D01*
X8527205Y-21325174D02*
X8527205Y-21372793D01*
X8527205Y-21372793D02*
X8517682Y-21410889D01*
X8517682Y-21410889D02*
X8508158Y-21429936D01*
X8508158Y-21429936D02*
X8498634Y-21439460D01*
X8498634Y-21439460D02*
X8479586Y-21448984D01*
X8479586Y-21448984D02*
X8460539Y-21448984D01*
X8460539Y-21448984D02*
X8441491Y-21439460D01*
X8441491Y-21439460D02*
X8431967Y-21429936D01*
X8431967Y-21429936D02*
X8422444Y-21410889D01*
X8422444Y-21410889D02*
X8412920Y-21372793D01*
X8412920Y-21372793D02*
X8412920Y-21325174D01*
X8412920Y-21325174D02*
X8422444Y-21287079D01*
X8422444Y-21287079D02*
X8431967Y-21268031D01*
X8431967Y-21268031D02*
X8441491Y-21258508D01*
X8441491Y-21258508D02*
X8460539Y-21248984D01*
X8612920Y-21448984D02*
X8612920Y-21315650D01*
X8612920Y-21334698D02*
X8622444Y-21325174D01*
X8622444Y-21325174D02*
X8641491Y-21315650D01*
X8641491Y-21315650D02*
X8670063Y-21315650D01*
X8670063Y-21315650D02*
X8689110Y-21325174D01*
X8689110Y-21325174D02*
X8698634Y-21344222D01*
X8698634Y-21344222D02*
X8698634Y-21448984D01*
X8698634Y-21344222D02*
X8708158Y-21325174D01*
X8708158Y-21325174D02*
X8727205Y-21315650D01*
X8727205Y-21315650D02*
X8755777Y-21315650D01*
X8755777Y-21315650D02*
X8774825Y-21325174D01*
X8774825Y-21325174D02*
X8784348Y-21344222D01*
X8784348Y-21344222D02*
X8784348Y-21448984D01*
X8879586Y-21448984D02*
X8879586Y-21315650D01*
X8879586Y-21334698D02*
X8889110Y-21325174D01*
X8889110Y-21325174D02*
X8908158Y-21315650D01*
X8908158Y-21315650D02*
X8936729Y-21315650D01*
X8936729Y-21315650D02*
X8955777Y-21325174D01*
X8955777Y-21325174D02*
X8965301Y-21344222D01*
X8965301Y-21344222D02*
X8965301Y-21448984D01*
X8965301Y-21344222D02*
X8974825Y-21325174D01*
X8974825Y-21325174D02*
X8993872Y-21315650D01*
X8993872Y-21315650D02*
X9022444Y-21315650D01*
X9022444Y-21315650D02*
X9041491Y-21325174D01*
X9041491Y-21325174D02*
X9051015Y-21344222D01*
X9051015Y-21344222D02*
X9051015Y-21448984D01*
X9441491Y-21239460D02*
X9270063Y-21496603D01*
X9698634Y-21248984D02*
X9717682Y-21248984D01*
X9717682Y-21248984D02*
X9736729Y-21258508D01*
X9736729Y-21258508D02*
X9746253Y-21268031D01*
X9746253Y-21268031D02*
X9755777Y-21287079D01*
X9755777Y-21287079D02*
X9765301Y-21325174D01*
X9765301Y-21325174D02*
X9765301Y-21372793D01*
X9765301Y-21372793D02*
X9755777Y-21410889D01*
X9755777Y-21410889D02*
X9746253Y-21429936D01*
X9746253Y-21429936D02*
X9736729Y-21439460D01*
X9736729Y-21439460D02*
X9717682Y-21448984D01*
X9717682Y-21448984D02*
X9698634Y-21448984D01*
X9698634Y-21448984D02*
X9679587Y-21439460D01*
X9679587Y-21439460D02*
X9670063Y-21429936D01*
X9670063Y-21429936D02*
X9660539Y-21410889D01*
X9660539Y-21410889D02*
X9651015Y-21372793D01*
X9651015Y-21372793D02*
X9651015Y-21325174D01*
X9651015Y-21325174D02*
X9660539Y-21287079D01*
X9660539Y-21287079D02*
X9670063Y-21268031D01*
X9670063Y-21268031D02*
X9679587Y-21258508D01*
X9679587Y-21258508D02*
X9698634Y-21248984D01*
X9851015Y-21429936D02*
X9860539Y-21439460D01*
X9860539Y-21439460D02*
X9851015Y-21448984D01*
X9851015Y-21448984D02*
X9841491Y-21439460D01*
X9841491Y-21439460D02*
X9851015Y-21429936D01*
X9851015Y-21429936D02*
X9851015Y-21448984D01*
X9984348Y-21248984D02*
X10003396Y-21248984D01*
X10003396Y-21248984D02*
X10022444Y-21258508D01*
X10022444Y-21258508D02*
X10031968Y-21268031D01*
X10031968Y-21268031D02*
X10041491Y-21287079D01*
X10041491Y-21287079D02*
X10051015Y-21325174D01*
X10051015Y-21325174D02*
X10051015Y-21372793D01*
X10051015Y-21372793D02*
X10041491Y-21410889D01*
X10041491Y-21410889D02*
X10031968Y-21429936D01*
X10031968Y-21429936D02*
X10022444Y-21439460D01*
X10022444Y-21439460D02*
X10003396Y-21448984D01*
X10003396Y-21448984D02*
X9984348Y-21448984D01*
X9984348Y-21448984D02*
X9965301Y-21439460D01*
X9965301Y-21439460D02*
X9955777Y-21429936D01*
X9955777Y-21429936D02*
X9946253Y-21410889D01*
X9946253Y-21410889D02*
X9936729Y-21372793D01*
X9936729Y-21372793D02*
X9936729Y-21325174D01*
X9936729Y-21325174D02*
X9946253Y-21287079D01*
X9946253Y-21287079D02*
X9955777Y-21268031D01*
X9955777Y-21268031D02*
X9965301Y-21258508D01*
X9965301Y-21258508D02*
X9984348Y-21248984D01*
X10117682Y-21248984D02*
X10241491Y-21248984D01*
X10241491Y-21248984D02*
X10174825Y-21325174D01*
X10174825Y-21325174D02*
X10203396Y-21325174D01*
X10203396Y-21325174D02*
X10222444Y-21334698D01*
X10222444Y-21334698D02*
X10231968Y-21344222D01*
X10231968Y-21344222D02*
X10241491Y-21363270D01*
X10241491Y-21363270D02*
X10241491Y-21410889D01*
X10241491Y-21410889D02*
X10231968Y-21429936D01*
X10231968Y-21429936D02*
X10222444Y-21439460D01*
X10222444Y-21439460D02*
X10203396Y-21448984D01*
X10203396Y-21448984D02*
X10146253Y-21448984D01*
X10146253Y-21448984D02*
X10127206Y-21439460D01*
X10127206Y-21439460D02*
X10117682Y-21429936D01*
X10431968Y-21448984D02*
X10317682Y-21448984D01*
X10374825Y-21448984D02*
X10374825Y-21248984D01*
X10374825Y-21248984D02*
X10355777Y-21277555D01*
X10355777Y-21277555D02*
X10336729Y-21296603D01*
X10336729Y-21296603D02*
X10317682Y-21306127D01*
X10612920Y-21248984D02*
X10517682Y-21248984D01*
X10517682Y-21248984D02*
X10508158Y-21344222D01*
X10508158Y-21344222D02*
X10517682Y-21334698D01*
X10517682Y-21334698D02*
X10536729Y-21325174D01*
X10536729Y-21325174D02*
X10584349Y-21325174D01*
X10584349Y-21325174D02*
X10603396Y-21334698D01*
X10603396Y-21334698D02*
X10612920Y-21344222D01*
X10612920Y-21344222D02*
X10622444Y-21363270D01*
X10622444Y-21363270D02*
X10622444Y-21410889D01*
X10622444Y-21410889D02*
X10612920Y-21429936D01*
X10612920Y-21429936D02*
X10603396Y-21439460D01*
X10603396Y-21439460D02*
X10584349Y-21448984D01*
X10584349Y-21448984D02*
X10536729Y-21448984D01*
X10536729Y-21448984D02*
X10517682Y-21439460D01*
X10517682Y-21439460D02*
X10508158Y-21429936D01*
X10698634Y-21248984D02*
X10698634Y-21287079D01*
X10774825Y-21248984D02*
X10774825Y-21287079D01*
X11070063Y-21525174D02*
X11060539Y-21515650D01*
X11060539Y-21515650D02*
X11041491Y-21487079D01*
X11041491Y-21487079D02*
X11031968Y-21468031D01*
X11031968Y-21468031D02*
X11022444Y-21439460D01*
X11022444Y-21439460D02*
X11012920Y-21391841D01*
X11012920Y-21391841D02*
X11012920Y-21353746D01*
X11012920Y-21353746D02*
X11022444Y-21306127D01*
X11022444Y-21306127D02*
X11031968Y-21277555D01*
X11031968Y-21277555D02*
X11041491Y-21258508D01*
X11041491Y-21258508D02*
X11060539Y-21229936D01*
X11060539Y-21229936D02*
X11070063Y-21220412D01*
X11231968Y-21315650D02*
X11231968Y-21448984D01*
X11184349Y-21239460D02*
X11136730Y-21382317D01*
X11136730Y-21382317D02*
X11260539Y-21382317D01*
X11489110Y-21448984D02*
X11489110Y-21248984D01*
X11574825Y-21448984D02*
X11574825Y-21344222D01*
X11574825Y-21344222D02*
X11565301Y-21325174D01*
X11565301Y-21325174D02*
X11546253Y-21315650D01*
X11546253Y-21315650D02*
X11517682Y-21315650D01*
X11517682Y-21315650D02*
X11498634Y-21325174D01*
X11498634Y-21325174D02*
X11489110Y-21334698D01*
X11698634Y-21448984D02*
X11679587Y-21439460D01*
X11679587Y-21439460D02*
X11670063Y-21429936D01*
X11670063Y-21429936D02*
X11660539Y-21410889D01*
X11660539Y-21410889D02*
X11660539Y-21353746D01*
X11660539Y-21353746D02*
X11670063Y-21334698D01*
X11670063Y-21334698D02*
X11679587Y-21325174D01*
X11679587Y-21325174D02*
X11698634Y-21315650D01*
X11698634Y-21315650D02*
X11727206Y-21315650D01*
X11727206Y-21315650D02*
X11746253Y-21325174D01*
X11746253Y-21325174D02*
X11755777Y-21334698D01*
X11755777Y-21334698D02*
X11765301Y-21353746D01*
X11765301Y-21353746D02*
X11765301Y-21410889D01*
X11765301Y-21410889D02*
X11755777Y-21429936D01*
X11755777Y-21429936D02*
X11746253Y-21439460D01*
X11746253Y-21439460D02*
X11727206Y-21448984D01*
X11727206Y-21448984D02*
X11698634Y-21448984D01*
X11879587Y-21448984D02*
X11860539Y-21439460D01*
X11860539Y-21439460D02*
X11851015Y-21420412D01*
X11851015Y-21420412D02*
X11851015Y-21248984D01*
X12031968Y-21439460D02*
X12012920Y-21448984D01*
X12012920Y-21448984D02*
X11974825Y-21448984D01*
X11974825Y-21448984D02*
X11955777Y-21439460D01*
X11955777Y-21439460D02*
X11946253Y-21420412D01*
X11946253Y-21420412D02*
X11946253Y-21344222D01*
X11946253Y-21344222D02*
X11955777Y-21325174D01*
X11955777Y-21325174D02*
X11974825Y-21315650D01*
X11974825Y-21315650D02*
X12012920Y-21315650D01*
X12012920Y-21315650D02*
X12031968Y-21325174D01*
X12031968Y-21325174D02*
X12041491Y-21344222D01*
X12041491Y-21344222D02*
X12041491Y-21363270D01*
X12041491Y-21363270D02*
X11946253Y-21382317D01*
X12117682Y-21439460D02*
X12136730Y-21448984D01*
X12136730Y-21448984D02*
X12174825Y-21448984D01*
X12174825Y-21448984D02*
X12193872Y-21439460D01*
X12193872Y-21439460D02*
X12203396Y-21420412D01*
X12203396Y-21420412D02*
X12203396Y-21410889D01*
X12203396Y-21410889D02*
X12193872Y-21391841D01*
X12193872Y-21391841D02*
X12174825Y-21382317D01*
X12174825Y-21382317D02*
X12146253Y-21382317D01*
X12146253Y-21382317D02*
X12127206Y-21372793D01*
X12127206Y-21372793D02*
X12117682Y-21353746D01*
X12117682Y-21353746D02*
X12117682Y-21344222D01*
X12117682Y-21344222D02*
X12127206Y-21325174D01*
X12127206Y-21325174D02*
X12146253Y-21315650D01*
X12146253Y-21315650D02*
X12174825Y-21315650D01*
X12174825Y-21315650D02*
X12193872Y-21325174D01*
X12270063Y-21525174D02*
X12279587Y-21515650D01*
X12279587Y-21515650D02*
X12298634Y-21487079D01*
X12298634Y-21487079D02*
X12308158Y-21468031D01*
X12308158Y-21468031D02*
X12317682Y-21439460D01*
X12317682Y-21439460D02*
X12327206Y-21391841D01*
X12327206Y-21391841D02*
X12327206Y-21353746D01*
X12327206Y-21353746D02*
X12317682Y-21306127D01*
X12317682Y-21306127D02*
X12308158Y-21277555D01*
X12308158Y-21277555D02*
X12298634Y-21258508D01*
X12298634Y-21258508D02*
X12279587Y-21229936D01*
X12279587Y-21229936D02*
X12270063Y-21220412D01*
D10*
X7450000Y-21576500D02*
X7450000Y-21666500D01*
X7405000Y-21621500D02*
X7495000Y-21621500D01*
D12*
X7793872Y-21512984D02*
X7812920Y-21512984D01*
X7812920Y-21512984D02*
X7831967Y-21522508D01*
X7831967Y-21522508D02*
X7841491Y-21532031D01*
X7841491Y-21532031D02*
X7851015Y-21551079D01*
X7851015Y-21551079D02*
X7860539Y-21589174D01*
X7860539Y-21589174D02*
X7860539Y-21636793D01*
X7860539Y-21636793D02*
X7851015Y-21674889D01*
X7851015Y-21674889D02*
X7841491Y-21693936D01*
X7841491Y-21693936D02*
X7831967Y-21703460D01*
X7831967Y-21703460D02*
X7812920Y-21712984D01*
X7812920Y-21712984D02*
X7793872Y-21712984D01*
X7793872Y-21712984D02*
X7774824Y-21703460D01*
X7774824Y-21703460D02*
X7765301Y-21693936D01*
X7765301Y-21693936D02*
X7755777Y-21674889D01*
X7755777Y-21674889D02*
X7746253Y-21636793D01*
X7746253Y-21636793D02*
X7746253Y-21589174D01*
X7746253Y-21589174D02*
X7755777Y-21551079D01*
X7755777Y-21551079D02*
X7765301Y-21532031D01*
X7765301Y-21532031D02*
X7774824Y-21522508D01*
X7774824Y-21522508D02*
X7793872Y-21512984D01*
X7946253Y-21693936D02*
X7955777Y-21703460D01*
X7955777Y-21703460D02*
X7946253Y-21712984D01*
X7946253Y-21712984D02*
X7936729Y-21703460D01*
X7936729Y-21703460D02*
X7946253Y-21693936D01*
X7946253Y-21693936D02*
X7946253Y-21712984D01*
X8051015Y-21712984D02*
X8089110Y-21712984D01*
X8089110Y-21712984D02*
X8108158Y-21703460D01*
X8108158Y-21703460D02*
X8117682Y-21693936D01*
X8117682Y-21693936D02*
X8136729Y-21665365D01*
X8136729Y-21665365D02*
X8146253Y-21627270D01*
X8146253Y-21627270D02*
X8146253Y-21551079D01*
X8146253Y-21551079D02*
X8136729Y-21532031D01*
X8136729Y-21532031D02*
X8127205Y-21522508D01*
X8127205Y-21522508D02*
X8108158Y-21512984D01*
X8108158Y-21512984D02*
X8070062Y-21512984D01*
X8070062Y-21512984D02*
X8051015Y-21522508D01*
X8051015Y-21522508D02*
X8041491Y-21532031D01*
X8041491Y-21532031D02*
X8031967Y-21551079D01*
X8031967Y-21551079D02*
X8031967Y-21598698D01*
X8031967Y-21598698D02*
X8041491Y-21617746D01*
X8041491Y-21617746D02*
X8051015Y-21627270D01*
X8051015Y-21627270D02*
X8070062Y-21636793D01*
X8070062Y-21636793D02*
X8108158Y-21636793D01*
X8108158Y-21636793D02*
X8127205Y-21627270D01*
X8127205Y-21627270D02*
X8136729Y-21617746D01*
X8136729Y-21617746D02*
X8146253Y-21598698D01*
X8270062Y-21512984D02*
X8289110Y-21512984D01*
X8289110Y-21512984D02*
X8308158Y-21522508D01*
X8308158Y-21522508D02*
X8317682Y-21532031D01*
X8317682Y-21532031D02*
X8327205Y-21551079D01*
X8327205Y-21551079D02*
X8336729Y-21589174D01*
X8336729Y-21589174D02*
X8336729Y-21636793D01*
X8336729Y-21636793D02*
X8327205Y-21674889D01*
X8327205Y-21674889D02*
X8317682Y-21693936D01*
X8317682Y-21693936D02*
X8308158Y-21703460D01*
X8308158Y-21703460D02*
X8289110Y-21712984D01*
X8289110Y-21712984D02*
X8270062Y-21712984D01*
X8270062Y-21712984D02*
X8251015Y-21703460D01*
X8251015Y-21703460D02*
X8241491Y-21693936D01*
X8241491Y-21693936D02*
X8231967Y-21674889D01*
X8231967Y-21674889D02*
X8222443Y-21636793D01*
X8222443Y-21636793D02*
X8222443Y-21589174D01*
X8222443Y-21589174D02*
X8231967Y-21551079D01*
X8231967Y-21551079D02*
X8241491Y-21532031D01*
X8241491Y-21532031D02*
X8251015Y-21522508D01*
X8251015Y-21522508D02*
X8270062Y-21512984D01*
X8460539Y-21512984D02*
X8479586Y-21512984D01*
X8479586Y-21512984D02*
X8498634Y-21522508D01*
X8498634Y-21522508D02*
X8508158Y-21532031D01*
X8508158Y-21532031D02*
X8517682Y-21551079D01*
X8517682Y-21551079D02*
X8527205Y-21589174D01*
X8527205Y-21589174D02*
X8527205Y-21636793D01*
X8527205Y-21636793D02*
X8517682Y-21674889D01*
X8517682Y-21674889D02*
X8508158Y-21693936D01*
X8508158Y-21693936D02*
X8498634Y-21703460D01*
X8498634Y-21703460D02*
X8479586Y-21712984D01*
X8479586Y-21712984D02*
X8460539Y-21712984D01*
X8460539Y-21712984D02*
X8441491Y-21703460D01*
X8441491Y-21703460D02*
X8431967Y-21693936D01*
X8431967Y-21693936D02*
X8422444Y-21674889D01*
X8422444Y-21674889D02*
X8412920Y-21636793D01*
X8412920Y-21636793D02*
X8412920Y-21589174D01*
X8412920Y-21589174D02*
X8422444Y-21551079D01*
X8422444Y-21551079D02*
X8431967Y-21532031D01*
X8431967Y-21532031D02*
X8441491Y-21522508D01*
X8441491Y-21522508D02*
X8460539Y-21512984D01*
X8612920Y-21712984D02*
X8612920Y-21579650D01*
X8612920Y-21598698D02*
X8622444Y-21589174D01*
X8622444Y-21589174D02*
X8641491Y-21579650D01*
X8641491Y-21579650D02*
X8670063Y-21579650D01*
X8670063Y-21579650D02*
X8689110Y-21589174D01*
X8689110Y-21589174D02*
X8698634Y-21608222D01*
X8698634Y-21608222D02*
X8698634Y-21712984D01*
X8698634Y-21608222D02*
X8708158Y-21589174D01*
X8708158Y-21589174D02*
X8727205Y-21579650D01*
X8727205Y-21579650D02*
X8755777Y-21579650D01*
X8755777Y-21579650D02*
X8774825Y-21589174D01*
X8774825Y-21589174D02*
X8784348Y-21608222D01*
X8784348Y-21608222D02*
X8784348Y-21712984D01*
X8879586Y-21712984D02*
X8879586Y-21579650D01*
X8879586Y-21598698D02*
X8889110Y-21589174D01*
X8889110Y-21589174D02*
X8908158Y-21579650D01*
X8908158Y-21579650D02*
X8936729Y-21579650D01*
X8936729Y-21579650D02*
X8955777Y-21589174D01*
X8955777Y-21589174D02*
X8965301Y-21608222D01*
X8965301Y-21608222D02*
X8965301Y-21712984D01*
X8965301Y-21608222D02*
X8974825Y-21589174D01*
X8974825Y-21589174D02*
X8993872Y-21579650D01*
X8993872Y-21579650D02*
X9022444Y-21579650D01*
X9022444Y-21579650D02*
X9041491Y-21589174D01*
X9041491Y-21589174D02*
X9051015Y-21608222D01*
X9051015Y-21608222D02*
X9051015Y-21712984D01*
X9441491Y-21503460D02*
X9270063Y-21760603D01*
X9698634Y-21512984D02*
X9717682Y-21512984D01*
X9717682Y-21512984D02*
X9736729Y-21522508D01*
X9736729Y-21522508D02*
X9746253Y-21532031D01*
X9746253Y-21532031D02*
X9755777Y-21551079D01*
X9755777Y-21551079D02*
X9765301Y-21589174D01*
X9765301Y-21589174D02*
X9765301Y-21636793D01*
X9765301Y-21636793D02*
X9755777Y-21674889D01*
X9755777Y-21674889D02*
X9746253Y-21693936D01*
X9746253Y-21693936D02*
X9736729Y-21703460D01*
X9736729Y-21703460D02*
X9717682Y-21712984D01*
X9717682Y-21712984D02*
X9698634Y-21712984D01*
X9698634Y-21712984D02*
X9679587Y-21703460D01*
X9679587Y-21703460D02*
X9670063Y-21693936D01*
X9670063Y-21693936D02*
X9660539Y-21674889D01*
X9660539Y-21674889D02*
X9651015Y-21636793D01*
X9651015Y-21636793D02*
X9651015Y-21589174D01*
X9651015Y-21589174D02*
X9660539Y-21551079D01*
X9660539Y-21551079D02*
X9670063Y-21532031D01*
X9670063Y-21532031D02*
X9679587Y-21522508D01*
X9679587Y-21522508D02*
X9698634Y-21512984D01*
X9851015Y-21693936D02*
X9860539Y-21703460D01*
X9860539Y-21703460D02*
X9851015Y-21712984D01*
X9851015Y-21712984D02*
X9841491Y-21703460D01*
X9841491Y-21703460D02*
X9851015Y-21693936D01*
X9851015Y-21693936D02*
X9851015Y-21712984D01*
X9984348Y-21512984D02*
X10003396Y-21512984D01*
X10003396Y-21512984D02*
X10022444Y-21522508D01*
X10022444Y-21522508D02*
X10031968Y-21532031D01*
X10031968Y-21532031D02*
X10041491Y-21551079D01*
X10041491Y-21551079D02*
X10051015Y-21589174D01*
X10051015Y-21589174D02*
X10051015Y-21636793D01*
X10051015Y-21636793D02*
X10041491Y-21674889D01*
X10041491Y-21674889D02*
X10031968Y-21693936D01*
X10031968Y-21693936D02*
X10022444Y-21703460D01*
X10022444Y-21703460D02*
X10003396Y-21712984D01*
X10003396Y-21712984D02*
X9984348Y-21712984D01*
X9984348Y-21712984D02*
X9965301Y-21703460D01*
X9965301Y-21703460D02*
X9955777Y-21693936D01*
X9955777Y-21693936D02*
X9946253Y-21674889D01*
X9946253Y-21674889D02*
X9936729Y-21636793D01*
X9936729Y-21636793D02*
X9936729Y-21589174D01*
X9936729Y-21589174D02*
X9946253Y-21551079D01*
X9946253Y-21551079D02*
X9955777Y-21532031D01*
X9955777Y-21532031D02*
X9965301Y-21522508D01*
X9965301Y-21522508D02*
X9984348Y-21512984D01*
X10117682Y-21512984D02*
X10241491Y-21512984D01*
X10241491Y-21512984D02*
X10174825Y-21589174D01*
X10174825Y-21589174D02*
X10203396Y-21589174D01*
X10203396Y-21589174D02*
X10222444Y-21598698D01*
X10222444Y-21598698D02*
X10231968Y-21608222D01*
X10231968Y-21608222D02*
X10241491Y-21627270D01*
X10241491Y-21627270D02*
X10241491Y-21674889D01*
X10241491Y-21674889D02*
X10231968Y-21693936D01*
X10231968Y-21693936D02*
X10222444Y-21703460D01*
X10222444Y-21703460D02*
X10203396Y-21712984D01*
X10203396Y-21712984D02*
X10146253Y-21712984D01*
X10146253Y-21712984D02*
X10127206Y-21703460D01*
X10127206Y-21703460D02*
X10117682Y-21693936D01*
X10422444Y-21512984D02*
X10327206Y-21512984D01*
X10327206Y-21512984D02*
X10317682Y-21608222D01*
X10317682Y-21608222D02*
X10327206Y-21598698D01*
X10327206Y-21598698D02*
X10346253Y-21589174D01*
X10346253Y-21589174D02*
X10393872Y-21589174D01*
X10393872Y-21589174D02*
X10412920Y-21598698D01*
X10412920Y-21598698D02*
X10422444Y-21608222D01*
X10422444Y-21608222D02*
X10431968Y-21627270D01*
X10431968Y-21627270D02*
X10431968Y-21674889D01*
X10431968Y-21674889D02*
X10422444Y-21693936D01*
X10422444Y-21693936D02*
X10412920Y-21703460D01*
X10412920Y-21703460D02*
X10393872Y-21712984D01*
X10393872Y-21712984D02*
X10346253Y-21712984D01*
X10346253Y-21712984D02*
X10327206Y-21703460D01*
X10327206Y-21703460D02*
X10317682Y-21693936D01*
X10603396Y-21579650D02*
X10603396Y-21712984D01*
X10555777Y-21503460D02*
X10508158Y-21646317D01*
X10508158Y-21646317D02*
X10631968Y-21646317D01*
X10698634Y-21512984D02*
X10698634Y-21551079D01*
X10774825Y-21512984D02*
X10774825Y-21551079D01*
X11070063Y-21789174D02*
X11060539Y-21779650D01*
X11060539Y-21779650D02*
X11041491Y-21751079D01*
X11041491Y-21751079D02*
X11031968Y-21732031D01*
X11031968Y-21732031D02*
X11022444Y-21703460D01*
X11022444Y-21703460D02*
X11012920Y-21655841D01*
X11012920Y-21655841D02*
X11012920Y-21617746D01*
X11012920Y-21617746D02*
X11022444Y-21570127D01*
X11022444Y-21570127D02*
X11031968Y-21541555D01*
X11031968Y-21541555D02*
X11041491Y-21522508D01*
X11041491Y-21522508D02*
X11060539Y-21493936D01*
X11060539Y-21493936D02*
X11070063Y-21484412D01*
X11136730Y-21532031D02*
X11146253Y-21522508D01*
X11146253Y-21522508D02*
X11165301Y-21512984D01*
X11165301Y-21512984D02*
X11212920Y-21512984D01*
X11212920Y-21512984D02*
X11231968Y-21522508D01*
X11231968Y-21522508D02*
X11241491Y-21532031D01*
X11241491Y-21532031D02*
X11251015Y-21551079D01*
X11251015Y-21551079D02*
X11251015Y-21570127D01*
X11251015Y-21570127D02*
X11241491Y-21598698D01*
X11241491Y-21598698D02*
X11127206Y-21712984D01*
X11127206Y-21712984D02*
X11251015Y-21712984D01*
X11489110Y-21712984D02*
X11489110Y-21512984D01*
X11574825Y-21712984D02*
X11574825Y-21608222D01*
X11574825Y-21608222D02*
X11565301Y-21589174D01*
X11565301Y-21589174D02*
X11546253Y-21579650D01*
X11546253Y-21579650D02*
X11517682Y-21579650D01*
X11517682Y-21579650D02*
X11498634Y-21589174D01*
X11498634Y-21589174D02*
X11489110Y-21598698D01*
X11698634Y-21712984D02*
X11679587Y-21703460D01*
X11679587Y-21703460D02*
X11670063Y-21693936D01*
X11670063Y-21693936D02*
X11660539Y-21674889D01*
X11660539Y-21674889D02*
X11660539Y-21617746D01*
X11660539Y-21617746D02*
X11670063Y-21598698D01*
X11670063Y-21598698D02*
X11679587Y-21589174D01*
X11679587Y-21589174D02*
X11698634Y-21579650D01*
X11698634Y-21579650D02*
X11727206Y-21579650D01*
X11727206Y-21579650D02*
X11746253Y-21589174D01*
X11746253Y-21589174D02*
X11755777Y-21598698D01*
X11755777Y-21598698D02*
X11765301Y-21617746D01*
X11765301Y-21617746D02*
X11765301Y-21674889D01*
X11765301Y-21674889D02*
X11755777Y-21693936D01*
X11755777Y-21693936D02*
X11746253Y-21703460D01*
X11746253Y-21703460D02*
X11727206Y-21712984D01*
X11727206Y-21712984D02*
X11698634Y-21712984D01*
X11879587Y-21712984D02*
X11860539Y-21703460D01*
X11860539Y-21703460D02*
X11851015Y-21684412D01*
X11851015Y-21684412D02*
X11851015Y-21512984D01*
X12031968Y-21703460D02*
X12012920Y-21712984D01*
X12012920Y-21712984D02*
X11974825Y-21712984D01*
X11974825Y-21712984D02*
X11955777Y-21703460D01*
X11955777Y-21703460D02*
X11946253Y-21684412D01*
X11946253Y-21684412D02*
X11946253Y-21608222D01*
X11946253Y-21608222D02*
X11955777Y-21589174D01*
X11955777Y-21589174D02*
X11974825Y-21579650D01*
X11974825Y-21579650D02*
X12012920Y-21579650D01*
X12012920Y-21579650D02*
X12031968Y-21589174D01*
X12031968Y-21589174D02*
X12041491Y-21608222D01*
X12041491Y-21608222D02*
X12041491Y-21627270D01*
X12041491Y-21627270D02*
X11946253Y-21646317D01*
X12117682Y-21703460D02*
X12136730Y-21712984D01*
X12136730Y-21712984D02*
X12174825Y-21712984D01*
X12174825Y-21712984D02*
X12193872Y-21703460D01*
X12193872Y-21703460D02*
X12203396Y-21684412D01*
X12203396Y-21684412D02*
X12203396Y-21674889D01*
X12203396Y-21674889D02*
X12193872Y-21655841D01*
X12193872Y-21655841D02*
X12174825Y-21646317D01*
X12174825Y-21646317D02*
X12146253Y-21646317D01*
X12146253Y-21646317D02*
X12127206Y-21636793D01*
X12127206Y-21636793D02*
X12117682Y-21617746D01*
X12117682Y-21617746D02*
X12117682Y-21608222D01*
X12117682Y-21608222D02*
X12127206Y-21589174D01*
X12127206Y-21589174D02*
X12146253Y-21579650D01*
X12146253Y-21579650D02*
X12174825Y-21579650D01*
X12174825Y-21579650D02*
X12193872Y-21589174D01*
X12270063Y-21789174D02*
X12279587Y-21779650D01*
X12279587Y-21779650D02*
X12298634Y-21751079D01*
X12298634Y-21751079D02*
X12308158Y-21732031D01*
X12308158Y-21732031D02*
X12317682Y-21703460D01*
X12317682Y-21703460D02*
X12327206Y-21655841D01*
X12327206Y-21655841D02*
X12327206Y-21617746D01*
X12327206Y-21617746D02*
X12317682Y-21570127D01*
X12317682Y-21570127D02*
X12308158Y-21541555D01*
X12308158Y-21541555D02*
X12298634Y-21522508D01*
X12298634Y-21522508D02*
X12279587Y-21493936D01*
X12279587Y-21493936D02*
X12270063Y-21484412D01*
D10*
X7480502Y-21920502D02*
X7480502Y-21850498D01*
X7410498Y-21850498D01*
X7410498Y-21920502D01*
X7480502Y-21920502D01*
D12*
X7793872Y-21776984D02*
X7812920Y-21776984D01*
X7812920Y-21776984D02*
X7831967Y-21786508D01*
X7831967Y-21786508D02*
X7841491Y-21796031D01*
X7841491Y-21796031D02*
X7851015Y-21815079D01*
X7851015Y-21815079D02*
X7860539Y-21853174D01*
X7860539Y-21853174D02*
X7860539Y-21900793D01*
X7860539Y-21900793D02*
X7851015Y-21938889D01*
X7851015Y-21938889D02*
X7841491Y-21957936D01*
X7841491Y-21957936D02*
X7831967Y-21967460D01*
X7831967Y-21967460D02*
X7812920Y-21976984D01*
X7812920Y-21976984D02*
X7793872Y-21976984D01*
X7793872Y-21976984D02*
X7774824Y-21967460D01*
X7774824Y-21967460D02*
X7765301Y-21957936D01*
X7765301Y-21957936D02*
X7755777Y-21938889D01*
X7755777Y-21938889D02*
X7746253Y-21900793D01*
X7746253Y-21900793D02*
X7746253Y-21853174D01*
X7746253Y-21853174D02*
X7755777Y-21815079D01*
X7755777Y-21815079D02*
X7765301Y-21796031D01*
X7765301Y-21796031D02*
X7774824Y-21786508D01*
X7774824Y-21786508D02*
X7793872Y-21776984D01*
X7946253Y-21957936D02*
X7955777Y-21967460D01*
X7955777Y-21967460D02*
X7946253Y-21976984D01*
X7946253Y-21976984D02*
X7936729Y-21967460D01*
X7936729Y-21967460D02*
X7946253Y-21957936D01*
X7946253Y-21957936D02*
X7946253Y-21976984D01*
X8051015Y-21976984D02*
X8089110Y-21976984D01*
X8089110Y-21976984D02*
X8108158Y-21967460D01*
X8108158Y-21967460D02*
X8117682Y-21957936D01*
X8117682Y-21957936D02*
X8136729Y-21929365D01*
X8136729Y-21929365D02*
X8146253Y-21891270D01*
X8146253Y-21891270D02*
X8146253Y-21815079D01*
X8146253Y-21815079D02*
X8136729Y-21796031D01*
X8136729Y-21796031D02*
X8127205Y-21786508D01*
X8127205Y-21786508D02*
X8108158Y-21776984D01*
X8108158Y-21776984D02*
X8070062Y-21776984D01*
X8070062Y-21776984D02*
X8051015Y-21786508D01*
X8051015Y-21786508D02*
X8041491Y-21796031D01*
X8041491Y-21796031D02*
X8031967Y-21815079D01*
X8031967Y-21815079D02*
X8031967Y-21862698D01*
X8031967Y-21862698D02*
X8041491Y-21881746D01*
X8041491Y-21881746D02*
X8051015Y-21891270D01*
X8051015Y-21891270D02*
X8070062Y-21900793D01*
X8070062Y-21900793D02*
X8108158Y-21900793D01*
X8108158Y-21900793D02*
X8127205Y-21891270D01*
X8127205Y-21891270D02*
X8136729Y-21881746D01*
X8136729Y-21881746D02*
X8146253Y-21862698D01*
X8241491Y-21976984D02*
X8279586Y-21976984D01*
X8279586Y-21976984D02*
X8298634Y-21967460D01*
X8298634Y-21967460D02*
X8308158Y-21957936D01*
X8308158Y-21957936D02*
X8327205Y-21929365D01*
X8327205Y-21929365D02*
X8336729Y-21891270D01*
X8336729Y-21891270D02*
X8336729Y-21815079D01*
X8336729Y-21815079D02*
X8327205Y-21796031D01*
X8327205Y-21796031D02*
X8317682Y-21786508D01*
X8317682Y-21786508D02*
X8298634Y-21776984D01*
X8298634Y-21776984D02*
X8260539Y-21776984D01*
X8260539Y-21776984D02*
X8241491Y-21786508D01*
X8241491Y-21786508D02*
X8231967Y-21796031D01*
X8231967Y-21796031D02*
X8222443Y-21815079D01*
X8222443Y-21815079D02*
X8222443Y-21862698D01*
X8222443Y-21862698D02*
X8231967Y-21881746D01*
X8231967Y-21881746D02*
X8241491Y-21891270D01*
X8241491Y-21891270D02*
X8260539Y-21900793D01*
X8260539Y-21900793D02*
X8298634Y-21900793D01*
X8298634Y-21900793D02*
X8317682Y-21891270D01*
X8317682Y-21891270D02*
X8327205Y-21881746D01*
X8327205Y-21881746D02*
X8336729Y-21862698D01*
X8460539Y-21776984D02*
X8479586Y-21776984D01*
X8479586Y-21776984D02*
X8498634Y-21786508D01*
X8498634Y-21786508D02*
X8508158Y-21796031D01*
X8508158Y-21796031D02*
X8517682Y-21815079D01*
X8517682Y-21815079D02*
X8527205Y-21853174D01*
X8527205Y-21853174D02*
X8527205Y-21900793D01*
X8527205Y-21900793D02*
X8517682Y-21938889D01*
X8517682Y-21938889D02*
X8508158Y-21957936D01*
X8508158Y-21957936D02*
X8498634Y-21967460D01*
X8498634Y-21967460D02*
X8479586Y-21976984D01*
X8479586Y-21976984D02*
X8460539Y-21976984D01*
X8460539Y-21976984D02*
X8441491Y-21967460D01*
X8441491Y-21967460D02*
X8431967Y-21957936D01*
X8431967Y-21957936D02*
X8422444Y-21938889D01*
X8422444Y-21938889D02*
X8412920Y-21900793D01*
X8412920Y-21900793D02*
X8412920Y-21853174D01*
X8412920Y-21853174D02*
X8422444Y-21815079D01*
X8422444Y-21815079D02*
X8431967Y-21796031D01*
X8431967Y-21796031D02*
X8441491Y-21786508D01*
X8441491Y-21786508D02*
X8460539Y-21776984D01*
X8612920Y-21976984D02*
X8612920Y-21843650D01*
X8612920Y-21862698D02*
X8622444Y-21853174D01*
X8622444Y-21853174D02*
X8641491Y-21843650D01*
X8641491Y-21843650D02*
X8670063Y-21843650D01*
X8670063Y-21843650D02*
X8689110Y-21853174D01*
X8689110Y-21853174D02*
X8698634Y-21872222D01*
X8698634Y-21872222D02*
X8698634Y-21976984D01*
X8698634Y-21872222D02*
X8708158Y-21853174D01*
X8708158Y-21853174D02*
X8727205Y-21843650D01*
X8727205Y-21843650D02*
X8755777Y-21843650D01*
X8755777Y-21843650D02*
X8774825Y-21853174D01*
X8774825Y-21853174D02*
X8784348Y-21872222D01*
X8784348Y-21872222D02*
X8784348Y-21976984D01*
X8879586Y-21976984D02*
X8879586Y-21843650D01*
X8879586Y-21862698D02*
X8889110Y-21853174D01*
X8889110Y-21853174D02*
X8908158Y-21843650D01*
X8908158Y-21843650D02*
X8936729Y-21843650D01*
X8936729Y-21843650D02*
X8955777Y-21853174D01*
X8955777Y-21853174D02*
X8965301Y-21872222D01*
X8965301Y-21872222D02*
X8965301Y-21976984D01*
X8965301Y-21872222D02*
X8974825Y-21853174D01*
X8974825Y-21853174D02*
X8993872Y-21843650D01*
X8993872Y-21843650D02*
X9022444Y-21843650D01*
X9022444Y-21843650D02*
X9041491Y-21853174D01*
X9041491Y-21853174D02*
X9051015Y-21872222D01*
X9051015Y-21872222D02*
X9051015Y-21976984D01*
X9441491Y-21767460D02*
X9270063Y-22024603D01*
X9698634Y-21776984D02*
X9717682Y-21776984D01*
X9717682Y-21776984D02*
X9736729Y-21786508D01*
X9736729Y-21786508D02*
X9746253Y-21796031D01*
X9746253Y-21796031D02*
X9755777Y-21815079D01*
X9755777Y-21815079D02*
X9765301Y-21853174D01*
X9765301Y-21853174D02*
X9765301Y-21900793D01*
X9765301Y-21900793D02*
X9755777Y-21938889D01*
X9755777Y-21938889D02*
X9746253Y-21957936D01*
X9746253Y-21957936D02*
X9736729Y-21967460D01*
X9736729Y-21967460D02*
X9717682Y-21976984D01*
X9717682Y-21976984D02*
X9698634Y-21976984D01*
X9698634Y-21976984D02*
X9679587Y-21967460D01*
X9679587Y-21967460D02*
X9670063Y-21957936D01*
X9670063Y-21957936D02*
X9660539Y-21938889D01*
X9660539Y-21938889D02*
X9651015Y-21900793D01*
X9651015Y-21900793D02*
X9651015Y-21853174D01*
X9651015Y-21853174D02*
X9660539Y-21815079D01*
X9660539Y-21815079D02*
X9670063Y-21796031D01*
X9670063Y-21796031D02*
X9679587Y-21786508D01*
X9679587Y-21786508D02*
X9698634Y-21776984D01*
X9851015Y-21957936D02*
X9860539Y-21967460D01*
X9860539Y-21967460D02*
X9851015Y-21976984D01*
X9851015Y-21976984D02*
X9841491Y-21967460D01*
X9841491Y-21967460D02*
X9851015Y-21957936D01*
X9851015Y-21957936D02*
X9851015Y-21976984D01*
X9984348Y-21776984D02*
X10003396Y-21776984D01*
X10003396Y-21776984D02*
X10022444Y-21786508D01*
X10022444Y-21786508D02*
X10031968Y-21796031D01*
X10031968Y-21796031D02*
X10041491Y-21815079D01*
X10041491Y-21815079D02*
X10051015Y-21853174D01*
X10051015Y-21853174D02*
X10051015Y-21900793D01*
X10051015Y-21900793D02*
X10041491Y-21938889D01*
X10041491Y-21938889D02*
X10031968Y-21957936D01*
X10031968Y-21957936D02*
X10022444Y-21967460D01*
X10022444Y-21967460D02*
X10003396Y-21976984D01*
X10003396Y-21976984D02*
X9984348Y-21976984D01*
X9984348Y-21976984D02*
X9965301Y-21967460D01*
X9965301Y-21967460D02*
X9955777Y-21957936D01*
X9955777Y-21957936D02*
X9946253Y-21938889D01*
X9946253Y-21938889D02*
X9936729Y-21900793D01*
X9936729Y-21900793D02*
X9936729Y-21853174D01*
X9936729Y-21853174D02*
X9946253Y-21815079D01*
X9946253Y-21815079D02*
X9955777Y-21796031D01*
X9955777Y-21796031D02*
X9965301Y-21786508D01*
X9965301Y-21786508D02*
X9984348Y-21776984D01*
X10117682Y-21776984D02*
X10241491Y-21776984D01*
X10241491Y-21776984D02*
X10174825Y-21853174D01*
X10174825Y-21853174D02*
X10203396Y-21853174D01*
X10203396Y-21853174D02*
X10222444Y-21862698D01*
X10222444Y-21862698D02*
X10231968Y-21872222D01*
X10231968Y-21872222D02*
X10241491Y-21891270D01*
X10241491Y-21891270D02*
X10241491Y-21938889D01*
X10241491Y-21938889D02*
X10231968Y-21957936D01*
X10231968Y-21957936D02*
X10222444Y-21967460D01*
X10222444Y-21967460D02*
X10203396Y-21976984D01*
X10203396Y-21976984D02*
X10146253Y-21976984D01*
X10146253Y-21976984D02*
X10127206Y-21967460D01*
X10127206Y-21967460D02*
X10117682Y-21957936D01*
X10336729Y-21976984D02*
X10374825Y-21976984D01*
X10374825Y-21976984D02*
X10393872Y-21967460D01*
X10393872Y-21967460D02*
X10403396Y-21957936D01*
X10403396Y-21957936D02*
X10422444Y-21929365D01*
X10422444Y-21929365D02*
X10431968Y-21891270D01*
X10431968Y-21891270D02*
X10431968Y-21815079D01*
X10431968Y-21815079D02*
X10422444Y-21796031D01*
X10422444Y-21796031D02*
X10412920Y-21786508D01*
X10412920Y-21786508D02*
X10393872Y-21776984D01*
X10393872Y-21776984D02*
X10355777Y-21776984D01*
X10355777Y-21776984D02*
X10336729Y-21786508D01*
X10336729Y-21786508D02*
X10327206Y-21796031D01*
X10327206Y-21796031D02*
X10317682Y-21815079D01*
X10317682Y-21815079D02*
X10317682Y-21862698D01*
X10317682Y-21862698D02*
X10327206Y-21881746D01*
X10327206Y-21881746D02*
X10336729Y-21891270D01*
X10336729Y-21891270D02*
X10355777Y-21900793D01*
X10355777Y-21900793D02*
X10393872Y-21900793D01*
X10393872Y-21900793D02*
X10412920Y-21891270D01*
X10412920Y-21891270D02*
X10422444Y-21881746D01*
X10422444Y-21881746D02*
X10431968Y-21862698D01*
X10555777Y-21776984D02*
X10574825Y-21776984D01*
X10574825Y-21776984D02*
X10593872Y-21786508D01*
X10593872Y-21786508D02*
X10603396Y-21796031D01*
X10603396Y-21796031D02*
X10612920Y-21815079D01*
X10612920Y-21815079D02*
X10622444Y-21853174D01*
X10622444Y-21853174D02*
X10622444Y-21900793D01*
X10622444Y-21900793D02*
X10612920Y-21938889D01*
X10612920Y-21938889D02*
X10603396Y-21957936D01*
X10603396Y-21957936D02*
X10593872Y-21967460D01*
X10593872Y-21967460D02*
X10574825Y-21976984D01*
X10574825Y-21976984D02*
X10555777Y-21976984D01*
X10555777Y-21976984D02*
X10536729Y-21967460D01*
X10536729Y-21967460D02*
X10527206Y-21957936D01*
X10527206Y-21957936D02*
X10517682Y-21938889D01*
X10517682Y-21938889D02*
X10508158Y-21900793D01*
X10508158Y-21900793D02*
X10508158Y-21853174D01*
X10508158Y-21853174D02*
X10517682Y-21815079D01*
X10517682Y-21815079D02*
X10527206Y-21796031D01*
X10527206Y-21796031D02*
X10536729Y-21786508D01*
X10536729Y-21786508D02*
X10555777Y-21776984D01*
X10698634Y-21776984D02*
X10698634Y-21815079D01*
X10774825Y-21776984D02*
X10774825Y-21815079D01*
X11070063Y-22053174D02*
X11060539Y-22043650D01*
X11060539Y-22043650D02*
X11041491Y-22015079D01*
X11041491Y-22015079D02*
X11031968Y-21996031D01*
X11031968Y-21996031D02*
X11022444Y-21967460D01*
X11022444Y-21967460D02*
X11012920Y-21919841D01*
X11012920Y-21919841D02*
X11012920Y-21881746D01*
X11012920Y-21881746D02*
X11022444Y-21834127D01*
X11022444Y-21834127D02*
X11031968Y-21805555D01*
X11031968Y-21805555D02*
X11041491Y-21786508D01*
X11041491Y-21786508D02*
X11060539Y-21757936D01*
X11060539Y-21757936D02*
X11070063Y-21748412D01*
X11136730Y-21796031D02*
X11146253Y-21786508D01*
X11146253Y-21786508D02*
X11165301Y-21776984D01*
X11165301Y-21776984D02*
X11212920Y-21776984D01*
X11212920Y-21776984D02*
X11231968Y-21786508D01*
X11231968Y-21786508D02*
X11241491Y-21796031D01*
X11241491Y-21796031D02*
X11251015Y-21815079D01*
X11251015Y-21815079D02*
X11251015Y-21834127D01*
X11251015Y-21834127D02*
X11241491Y-21862698D01*
X11241491Y-21862698D02*
X11127206Y-21976984D01*
X11127206Y-21976984D02*
X11251015Y-21976984D01*
X11489110Y-21976984D02*
X11489110Y-21776984D01*
X11574825Y-21976984D02*
X11574825Y-21872222D01*
X11574825Y-21872222D02*
X11565301Y-21853174D01*
X11565301Y-21853174D02*
X11546253Y-21843650D01*
X11546253Y-21843650D02*
X11517682Y-21843650D01*
X11517682Y-21843650D02*
X11498634Y-21853174D01*
X11498634Y-21853174D02*
X11489110Y-21862698D01*
X11698634Y-21976984D02*
X11679587Y-21967460D01*
X11679587Y-21967460D02*
X11670063Y-21957936D01*
X11670063Y-21957936D02*
X11660539Y-21938889D01*
X11660539Y-21938889D02*
X11660539Y-21881746D01*
X11660539Y-21881746D02*
X11670063Y-21862698D01*
X11670063Y-21862698D02*
X11679587Y-21853174D01*
X11679587Y-21853174D02*
X11698634Y-21843650D01*
X11698634Y-21843650D02*
X11727206Y-21843650D01*
X11727206Y-21843650D02*
X11746253Y-21853174D01*
X11746253Y-21853174D02*
X11755777Y-21862698D01*
X11755777Y-21862698D02*
X11765301Y-21881746D01*
X11765301Y-21881746D02*
X11765301Y-21938889D01*
X11765301Y-21938889D02*
X11755777Y-21957936D01*
X11755777Y-21957936D02*
X11746253Y-21967460D01*
X11746253Y-21967460D02*
X11727206Y-21976984D01*
X11727206Y-21976984D02*
X11698634Y-21976984D01*
X11879587Y-21976984D02*
X11860539Y-21967460D01*
X11860539Y-21967460D02*
X11851015Y-21948412D01*
X11851015Y-21948412D02*
X11851015Y-21776984D01*
X12031968Y-21967460D02*
X12012920Y-21976984D01*
X12012920Y-21976984D02*
X11974825Y-21976984D01*
X11974825Y-21976984D02*
X11955777Y-21967460D01*
X11955777Y-21967460D02*
X11946253Y-21948412D01*
X11946253Y-21948412D02*
X11946253Y-21872222D01*
X11946253Y-21872222D02*
X11955777Y-21853174D01*
X11955777Y-21853174D02*
X11974825Y-21843650D01*
X11974825Y-21843650D02*
X12012920Y-21843650D01*
X12012920Y-21843650D02*
X12031968Y-21853174D01*
X12031968Y-21853174D02*
X12041491Y-21872222D01*
X12041491Y-21872222D02*
X12041491Y-21891270D01*
X12041491Y-21891270D02*
X11946253Y-21910317D01*
X12117682Y-21967460D02*
X12136730Y-21976984D01*
X12136730Y-21976984D02*
X12174825Y-21976984D01*
X12174825Y-21976984D02*
X12193872Y-21967460D01*
X12193872Y-21967460D02*
X12203396Y-21948412D01*
X12203396Y-21948412D02*
X12203396Y-21938889D01*
X12203396Y-21938889D02*
X12193872Y-21919841D01*
X12193872Y-21919841D02*
X12174825Y-21910317D01*
X12174825Y-21910317D02*
X12146253Y-21910317D01*
X12146253Y-21910317D02*
X12127206Y-21900793D01*
X12127206Y-21900793D02*
X12117682Y-21881746D01*
X12117682Y-21881746D02*
X12117682Y-21872222D01*
X12117682Y-21872222D02*
X12127206Y-21853174D01*
X12127206Y-21853174D02*
X12146253Y-21843650D01*
X12146253Y-21843650D02*
X12174825Y-21843650D01*
X12174825Y-21843650D02*
X12193872Y-21853174D01*
X12270063Y-22053174D02*
X12279587Y-22043650D01*
X12279587Y-22043650D02*
X12298634Y-22015079D01*
X12298634Y-22015079D02*
X12308158Y-21996031D01*
X12308158Y-21996031D02*
X12317682Y-21967460D01*
X12317682Y-21967460D02*
X12327206Y-21919841D01*
X12327206Y-21919841D02*
X12327206Y-21881746D01*
X12327206Y-21881746D02*
X12317682Y-21834127D01*
X12317682Y-21834127D02*
X12308158Y-21805555D01*
X12308158Y-21805555D02*
X12298634Y-21786508D01*
X12298634Y-21786508D02*
X12279587Y-21757936D01*
X12279587Y-21757936D02*
X12270063Y-21748412D01*
D10*
X7445000Y-22199500D02*
X7495000Y-22149500D01*
X7445000Y-22099500D01*
X7395000Y-22149500D01*
X7445000Y-22199500D01*
D12*
X7860539Y-22240984D02*
X7746253Y-22240984D01*
X7803396Y-22240984D02*
X7803396Y-22040984D01*
X7803396Y-22040984D02*
X7784348Y-22069555D01*
X7784348Y-22069555D02*
X7765301Y-22088603D01*
X7765301Y-22088603D02*
X7746253Y-22098127D01*
X7946253Y-22221936D02*
X7955777Y-22231460D01*
X7955777Y-22231460D02*
X7946253Y-22240984D01*
X7946253Y-22240984D02*
X7936729Y-22231460D01*
X7936729Y-22231460D02*
X7946253Y-22221936D01*
X7946253Y-22221936D02*
X7946253Y-22240984D01*
X8079586Y-22040984D02*
X8098634Y-22040984D01*
X8098634Y-22040984D02*
X8117682Y-22050508D01*
X8117682Y-22050508D02*
X8127205Y-22060031D01*
X8127205Y-22060031D02*
X8136729Y-22079079D01*
X8136729Y-22079079D02*
X8146253Y-22117174D01*
X8146253Y-22117174D02*
X8146253Y-22164793D01*
X8146253Y-22164793D02*
X8136729Y-22202889D01*
X8136729Y-22202889D02*
X8127205Y-22221936D01*
X8127205Y-22221936D02*
X8117682Y-22231460D01*
X8117682Y-22231460D02*
X8098634Y-22240984D01*
X8098634Y-22240984D02*
X8079586Y-22240984D01*
X8079586Y-22240984D02*
X8060539Y-22231460D01*
X8060539Y-22231460D02*
X8051015Y-22221936D01*
X8051015Y-22221936D02*
X8041491Y-22202889D01*
X8041491Y-22202889D02*
X8031967Y-22164793D01*
X8031967Y-22164793D02*
X8031967Y-22117174D01*
X8031967Y-22117174D02*
X8041491Y-22079079D01*
X8041491Y-22079079D02*
X8051015Y-22060031D01*
X8051015Y-22060031D02*
X8060539Y-22050508D01*
X8060539Y-22050508D02*
X8079586Y-22040984D01*
X8270062Y-22040984D02*
X8289110Y-22040984D01*
X8289110Y-22040984D02*
X8308158Y-22050508D01*
X8308158Y-22050508D02*
X8317682Y-22060031D01*
X8317682Y-22060031D02*
X8327205Y-22079079D01*
X8327205Y-22079079D02*
X8336729Y-22117174D01*
X8336729Y-22117174D02*
X8336729Y-22164793D01*
X8336729Y-22164793D02*
X8327205Y-22202889D01*
X8327205Y-22202889D02*
X8317682Y-22221936D01*
X8317682Y-22221936D02*
X8308158Y-22231460D01*
X8308158Y-22231460D02*
X8289110Y-22240984D01*
X8289110Y-22240984D02*
X8270062Y-22240984D01*
X8270062Y-22240984D02*
X8251015Y-22231460D01*
X8251015Y-22231460D02*
X8241491Y-22221936D01*
X8241491Y-22221936D02*
X8231967Y-22202889D01*
X8231967Y-22202889D02*
X8222443Y-22164793D01*
X8222443Y-22164793D02*
X8222443Y-22117174D01*
X8222443Y-22117174D02*
X8231967Y-22079079D01*
X8231967Y-22079079D02*
X8241491Y-22060031D01*
X8241491Y-22060031D02*
X8251015Y-22050508D01*
X8251015Y-22050508D02*
X8270062Y-22040984D01*
X8460539Y-22040984D02*
X8479586Y-22040984D01*
X8479586Y-22040984D02*
X8498634Y-22050508D01*
X8498634Y-22050508D02*
X8508158Y-22060031D01*
X8508158Y-22060031D02*
X8517682Y-22079079D01*
X8517682Y-22079079D02*
X8527205Y-22117174D01*
X8527205Y-22117174D02*
X8527205Y-22164793D01*
X8527205Y-22164793D02*
X8517682Y-22202889D01*
X8517682Y-22202889D02*
X8508158Y-22221936D01*
X8508158Y-22221936D02*
X8498634Y-22231460D01*
X8498634Y-22231460D02*
X8479586Y-22240984D01*
X8479586Y-22240984D02*
X8460539Y-22240984D01*
X8460539Y-22240984D02*
X8441491Y-22231460D01*
X8441491Y-22231460D02*
X8431967Y-22221936D01*
X8431967Y-22221936D02*
X8422444Y-22202889D01*
X8422444Y-22202889D02*
X8412920Y-22164793D01*
X8412920Y-22164793D02*
X8412920Y-22117174D01*
X8412920Y-22117174D02*
X8422444Y-22079079D01*
X8422444Y-22079079D02*
X8431967Y-22060031D01*
X8431967Y-22060031D02*
X8441491Y-22050508D01*
X8441491Y-22050508D02*
X8460539Y-22040984D01*
X8612920Y-22240984D02*
X8612920Y-22107650D01*
X8612920Y-22126698D02*
X8622444Y-22117174D01*
X8622444Y-22117174D02*
X8641491Y-22107650D01*
X8641491Y-22107650D02*
X8670063Y-22107650D01*
X8670063Y-22107650D02*
X8689110Y-22117174D01*
X8689110Y-22117174D02*
X8698634Y-22136222D01*
X8698634Y-22136222D02*
X8698634Y-22240984D01*
X8698634Y-22136222D02*
X8708158Y-22117174D01*
X8708158Y-22117174D02*
X8727205Y-22107650D01*
X8727205Y-22107650D02*
X8755777Y-22107650D01*
X8755777Y-22107650D02*
X8774825Y-22117174D01*
X8774825Y-22117174D02*
X8784348Y-22136222D01*
X8784348Y-22136222D02*
X8784348Y-22240984D01*
X8879586Y-22240984D02*
X8879586Y-22107650D01*
X8879586Y-22126698D02*
X8889110Y-22117174D01*
X8889110Y-22117174D02*
X8908158Y-22107650D01*
X8908158Y-22107650D02*
X8936729Y-22107650D01*
X8936729Y-22107650D02*
X8955777Y-22117174D01*
X8955777Y-22117174D02*
X8965301Y-22136222D01*
X8965301Y-22136222D02*
X8965301Y-22240984D01*
X8965301Y-22136222D02*
X8974825Y-22117174D01*
X8974825Y-22117174D02*
X8993872Y-22107650D01*
X8993872Y-22107650D02*
X9022444Y-22107650D01*
X9022444Y-22107650D02*
X9041491Y-22117174D01*
X9041491Y-22117174D02*
X9051015Y-22136222D01*
X9051015Y-22136222D02*
X9051015Y-22240984D01*
X9441491Y-22031460D02*
X9270063Y-22288603D01*
X9698634Y-22040984D02*
X9717682Y-22040984D01*
X9717682Y-22040984D02*
X9736729Y-22050508D01*
X9736729Y-22050508D02*
X9746253Y-22060031D01*
X9746253Y-22060031D02*
X9755777Y-22079079D01*
X9755777Y-22079079D02*
X9765301Y-22117174D01*
X9765301Y-22117174D02*
X9765301Y-22164793D01*
X9765301Y-22164793D02*
X9755777Y-22202889D01*
X9755777Y-22202889D02*
X9746253Y-22221936D01*
X9746253Y-22221936D02*
X9736729Y-22231460D01*
X9736729Y-22231460D02*
X9717682Y-22240984D01*
X9717682Y-22240984D02*
X9698634Y-22240984D01*
X9698634Y-22240984D02*
X9679587Y-22231460D01*
X9679587Y-22231460D02*
X9670063Y-22221936D01*
X9670063Y-22221936D02*
X9660539Y-22202889D01*
X9660539Y-22202889D02*
X9651015Y-22164793D01*
X9651015Y-22164793D02*
X9651015Y-22117174D01*
X9651015Y-22117174D02*
X9660539Y-22079079D01*
X9660539Y-22079079D02*
X9670063Y-22060031D01*
X9670063Y-22060031D02*
X9679587Y-22050508D01*
X9679587Y-22050508D02*
X9698634Y-22040984D01*
X9851015Y-22221936D02*
X9860539Y-22231460D01*
X9860539Y-22231460D02*
X9851015Y-22240984D01*
X9851015Y-22240984D02*
X9841491Y-22231460D01*
X9841491Y-22231460D02*
X9851015Y-22221936D01*
X9851015Y-22221936D02*
X9851015Y-22240984D01*
X9984348Y-22040984D02*
X10003396Y-22040984D01*
X10003396Y-22040984D02*
X10022444Y-22050508D01*
X10022444Y-22050508D02*
X10031968Y-22060031D01*
X10031968Y-22060031D02*
X10041491Y-22079079D01*
X10041491Y-22079079D02*
X10051015Y-22117174D01*
X10051015Y-22117174D02*
X10051015Y-22164793D01*
X10051015Y-22164793D02*
X10041491Y-22202889D01*
X10041491Y-22202889D02*
X10031968Y-22221936D01*
X10031968Y-22221936D02*
X10022444Y-22231460D01*
X10022444Y-22231460D02*
X10003396Y-22240984D01*
X10003396Y-22240984D02*
X9984348Y-22240984D01*
X9984348Y-22240984D02*
X9965301Y-22231460D01*
X9965301Y-22231460D02*
X9955777Y-22221936D01*
X9955777Y-22221936D02*
X9946253Y-22202889D01*
X9946253Y-22202889D02*
X9936729Y-22164793D01*
X9936729Y-22164793D02*
X9936729Y-22117174D01*
X9936729Y-22117174D02*
X9946253Y-22079079D01*
X9946253Y-22079079D02*
X9955777Y-22060031D01*
X9955777Y-22060031D02*
X9965301Y-22050508D01*
X9965301Y-22050508D02*
X9984348Y-22040984D01*
X10117682Y-22040984D02*
X10241491Y-22040984D01*
X10241491Y-22040984D02*
X10174825Y-22117174D01*
X10174825Y-22117174D02*
X10203396Y-22117174D01*
X10203396Y-22117174D02*
X10222444Y-22126698D01*
X10222444Y-22126698D02*
X10231968Y-22136222D01*
X10231968Y-22136222D02*
X10241491Y-22155270D01*
X10241491Y-22155270D02*
X10241491Y-22202889D01*
X10241491Y-22202889D02*
X10231968Y-22221936D01*
X10231968Y-22221936D02*
X10222444Y-22231460D01*
X10222444Y-22231460D02*
X10203396Y-22240984D01*
X10203396Y-22240984D02*
X10146253Y-22240984D01*
X10146253Y-22240984D02*
X10127206Y-22231460D01*
X10127206Y-22231460D02*
X10117682Y-22221936D01*
X10336729Y-22240984D02*
X10374825Y-22240984D01*
X10374825Y-22240984D02*
X10393872Y-22231460D01*
X10393872Y-22231460D02*
X10403396Y-22221936D01*
X10403396Y-22221936D02*
X10422444Y-22193365D01*
X10422444Y-22193365D02*
X10431968Y-22155270D01*
X10431968Y-22155270D02*
X10431968Y-22079079D01*
X10431968Y-22079079D02*
X10422444Y-22060031D01*
X10422444Y-22060031D02*
X10412920Y-22050508D01*
X10412920Y-22050508D02*
X10393872Y-22040984D01*
X10393872Y-22040984D02*
X10355777Y-22040984D01*
X10355777Y-22040984D02*
X10336729Y-22050508D01*
X10336729Y-22050508D02*
X10327206Y-22060031D01*
X10327206Y-22060031D02*
X10317682Y-22079079D01*
X10317682Y-22079079D02*
X10317682Y-22126698D01*
X10317682Y-22126698D02*
X10327206Y-22145746D01*
X10327206Y-22145746D02*
X10336729Y-22155270D01*
X10336729Y-22155270D02*
X10355777Y-22164793D01*
X10355777Y-22164793D02*
X10393872Y-22164793D01*
X10393872Y-22164793D02*
X10412920Y-22155270D01*
X10412920Y-22155270D02*
X10422444Y-22145746D01*
X10422444Y-22145746D02*
X10431968Y-22126698D01*
X10603396Y-22107650D02*
X10603396Y-22240984D01*
X10555777Y-22031460D02*
X10508158Y-22174317D01*
X10508158Y-22174317D02*
X10631968Y-22174317D01*
X10698634Y-22040984D02*
X10698634Y-22079079D01*
X10774825Y-22040984D02*
X10774825Y-22079079D01*
X11070063Y-22317174D02*
X11060539Y-22307650D01*
X11060539Y-22307650D02*
X11041491Y-22279079D01*
X11041491Y-22279079D02*
X11031968Y-22260031D01*
X11031968Y-22260031D02*
X11022444Y-22231460D01*
X11022444Y-22231460D02*
X11012920Y-22183841D01*
X11012920Y-22183841D02*
X11012920Y-22145746D01*
X11012920Y-22145746D02*
X11022444Y-22098127D01*
X11022444Y-22098127D02*
X11031968Y-22069555D01*
X11031968Y-22069555D02*
X11041491Y-22050508D01*
X11041491Y-22050508D02*
X11060539Y-22021936D01*
X11060539Y-22021936D02*
X11070063Y-22012412D01*
X11231968Y-22107650D02*
X11231968Y-22240984D01*
X11184349Y-22031460D02*
X11136730Y-22174317D01*
X11136730Y-22174317D02*
X11260539Y-22174317D01*
X11374825Y-22040984D02*
X11393872Y-22040984D01*
X11393872Y-22040984D02*
X11412920Y-22050508D01*
X11412920Y-22050508D02*
X11422444Y-22060031D01*
X11422444Y-22060031D02*
X11431968Y-22079079D01*
X11431968Y-22079079D02*
X11441491Y-22117174D01*
X11441491Y-22117174D02*
X11441491Y-22164793D01*
X11441491Y-22164793D02*
X11431968Y-22202889D01*
X11431968Y-22202889D02*
X11422444Y-22221936D01*
X11422444Y-22221936D02*
X11412920Y-22231460D01*
X11412920Y-22231460D02*
X11393872Y-22240984D01*
X11393872Y-22240984D02*
X11374825Y-22240984D01*
X11374825Y-22240984D02*
X11355777Y-22231460D01*
X11355777Y-22231460D02*
X11346253Y-22221936D01*
X11346253Y-22221936D02*
X11336729Y-22202889D01*
X11336729Y-22202889D02*
X11327206Y-22164793D01*
X11327206Y-22164793D02*
X11327206Y-22117174D01*
X11327206Y-22117174D02*
X11336729Y-22079079D01*
X11336729Y-22079079D02*
X11346253Y-22060031D01*
X11346253Y-22060031D02*
X11355777Y-22050508D01*
X11355777Y-22050508D02*
X11374825Y-22040984D01*
X11679587Y-22240984D02*
X11679587Y-22040984D01*
X11765301Y-22240984D02*
X11765301Y-22136222D01*
X11765301Y-22136222D02*
X11755777Y-22117174D01*
X11755777Y-22117174D02*
X11736730Y-22107650D01*
X11736730Y-22107650D02*
X11708158Y-22107650D01*
X11708158Y-22107650D02*
X11689110Y-22117174D01*
X11689110Y-22117174D02*
X11679587Y-22126698D01*
X11889110Y-22240984D02*
X11870063Y-22231460D01*
X11870063Y-22231460D02*
X11860539Y-22221936D01*
X11860539Y-22221936D02*
X11851015Y-22202889D01*
X11851015Y-22202889D02*
X11851015Y-22145746D01*
X11851015Y-22145746D02*
X11860539Y-22126698D01*
X11860539Y-22126698D02*
X11870063Y-22117174D01*
X11870063Y-22117174D02*
X11889110Y-22107650D01*
X11889110Y-22107650D02*
X11917682Y-22107650D01*
X11917682Y-22107650D02*
X11936730Y-22117174D01*
X11936730Y-22117174D02*
X11946253Y-22126698D01*
X11946253Y-22126698D02*
X11955777Y-22145746D01*
X11955777Y-22145746D02*
X11955777Y-22202889D01*
X11955777Y-22202889D02*
X11946253Y-22221936D01*
X11946253Y-22221936D02*
X11936730Y-22231460D01*
X11936730Y-22231460D02*
X11917682Y-22240984D01*
X11917682Y-22240984D02*
X11889110Y-22240984D01*
X12070063Y-22240984D02*
X12051015Y-22231460D01*
X12051015Y-22231460D02*
X12041491Y-22212412D01*
X12041491Y-22212412D02*
X12041491Y-22040984D01*
X12222444Y-22231460D02*
X12203396Y-22240984D01*
X12203396Y-22240984D02*
X12165301Y-22240984D01*
X12165301Y-22240984D02*
X12146253Y-22231460D01*
X12146253Y-22231460D02*
X12136730Y-22212412D01*
X12136730Y-22212412D02*
X12136730Y-22136222D01*
X12136730Y-22136222D02*
X12146253Y-22117174D01*
X12146253Y-22117174D02*
X12165301Y-22107650D01*
X12165301Y-22107650D02*
X12203396Y-22107650D01*
X12203396Y-22107650D02*
X12222444Y-22117174D01*
X12222444Y-22117174D02*
X12231968Y-22136222D01*
X12231968Y-22136222D02*
X12231968Y-22155270D01*
X12231968Y-22155270D02*
X12136730Y-22174317D01*
X12308158Y-22231460D02*
X12327206Y-22240984D01*
X12327206Y-22240984D02*
X12365301Y-22240984D01*
X12365301Y-22240984D02*
X12384349Y-22231460D01*
X12384349Y-22231460D02*
X12393872Y-22212412D01*
X12393872Y-22212412D02*
X12393872Y-22202889D01*
X12393872Y-22202889D02*
X12384349Y-22183841D01*
X12384349Y-22183841D02*
X12365301Y-22174317D01*
X12365301Y-22174317D02*
X12336730Y-22174317D01*
X12336730Y-22174317D02*
X12317682Y-22164793D01*
X12317682Y-22164793D02*
X12308158Y-22145746D01*
X12308158Y-22145746D02*
X12308158Y-22136222D01*
X12308158Y-22136222D02*
X12317682Y-22117174D01*
X12317682Y-22117174D02*
X12336730Y-22107650D01*
X12336730Y-22107650D02*
X12365301Y-22107650D01*
X12365301Y-22107650D02*
X12384349Y-22117174D01*
X12460539Y-22317174D02*
X12470063Y-22307650D01*
X12470063Y-22307650D02*
X12489111Y-22279079D01*
X12489111Y-22279079D02*
X12498634Y-22260031D01*
X12498634Y-22260031D02*
X12508158Y-22231460D01*
X12508158Y-22231460D02*
X12517682Y-22183841D01*
X12517682Y-22183841D02*
X12517682Y-22145746D01*
X12517682Y-22145746D02*
X12508158Y-22098127D01*
X12508158Y-22098127D02*
X12498634Y-22069555D01*
X12498634Y-22069555D02*
X12489111Y-22050508D01*
X12489111Y-22050508D02*
X12470063Y-22021936D01*
X12470063Y-22021936D02*
X12460539Y-22012412D01*
D13*
X7375000Y-22353500D02*
X7495000Y-22473500D01*
X7495000Y-22353500D02*
X7375000Y-22473500D01*
X7495000Y-22413500D02*
G75*
G02*
X7375000Y-22413500I-60000J0D01*
G01*
X7375000Y-22413500D02*
G75*
G02*
X7495000Y-22413500I60000J0D01*
G01*
D12*
X7860539Y-22504984D02*
X7746253Y-22504984D01*
X7803396Y-22504984D02*
X7803396Y-22304984D01*
X7803396Y-22304984D02*
X7784348Y-22333555D01*
X7784348Y-22333555D02*
X7765301Y-22352603D01*
X7765301Y-22352603D02*
X7746253Y-22362127D01*
X7946253Y-22485936D02*
X7955777Y-22495460D01*
X7955777Y-22495460D02*
X7946253Y-22504984D01*
X7946253Y-22504984D02*
X7936729Y-22495460D01*
X7936729Y-22495460D02*
X7946253Y-22485936D01*
X7946253Y-22485936D02*
X7946253Y-22504984D01*
X8031967Y-22324031D02*
X8041491Y-22314508D01*
X8041491Y-22314508D02*
X8060539Y-22304984D01*
X8060539Y-22304984D02*
X8108158Y-22304984D01*
X8108158Y-22304984D02*
X8127205Y-22314508D01*
X8127205Y-22314508D02*
X8136729Y-22324031D01*
X8136729Y-22324031D02*
X8146253Y-22343079D01*
X8146253Y-22343079D02*
X8146253Y-22362127D01*
X8146253Y-22362127D02*
X8136729Y-22390698D01*
X8136729Y-22390698D02*
X8022443Y-22504984D01*
X8022443Y-22504984D02*
X8146253Y-22504984D01*
X8270062Y-22304984D02*
X8289110Y-22304984D01*
X8289110Y-22304984D02*
X8308158Y-22314508D01*
X8308158Y-22314508D02*
X8317682Y-22324031D01*
X8317682Y-22324031D02*
X8327205Y-22343079D01*
X8327205Y-22343079D02*
X8336729Y-22381174D01*
X8336729Y-22381174D02*
X8336729Y-22428793D01*
X8336729Y-22428793D02*
X8327205Y-22466888D01*
X8327205Y-22466888D02*
X8317682Y-22485936D01*
X8317682Y-22485936D02*
X8308158Y-22495460D01*
X8308158Y-22495460D02*
X8289110Y-22504984D01*
X8289110Y-22504984D02*
X8270062Y-22504984D01*
X8270062Y-22504984D02*
X8251015Y-22495460D01*
X8251015Y-22495460D02*
X8241491Y-22485936D01*
X8241491Y-22485936D02*
X8231967Y-22466888D01*
X8231967Y-22466888D02*
X8222443Y-22428793D01*
X8222443Y-22428793D02*
X8222443Y-22381174D01*
X8222443Y-22381174D02*
X8231967Y-22343079D01*
X8231967Y-22343079D02*
X8241491Y-22324031D01*
X8241491Y-22324031D02*
X8251015Y-22314508D01*
X8251015Y-22314508D02*
X8270062Y-22304984D01*
X8460539Y-22304984D02*
X8479586Y-22304984D01*
X8479586Y-22304984D02*
X8498634Y-22314508D01*
X8498634Y-22314508D02*
X8508158Y-22324031D01*
X8508158Y-22324031D02*
X8517682Y-22343079D01*
X8517682Y-22343079D02*
X8527205Y-22381174D01*
X8527205Y-22381174D02*
X8527205Y-22428793D01*
X8527205Y-22428793D02*
X8517682Y-22466888D01*
X8517682Y-22466888D02*
X8508158Y-22485936D01*
X8508158Y-22485936D02*
X8498634Y-22495460D01*
X8498634Y-22495460D02*
X8479586Y-22504984D01*
X8479586Y-22504984D02*
X8460539Y-22504984D01*
X8460539Y-22504984D02*
X8441491Y-22495460D01*
X8441491Y-22495460D02*
X8431967Y-22485936D01*
X8431967Y-22485936D02*
X8422444Y-22466888D01*
X8422444Y-22466888D02*
X8412920Y-22428793D01*
X8412920Y-22428793D02*
X8412920Y-22381174D01*
X8412920Y-22381174D02*
X8422444Y-22343079D01*
X8422444Y-22343079D02*
X8431967Y-22324031D01*
X8431967Y-22324031D02*
X8441491Y-22314508D01*
X8441491Y-22314508D02*
X8460539Y-22304984D01*
X8612920Y-22504984D02*
X8612920Y-22371650D01*
X8612920Y-22390698D02*
X8622444Y-22381174D01*
X8622444Y-22381174D02*
X8641491Y-22371650D01*
X8641491Y-22371650D02*
X8670063Y-22371650D01*
X8670063Y-22371650D02*
X8689110Y-22381174D01*
X8689110Y-22381174D02*
X8698634Y-22400222D01*
X8698634Y-22400222D02*
X8698634Y-22504984D01*
X8698634Y-22400222D02*
X8708158Y-22381174D01*
X8708158Y-22381174D02*
X8727205Y-22371650D01*
X8727205Y-22371650D02*
X8755777Y-22371650D01*
X8755777Y-22371650D02*
X8774825Y-22381174D01*
X8774825Y-22381174D02*
X8784348Y-22400222D01*
X8784348Y-22400222D02*
X8784348Y-22504984D01*
X8879586Y-22504984D02*
X8879586Y-22371650D01*
X8879586Y-22390698D02*
X8889110Y-22381174D01*
X8889110Y-22381174D02*
X8908158Y-22371650D01*
X8908158Y-22371650D02*
X8936729Y-22371650D01*
X8936729Y-22371650D02*
X8955777Y-22381174D01*
X8955777Y-22381174D02*
X8965301Y-22400222D01*
X8965301Y-22400222D02*
X8965301Y-22504984D01*
X8965301Y-22400222D02*
X8974825Y-22381174D01*
X8974825Y-22381174D02*
X8993872Y-22371650D01*
X8993872Y-22371650D02*
X9022444Y-22371650D01*
X9022444Y-22371650D02*
X9041491Y-22381174D01*
X9041491Y-22381174D02*
X9051015Y-22400222D01*
X9051015Y-22400222D02*
X9051015Y-22504984D01*
X9441491Y-22295460D02*
X9270063Y-22552603D01*
X9698634Y-22304984D02*
X9717682Y-22304984D01*
X9717682Y-22304984D02*
X9736729Y-22314508D01*
X9736729Y-22314508D02*
X9746253Y-22324031D01*
X9746253Y-22324031D02*
X9755777Y-22343079D01*
X9755777Y-22343079D02*
X9765301Y-22381174D01*
X9765301Y-22381174D02*
X9765301Y-22428793D01*
X9765301Y-22428793D02*
X9755777Y-22466888D01*
X9755777Y-22466888D02*
X9746253Y-22485936D01*
X9746253Y-22485936D02*
X9736729Y-22495460D01*
X9736729Y-22495460D02*
X9717682Y-22504984D01*
X9717682Y-22504984D02*
X9698634Y-22504984D01*
X9698634Y-22504984D02*
X9679587Y-22495460D01*
X9679587Y-22495460D02*
X9670063Y-22485936D01*
X9670063Y-22485936D02*
X9660539Y-22466888D01*
X9660539Y-22466888D02*
X9651015Y-22428793D01*
X9651015Y-22428793D02*
X9651015Y-22381174D01*
X9651015Y-22381174D02*
X9660539Y-22343079D01*
X9660539Y-22343079D02*
X9670063Y-22324031D01*
X9670063Y-22324031D02*
X9679587Y-22314508D01*
X9679587Y-22314508D02*
X9698634Y-22304984D01*
X9851015Y-22485936D02*
X9860539Y-22495460D01*
X9860539Y-22495460D02*
X9851015Y-22504984D01*
X9851015Y-22504984D02*
X9841491Y-22495460D01*
X9841491Y-22495460D02*
X9851015Y-22485936D01*
X9851015Y-22485936D02*
X9851015Y-22504984D01*
X9984348Y-22304984D02*
X10003396Y-22304984D01*
X10003396Y-22304984D02*
X10022444Y-22314508D01*
X10022444Y-22314508D02*
X10031968Y-22324031D01*
X10031968Y-22324031D02*
X10041491Y-22343079D01*
X10041491Y-22343079D02*
X10051015Y-22381174D01*
X10051015Y-22381174D02*
X10051015Y-22428793D01*
X10051015Y-22428793D02*
X10041491Y-22466888D01*
X10041491Y-22466888D02*
X10031968Y-22485936D01*
X10031968Y-22485936D02*
X10022444Y-22495460D01*
X10022444Y-22495460D02*
X10003396Y-22504984D01*
X10003396Y-22504984D02*
X9984348Y-22504984D01*
X9984348Y-22504984D02*
X9965301Y-22495460D01*
X9965301Y-22495460D02*
X9955777Y-22485936D01*
X9955777Y-22485936D02*
X9946253Y-22466888D01*
X9946253Y-22466888D02*
X9936729Y-22428793D01*
X9936729Y-22428793D02*
X9936729Y-22381174D01*
X9936729Y-22381174D02*
X9946253Y-22343079D01*
X9946253Y-22343079D02*
X9955777Y-22324031D01*
X9955777Y-22324031D02*
X9965301Y-22314508D01*
X9965301Y-22314508D02*
X9984348Y-22304984D01*
X10222444Y-22371650D02*
X10222444Y-22504984D01*
X10174825Y-22295460D02*
X10127206Y-22438317D01*
X10127206Y-22438317D02*
X10251015Y-22438317D01*
X10308158Y-22304984D02*
X10441491Y-22304984D01*
X10441491Y-22304984D02*
X10355777Y-22504984D01*
X10508158Y-22324031D02*
X10517682Y-22314508D01*
X10517682Y-22314508D02*
X10536729Y-22304984D01*
X10536729Y-22304984D02*
X10584349Y-22304984D01*
X10584349Y-22304984D02*
X10603396Y-22314508D01*
X10603396Y-22314508D02*
X10612920Y-22324031D01*
X10612920Y-22324031D02*
X10622444Y-22343079D01*
X10622444Y-22343079D02*
X10622444Y-22362127D01*
X10622444Y-22362127D02*
X10612920Y-22390698D01*
X10612920Y-22390698D02*
X10498634Y-22504984D01*
X10498634Y-22504984D02*
X10622444Y-22504984D01*
X10698634Y-22304984D02*
X10698634Y-22343079D01*
X10774825Y-22304984D02*
X10774825Y-22343079D01*
X11070063Y-22581174D02*
X11060539Y-22571650D01*
X11060539Y-22571650D02*
X11041491Y-22543079D01*
X11041491Y-22543079D02*
X11031968Y-22524031D01*
X11031968Y-22524031D02*
X11022444Y-22495460D01*
X11022444Y-22495460D02*
X11012920Y-22447841D01*
X11012920Y-22447841D02*
X11012920Y-22409746D01*
X11012920Y-22409746D02*
X11022444Y-22362127D01*
X11022444Y-22362127D02*
X11031968Y-22333555D01*
X11031968Y-22333555D02*
X11041491Y-22314508D01*
X11041491Y-22314508D02*
X11060539Y-22285936D01*
X11060539Y-22285936D02*
X11070063Y-22276412D01*
X11136730Y-22324031D02*
X11146253Y-22314508D01*
X11146253Y-22314508D02*
X11165301Y-22304984D01*
X11165301Y-22304984D02*
X11212920Y-22304984D01*
X11212920Y-22304984D02*
X11231968Y-22314508D01*
X11231968Y-22314508D02*
X11241491Y-22324031D01*
X11241491Y-22324031D02*
X11251015Y-22343079D01*
X11251015Y-22343079D02*
X11251015Y-22362127D01*
X11251015Y-22362127D02*
X11241491Y-22390698D01*
X11241491Y-22390698D02*
X11127206Y-22504984D01*
X11127206Y-22504984D02*
X11251015Y-22504984D01*
X11489110Y-22504984D02*
X11489110Y-22304984D01*
X11574825Y-22504984D02*
X11574825Y-22400222D01*
X11574825Y-22400222D02*
X11565301Y-22381174D01*
X11565301Y-22381174D02*
X11546253Y-22371650D01*
X11546253Y-22371650D02*
X11517682Y-22371650D01*
X11517682Y-22371650D02*
X11498634Y-22381174D01*
X11498634Y-22381174D02*
X11489110Y-22390698D01*
X11698634Y-22504984D02*
X11679587Y-22495460D01*
X11679587Y-22495460D02*
X11670063Y-22485936D01*
X11670063Y-22485936D02*
X11660539Y-22466888D01*
X11660539Y-22466888D02*
X11660539Y-22409746D01*
X11660539Y-22409746D02*
X11670063Y-22390698D01*
X11670063Y-22390698D02*
X11679587Y-22381174D01*
X11679587Y-22381174D02*
X11698634Y-22371650D01*
X11698634Y-22371650D02*
X11727206Y-22371650D01*
X11727206Y-22371650D02*
X11746253Y-22381174D01*
X11746253Y-22381174D02*
X11755777Y-22390698D01*
X11755777Y-22390698D02*
X11765301Y-22409746D01*
X11765301Y-22409746D02*
X11765301Y-22466888D01*
X11765301Y-22466888D02*
X11755777Y-22485936D01*
X11755777Y-22485936D02*
X11746253Y-22495460D01*
X11746253Y-22495460D02*
X11727206Y-22504984D01*
X11727206Y-22504984D02*
X11698634Y-22504984D01*
X11879587Y-22504984D02*
X11860539Y-22495460D01*
X11860539Y-22495460D02*
X11851015Y-22476412D01*
X11851015Y-22476412D02*
X11851015Y-22304984D01*
X12031968Y-22495460D02*
X12012920Y-22504984D01*
X12012920Y-22504984D02*
X11974825Y-22504984D01*
X11974825Y-22504984D02*
X11955777Y-22495460D01*
X11955777Y-22495460D02*
X11946253Y-22476412D01*
X11946253Y-22476412D02*
X11946253Y-22400222D01*
X11946253Y-22400222D02*
X11955777Y-22381174D01*
X11955777Y-22381174D02*
X11974825Y-22371650D01*
X11974825Y-22371650D02*
X12012920Y-22371650D01*
X12012920Y-22371650D02*
X12031968Y-22381174D01*
X12031968Y-22381174D02*
X12041491Y-22400222D01*
X12041491Y-22400222D02*
X12041491Y-22419269D01*
X12041491Y-22419269D02*
X11946253Y-22438317D01*
X12117682Y-22495460D02*
X12136730Y-22504984D01*
X12136730Y-22504984D02*
X12174825Y-22504984D01*
X12174825Y-22504984D02*
X12193872Y-22495460D01*
X12193872Y-22495460D02*
X12203396Y-22476412D01*
X12203396Y-22476412D02*
X12203396Y-22466888D01*
X12203396Y-22466888D02*
X12193872Y-22447841D01*
X12193872Y-22447841D02*
X12174825Y-22438317D01*
X12174825Y-22438317D02*
X12146253Y-22438317D01*
X12146253Y-22438317D02*
X12127206Y-22428793D01*
X12127206Y-22428793D02*
X12117682Y-22409746D01*
X12117682Y-22409746D02*
X12117682Y-22400222D01*
X12117682Y-22400222D02*
X12127206Y-22381174D01*
X12127206Y-22381174D02*
X12146253Y-22371650D01*
X12146253Y-22371650D02*
X12174825Y-22371650D01*
X12174825Y-22371650D02*
X12193872Y-22381174D01*
X12270063Y-22581174D02*
X12279587Y-22571650D01*
X12279587Y-22571650D02*
X12298634Y-22543079D01*
X12298634Y-22543079D02*
X12308158Y-22524031D01*
X12308158Y-22524031D02*
X12317682Y-22495460D01*
X12317682Y-22495460D02*
X12327206Y-22447841D01*
X12327206Y-22447841D02*
X12327206Y-22409746D01*
X12327206Y-22409746D02*
X12317682Y-22362127D01*
X12317682Y-22362127D02*
X12308158Y-22333555D01*
X12308158Y-22333555D02*
X12298634Y-22314508D01*
X12298634Y-22314508D02*
X12279587Y-22285936D01*
X12279587Y-22285936D02*
X12270063Y-22276412D01*
D14*
X7365000Y-22612500D02*
X7495000Y-22742500D01*
X7495000Y-22612500D02*
X7365000Y-22742500D01*
X7430000Y-22612500D02*
X7430000Y-22742500D01*
X7365000Y-22677500D02*
X7495000Y-22677500D01*
D12*
X7860539Y-22768984D02*
X7746253Y-22768984D01*
X7803396Y-22768984D02*
X7803396Y-22568984D01*
X7803396Y-22568984D02*
X7784348Y-22597555D01*
X7784348Y-22597555D02*
X7765301Y-22616603D01*
X7765301Y-22616603D02*
X7746253Y-22626127D01*
X7946253Y-22749936D02*
X7955777Y-22759460D01*
X7955777Y-22759460D02*
X7946253Y-22768984D01*
X7946253Y-22768984D02*
X7936729Y-22759460D01*
X7936729Y-22759460D02*
X7946253Y-22749936D01*
X7946253Y-22749936D02*
X7946253Y-22768984D01*
X8022443Y-22568984D02*
X8146253Y-22568984D01*
X8146253Y-22568984D02*
X8079586Y-22645174D01*
X8079586Y-22645174D02*
X8108158Y-22645174D01*
X8108158Y-22645174D02*
X8127205Y-22654698D01*
X8127205Y-22654698D02*
X8136729Y-22664222D01*
X8136729Y-22664222D02*
X8146253Y-22683269D01*
X8146253Y-22683269D02*
X8146253Y-22730888D01*
X8146253Y-22730888D02*
X8136729Y-22749936D01*
X8136729Y-22749936D02*
X8127205Y-22759460D01*
X8127205Y-22759460D02*
X8108158Y-22768984D01*
X8108158Y-22768984D02*
X8051015Y-22768984D01*
X8051015Y-22768984D02*
X8031967Y-22759460D01*
X8031967Y-22759460D02*
X8022443Y-22749936D01*
X8270062Y-22568984D02*
X8289110Y-22568984D01*
X8289110Y-22568984D02*
X8308158Y-22578508D01*
X8308158Y-22578508D02*
X8317682Y-22588031D01*
X8317682Y-22588031D02*
X8327205Y-22607079D01*
X8327205Y-22607079D02*
X8336729Y-22645174D01*
X8336729Y-22645174D02*
X8336729Y-22692793D01*
X8336729Y-22692793D02*
X8327205Y-22730888D01*
X8327205Y-22730888D02*
X8317682Y-22749936D01*
X8317682Y-22749936D02*
X8308158Y-22759460D01*
X8308158Y-22759460D02*
X8289110Y-22768984D01*
X8289110Y-22768984D02*
X8270062Y-22768984D01*
X8270062Y-22768984D02*
X8251015Y-22759460D01*
X8251015Y-22759460D02*
X8241491Y-22749936D01*
X8241491Y-22749936D02*
X8231967Y-22730888D01*
X8231967Y-22730888D02*
X8222443Y-22692793D01*
X8222443Y-22692793D02*
X8222443Y-22645174D01*
X8222443Y-22645174D02*
X8231967Y-22607079D01*
X8231967Y-22607079D02*
X8241491Y-22588031D01*
X8241491Y-22588031D02*
X8251015Y-22578508D01*
X8251015Y-22578508D02*
X8270062Y-22568984D01*
X8460539Y-22568984D02*
X8479586Y-22568984D01*
X8479586Y-22568984D02*
X8498634Y-22578508D01*
X8498634Y-22578508D02*
X8508158Y-22588031D01*
X8508158Y-22588031D02*
X8517682Y-22607079D01*
X8517682Y-22607079D02*
X8527205Y-22645174D01*
X8527205Y-22645174D02*
X8527205Y-22692793D01*
X8527205Y-22692793D02*
X8517682Y-22730888D01*
X8517682Y-22730888D02*
X8508158Y-22749936D01*
X8508158Y-22749936D02*
X8498634Y-22759460D01*
X8498634Y-22759460D02*
X8479586Y-22768984D01*
X8479586Y-22768984D02*
X8460539Y-22768984D01*
X8460539Y-22768984D02*
X8441491Y-22759460D01*
X8441491Y-22759460D02*
X8431967Y-22749936D01*
X8431967Y-22749936D02*
X8422444Y-22730888D01*
X8422444Y-22730888D02*
X8412920Y-22692793D01*
X8412920Y-22692793D02*
X8412920Y-22645174D01*
X8412920Y-22645174D02*
X8422444Y-22607079D01*
X8422444Y-22607079D02*
X8431967Y-22588031D01*
X8431967Y-22588031D02*
X8441491Y-22578508D01*
X8441491Y-22578508D02*
X8460539Y-22568984D01*
X8612920Y-22768984D02*
X8612920Y-22635650D01*
X8612920Y-22654698D02*
X8622444Y-22645174D01*
X8622444Y-22645174D02*
X8641491Y-22635650D01*
X8641491Y-22635650D02*
X8670063Y-22635650D01*
X8670063Y-22635650D02*
X8689110Y-22645174D01*
X8689110Y-22645174D02*
X8698634Y-22664222D01*
X8698634Y-22664222D02*
X8698634Y-22768984D01*
X8698634Y-22664222D02*
X8708158Y-22645174D01*
X8708158Y-22645174D02*
X8727205Y-22635650D01*
X8727205Y-22635650D02*
X8755777Y-22635650D01*
X8755777Y-22635650D02*
X8774825Y-22645174D01*
X8774825Y-22645174D02*
X8784348Y-22664222D01*
X8784348Y-22664222D02*
X8784348Y-22768984D01*
X8879586Y-22768984D02*
X8879586Y-22635650D01*
X8879586Y-22654698D02*
X8889110Y-22645174D01*
X8889110Y-22645174D02*
X8908158Y-22635650D01*
X8908158Y-22635650D02*
X8936729Y-22635650D01*
X8936729Y-22635650D02*
X8955777Y-22645174D01*
X8955777Y-22645174D02*
X8965301Y-22664222D01*
X8965301Y-22664222D02*
X8965301Y-22768984D01*
X8965301Y-22664222D02*
X8974825Y-22645174D01*
X8974825Y-22645174D02*
X8993872Y-22635650D01*
X8993872Y-22635650D02*
X9022444Y-22635650D01*
X9022444Y-22635650D02*
X9041491Y-22645174D01*
X9041491Y-22645174D02*
X9051015Y-22664222D01*
X9051015Y-22664222D02*
X9051015Y-22768984D01*
X9441491Y-22559460D02*
X9270063Y-22816603D01*
X9698634Y-22568984D02*
X9717682Y-22568984D01*
X9717682Y-22568984D02*
X9736729Y-22578508D01*
X9736729Y-22578508D02*
X9746253Y-22588031D01*
X9746253Y-22588031D02*
X9755777Y-22607079D01*
X9755777Y-22607079D02*
X9765301Y-22645174D01*
X9765301Y-22645174D02*
X9765301Y-22692793D01*
X9765301Y-22692793D02*
X9755777Y-22730888D01*
X9755777Y-22730888D02*
X9746253Y-22749936D01*
X9746253Y-22749936D02*
X9736729Y-22759460D01*
X9736729Y-22759460D02*
X9717682Y-22768984D01*
X9717682Y-22768984D02*
X9698634Y-22768984D01*
X9698634Y-22768984D02*
X9679587Y-22759460D01*
X9679587Y-22759460D02*
X9670063Y-22749936D01*
X9670063Y-22749936D02*
X9660539Y-22730888D01*
X9660539Y-22730888D02*
X9651015Y-22692793D01*
X9651015Y-22692793D02*
X9651015Y-22645174D01*
X9651015Y-22645174D02*
X9660539Y-22607079D01*
X9660539Y-22607079D02*
X9670063Y-22588031D01*
X9670063Y-22588031D02*
X9679587Y-22578508D01*
X9679587Y-22578508D02*
X9698634Y-22568984D01*
X9851015Y-22749936D02*
X9860539Y-22759460D01*
X9860539Y-22759460D02*
X9851015Y-22768984D01*
X9851015Y-22768984D02*
X9841491Y-22759460D01*
X9841491Y-22759460D02*
X9851015Y-22749936D01*
X9851015Y-22749936D02*
X9851015Y-22768984D01*
X9984348Y-22568984D02*
X10003396Y-22568984D01*
X10003396Y-22568984D02*
X10022444Y-22578508D01*
X10022444Y-22578508D02*
X10031968Y-22588031D01*
X10031968Y-22588031D02*
X10041491Y-22607079D01*
X10041491Y-22607079D02*
X10051015Y-22645174D01*
X10051015Y-22645174D02*
X10051015Y-22692793D01*
X10051015Y-22692793D02*
X10041491Y-22730888D01*
X10041491Y-22730888D02*
X10031968Y-22749936D01*
X10031968Y-22749936D02*
X10022444Y-22759460D01*
X10022444Y-22759460D02*
X10003396Y-22768984D01*
X10003396Y-22768984D02*
X9984348Y-22768984D01*
X9984348Y-22768984D02*
X9965301Y-22759460D01*
X9965301Y-22759460D02*
X9955777Y-22749936D01*
X9955777Y-22749936D02*
X9946253Y-22730888D01*
X9946253Y-22730888D02*
X9936729Y-22692793D01*
X9936729Y-22692793D02*
X9936729Y-22645174D01*
X9936729Y-22645174D02*
X9946253Y-22607079D01*
X9946253Y-22607079D02*
X9955777Y-22588031D01*
X9955777Y-22588031D02*
X9965301Y-22578508D01*
X9965301Y-22578508D02*
X9984348Y-22568984D01*
X10231968Y-22568984D02*
X10136729Y-22568984D01*
X10136729Y-22568984D02*
X10127206Y-22664222D01*
X10127206Y-22664222D02*
X10136729Y-22654698D01*
X10136729Y-22654698D02*
X10155777Y-22645174D01*
X10155777Y-22645174D02*
X10203396Y-22645174D01*
X10203396Y-22645174D02*
X10222444Y-22654698D01*
X10222444Y-22654698D02*
X10231968Y-22664222D01*
X10231968Y-22664222D02*
X10241491Y-22683269D01*
X10241491Y-22683269D02*
X10241491Y-22730888D01*
X10241491Y-22730888D02*
X10231968Y-22749936D01*
X10231968Y-22749936D02*
X10222444Y-22759460D01*
X10222444Y-22759460D02*
X10203396Y-22768984D01*
X10203396Y-22768984D02*
X10155777Y-22768984D01*
X10155777Y-22768984D02*
X10136729Y-22759460D01*
X10136729Y-22759460D02*
X10127206Y-22749936D01*
X10431968Y-22768984D02*
X10317682Y-22768984D01*
X10374825Y-22768984D02*
X10374825Y-22568984D01*
X10374825Y-22568984D02*
X10355777Y-22597555D01*
X10355777Y-22597555D02*
X10336729Y-22616603D01*
X10336729Y-22616603D02*
X10317682Y-22626127D01*
X10508158Y-22588031D02*
X10517682Y-22578508D01*
X10517682Y-22578508D02*
X10536729Y-22568984D01*
X10536729Y-22568984D02*
X10584349Y-22568984D01*
X10584349Y-22568984D02*
X10603396Y-22578508D01*
X10603396Y-22578508D02*
X10612920Y-22588031D01*
X10612920Y-22588031D02*
X10622444Y-22607079D01*
X10622444Y-22607079D02*
X10622444Y-22626127D01*
X10622444Y-22626127D02*
X10612920Y-22654698D01*
X10612920Y-22654698D02*
X10498634Y-22768984D01*
X10498634Y-22768984D02*
X10622444Y-22768984D01*
X10698634Y-22568984D02*
X10698634Y-22607079D01*
X10774825Y-22568984D02*
X10774825Y-22607079D01*
X11070063Y-22845174D02*
X11060539Y-22835650D01*
X11060539Y-22835650D02*
X11041491Y-22807079D01*
X11041491Y-22807079D02*
X11031968Y-22788031D01*
X11031968Y-22788031D02*
X11022444Y-22759460D01*
X11022444Y-22759460D02*
X11012920Y-22711841D01*
X11012920Y-22711841D02*
X11012920Y-22673746D01*
X11012920Y-22673746D02*
X11022444Y-22626127D01*
X11022444Y-22626127D02*
X11031968Y-22597555D01*
X11031968Y-22597555D02*
X11041491Y-22578508D01*
X11041491Y-22578508D02*
X11060539Y-22549936D01*
X11060539Y-22549936D02*
X11070063Y-22540412D01*
X11136730Y-22588031D02*
X11146253Y-22578508D01*
X11146253Y-22578508D02*
X11165301Y-22568984D01*
X11165301Y-22568984D02*
X11212920Y-22568984D01*
X11212920Y-22568984D02*
X11231968Y-22578508D01*
X11231968Y-22578508D02*
X11241491Y-22588031D01*
X11241491Y-22588031D02*
X11251015Y-22607079D01*
X11251015Y-22607079D02*
X11251015Y-22626127D01*
X11251015Y-22626127D02*
X11241491Y-22654698D01*
X11241491Y-22654698D02*
X11127206Y-22768984D01*
X11127206Y-22768984D02*
X11251015Y-22768984D01*
X11489110Y-22768984D02*
X11489110Y-22568984D01*
X11574825Y-22768984D02*
X11574825Y-22664222D01*
X11574825Y-22664222D02*
X11565301Y-22645174D01*
X11565301Y-22645174D02*
X11546253Y-22635650D01*
X11546253Y-22635650D02*
X11517682Y-22635650D01*
X11517682Y-22635650D02*
X11498634Y-22645174D01*
X11498634Y-22645174D02*
X11489110Y-22654698D01*
X11698634Y-22768984D02*
X11679587Y-22759460D01*
X11679587Y-22759460D02*
X11670063Y-22749936D01*
X11670063Y-22749936D02*
X11660539Y-22730888D01*
X11660539Y-22730888D02*
X11660539Y-22673746D01*
X11660539Y-22673746D02*
X11670063Y-22654698D01*
X11670063Y-22654698D02*
X11679587Y-22645174D01*
X11679587Y-22645174D02*
X11698634Y-22635650D01*
X11698634Y-22635650D02*
X11727206Y-22635650D01*
X11727206Y-22635650D02*
X11746253Y-22645174D01*
X11746253Y-22645174D02*
X11755777Y-22654698D01*
X11755777Y-22654698D02*
X11765301Y-22673746D01*
X11765301Y-22673746D02*
X11765301Y-22730888D01*
X11765301Y-22730888D02*
X11755777Y-22749936D01*
X11755777Y-22749936D02*
X11746253Y-22759460D01*
X11746253Y-22759460D02*
X11727206Y-22768984D01*
X11727206Y-22768984D02*
X11698634Y-22768984D01*
X11879587Y-22768984D02*
X11860539Y-22759460D01*
X11860539Y-22759460D02*
X11851015Y-22740412D01*
X11851015Y-22740412D02*
X11851015Y-22568984D01*
X12031968Y-22759460D02*
X12012920Y-22768984D01*
X12012920Y-22768984D02*
X11974825Y-22768984D01*
X11974825Y-22768984D02*
X11955777Y-22759460D01*
X11955777Y-22759460D02*
X11946253Y-22740412D01*
X11946253Y-22740412D02*
X11946253Y-22664222D01*
X11946253Y-22664222D02*
X11955777Y-22645174D01*
X11955777Y-22645174D02*
X11974825Y-22635650D01*
X11974825Y-22635650D02*
X12012920Y-22635650D01*
X12012920Y-22635650D02*
X12031968Y-22645174D01*
X12031968Y-22645174D02*
X12041491Y-22664222D01*
X12041491Y-22664222D02*
X12041491Y-22683269D01*
X12041491Y-22683269D02*
X11946253Y-22702317D01*
X12117682Y-22759460D02*
X12136730Y-22768984D01*
X12136730Y-22768984D02*
X12174825Y-22768984D01*
X12174825Y-22768984D02*
X12193872Y-22759460D01*
X12193872Y-22759460D02*
X12203396Y-22740412D01*
X12203396Y-22740412D02*
X12203396Y-22730888D01*
X12203396Y-22730888D02*
X12193872Y-22711841D01*
X12193872Y-22711841D02*
X12174825Y-22702317D01*
X12174825Y-22702317D02*
X12146253Y-22702317D01*
X12146253Y-22702317D02*
X12127206Y-22692793D01*
X12127206Y-22692793D02*
X12117682Y-22673746D01*
X12117682Y-22673746D02*
X12117682Y-22664222D01*
X12117682Y-22664222D02*
X12127206Y-22645174D01*
X12127206Y-22645174D02*
X12146253Y-22635650D01*
X12146253Y-22635650D02*
X12174825Y-22635650D01*
X12174825Y-22635650D02*
X12193872Y-22645174D01*
X12270063Y-22845174D02*
X12279587Y-22835650D01*
X12279587Y-22835650D02*
X12298634Y-22807079D01*
X12298634Y-22807079D02*
X12308158Y-22788031D01*
X12308158Y-22788031D02*
X12317682Y-22759460D01*
X12317682Y-22759460D02*
X12327206Y-22711841D01*
X12327206Y-22711841D02*
X12327206Y-22673746D01*
X12327206Y-22673746D02*
X12317682Y-22626127D01*
X12317682Y-22626127D02*
X12308158Y-22597555D01*
X12308158Y-22597555D02*
X12298634Y-22578508D01*
X12298634Y-22578508D02*
X12279587Y-22549936D01*
X12279587Y-22549936D02*
X12270063Y-22540412D01*
D15*
X7345000Y-22866500D02*
X7495000Y-23016500D01*
X7495000Y-22866500D02*
X7345000Y-23016500D01*
X7473033Y-22994533D02*
X7473033Y-22888466D01*
X7366966Y-22888466D01*
X7366966Y-22994533D01*
X7473033Y-22994533D01*
D12*
X7860539Y-23032984D02*
X7746253Y-23032984D01*
X7803396Y-23032984D02*
X7803396Y-22832984D01*
X7803396Y-22832984D02*
X7784348Y-22861555D01*
X7784348Y-22861555D02*
X7765301Y-22880603D01*
X7765301Y-22880603D02*
X7746253Y-22890127D01*
X7946253Y-23013936D02*
X7955777Y-23023460D01*
X7955777Y-23023460D02*
X7946253Y-23032984D01*
X7946253Y-23032984D02*
X7936729Y-23023460D01*
X7936729Y-23023460D02*
X7946253Y-23013936D01*
X7946253Y-23013936D02*
X7946253Y-23032984D01*
X8136729Y-22832984D02*
X8041491Y-22832984D01*
X8041491Y-22832984D02*
X8031967Y-22928222D01*
X8031967Y-22928222D02*
X8041491Y-22918698D01*
X8041491Y-22918698D02*
X8060539Y-22909174D01*
X8060539Y-22909174D02*
X8108158Y-22909174D01*
X8108158Y-22909174D02*
X8127205Y-22918698D01*
X8127205Y-22918698D02*
X8136729Y-22928222D01*
X8136729Y-22928222D02*
X8146253Y-22947269D01*
X8146253Y-22947269D02*
X8146253Y-22994888D01*
X8146253Y-22994888D02*
X8136729Y-23013936D01*
X8136729Y-23013936D02*
X8127205Y-23023460D01*
X8127205Y-23023460D02*
X8108158Y-23032984D01*
X8108158Y-23032984D02*
X8060539Y-23032984D01*
X8060539Y-23032984D02*
X8041491Y-23023460D01*
X8041491Y-23023460D02*
X8031967Y-23013936D01*
X8270062Y-22832984D02*
X8289110Y-22832984D01*
X8289110Y-22832984D02*
X8308158Y-22842508D01*
X8308158Y-22842508D02*
X8317682Y-22852031D01*
X8317682Y-22852031D02*
X8327205Y-22871079D01*
X8327205Y-22871079D02*
X8336729Y-22909174D01*
X8336729Y-22909174D02*
X8336729Y-22956793D01*
X8336729Y-22956793D02*
X8327205Y-22994888D01*
X8327205Y-22994888D02*
X8317682Y-23013936D01*
X8317682Y-23013936D02*
X8308158Y-23023460D01*
X8308158Y-23023460D02*
X8289110Y-23032984D01*
X8289110Y-23032984D02*
X8270062Y-23032984D01*
X8270062Y-23032984D02*
X8251015Y-23023460D01*
X8251015Y-23023460D02*
X8241491Y-23013936D01*
X8241491Y-23013936D02*
X8231967Y-22994888D01*
X8231967Y-22994888D02*
X8222443Y-22956793D01*
X8222443Y-22956793D02*
X8222443Y-22909174D01*
X8222443Y-22909174D02*
X8231967Y-22871079D01*
X8231967Y-22871079D02*
X8241491Y-22852031D01*
X8241491Y-22852031D02*
X8251015Y-22842508D01*
X8251015Y-22842508D02*
X8270062Y-22832984D01*
X8460539Y-22832984D02*
X8479586Y-22832984D01*
X8479586Y-22832984D02*
X8498634Y-22842508D01*
X8498634Y-22842508D02*
X8508158Y-22852031D01*
X8508158Y-22852031D02*
X8517682Y-22871079D01*
X8517682Y-22871079D02*
X8527205Y-22909174D01*
X8527205Y-22909174D02*
X8527205Y-22956793D01*
X8527205Y-22956793D02*
X8517682Y-22994888D01*
X8517682Y-22994888D02*
X8508158Y-23013936D01*
X8508158Y-23013936D02*
X8498634Y-23023460D01*
X8498634Y-23023460D02*
X8479586Y-23032984D01*
X8479586Y-23032984D02*
X8460539Y-23032984D01*
X8460539Y-23032984D02*
X8441491Y-23023460D01*
X8441491Y-23023460D02*
X8431967Y-23013936D01*
X8431967Y-23013936D02*
X8422444Y-22994888D01*
X8422444Y-22994888D02*
X8412920Y-22956793D01*
X8412920Y-22956793D02*
X8412920Y-22909174D01*
X8412920Y-22909174D02*
X8422444Y-22871079D01*
X8422444Y-22871079D02*
X8431967Y-22852031D01*
X8431967Y-22852031D02*
X8441491Y-22842508D01*
X8441491Y-22842508D02*
X8460539Y-22832984D01*
X8612920Y-23032984D02*
X8612920Y-22899650D01*
X8612920Y-22918698D02*
X8622444Y-22909174D01*
X8622444Y-22909174D02*
X8641491Y-22899650D01*
X8641491Y-22899650D02*
X8670063Y-22899650D01*
X8670063Y-22899650D02*
X8689110Y-22909174D01*
X8689110Y-22909174D02*
X8698634Y-22928222D01*
X8698634Y-22928222D02*
X8698634Y-23032984D01*
X8698634Y-22928222D02*
X8708158Y-22909174D01*
X8708158Y-22909174D02*
X8727205Y-22899650D01*
X8727205Y-22899650D02*
X8755777Y-22899650D01*
X8755777Y-22899650D02*
X8774825Y-22909174D01*
X8774825Y-22909174D02*
X8784348Y-22928222D01*
X8784348Y-22928222D02*
X8784348Y-23032984D01*
X8879586Y-23032984D02*
X8879586Y-22899650D01*
X8879586Y-22918698D02*
X8889110Y-22909174D01*
X8889110Y-22909174D02*
X8908158Y-22899650D01*
X8908158Y-22899650D02*
X8936729Y-22899650D01*
X8936729Y-22899650D02*
X8955777Y-22909174D01*
X8955777Y-22909174D02*
X8965301Y-22928222D01*
X8965301Y-22928222D02*
X8965301Y-23032984D01*
X8965301Y-22928222D02*
X8974825Y-22909174D01*
X8974825Y-22909174D02*
X8993872Y-22899650D01*
X8993872Y-22899650D02*
X9022444Y-22899650D01*
X9022444Y-22899650D02*
X9041491Y-22909174D01*
X9041491Y-22909174D02*
X9051015Y-22928222D01*
X9051015Y-22928222D02*
X9051015Y-23032984D01*
X9441491Y-22823460D02*
X9270063Y-23080603D01*
X9698634Y-22832984D02*
X9717682Y-22832984D01*
X9717682Y-22832984D02*
X9736729Y-22842508D01*
X9736729Y-22842508D02*
X9746253Y-22852031D01*
X9746253Y-22852031D02*
X9755777Y-22871079D01*
X9755777Y-22871079D02*
X9765301Y-22909174D01*
X9765301Y-22909174D02*
X9765301Y-22956793D01*
X9765301Y-22956793D02*
X9755777Y-22994888D01*
X9755777Y-22994888D02*
X9746253Y-23013936D01*
X9746253Y-23013936D02*
X9736729Y-23023460D01*
X9736729Y-23023460D02*
X9717682Y-23032984D01*
X9717682Y-23032984D02*
X9698634Y-23032984D01*
X9698634Y-23032984D02*
X9679587Y-23023460D01*
X9679587Y-23023460D02*
X9670063Y-23013936D01*
X9670063Y-23013936D02*
X9660539Y-22994888D01*
X9660539Y-22994888D02*
X9651015Y-22956793D01*
X9651015Y-22956793D02*
X9651015Y-22909174D01*
X9651015Y-22909174D02*
X9660539Y-22871079D01*
X9660539Y-22871079D02*
X9670063Y-22852031D01*
X9670063Y-22852031D02*
X9679587Y-22842508D01*
X9679587Y-22842508D02*
X9698634Y-22832984D01*
X9851015Y-23013936D02*
X9860539Y-23023460D01*
X9860539Y-23023460D02*
X9851015Y-23032984D01*
X9851015Y-23032984D02*
X9841491Y-23023460D01*
X9841491Y-23023460D02*
X9851015Y-23013936D01*
X9851015Y-23013936D02*
X9851015Y-23032984D01*
X9984348Y-22832984D02*
X10003396Y-22832984D01*
X10003396Y-22832984D02*
X10022444Y-22842508D01*
X10022444Y-22842508D02*
X10031968Y-22852031D01*
X10031968Y-22852031D02*
X10041491Y-22871079D01*
X10041491Y-22871079D02*
X10051015Y-22909174D01*
X10051015Y-22909174D02*
X10051015Y-22956793D01*
X10051015Y-22956793D02*
X10041491Y-22994888D01*
X10041491Y-22994888D02*
X10031968Y-23013936D01*
X10031968Y-23013936D02*
X10022444Y-23023460D01*
X10022444Y-23023460D02*
X10003396Y-23032984D01*
X10003396Y-23032984D02*
X9984348Y-23032984D01*
X9984348Y-23032984D02*
X9965301Y-23023460D01*
X9965301Y-23023460D02*
X9955777Y-23013936D01*
X9955777Y-23013936D02*
X9946253Y-22994888D01*
X9946253Y-22994888D02*
X9936729Y-22956793D01*
X9936729Y-22956793D02*
X9936729Y-22909174D01*
X9936729Y-22909174D02*
X9946253Y-22871079D01*
X9946253Y-22871079D02*
X9955777Y-22852031D01*
X9955777Y-22852031D02*
X9965301Y-22842508D01*
X9965301Y-22842508D02*
X9984348Y-22832984D01*
X10231968Y-22832984D02*
X10136729Y-22832984D01*
X10136729Y-22832984D02*
X10127206Y-22928222D01*
X10127206Y-22928222D02*
X10136729Y-22918698D01*
X10136729Y-22918698D02*
X10155777Y-22909174D01*
X10155777Y-22909174D02*
X10203396Y-22909174D01*
X10203396Y-22909174D02*
X10222444Y-22918698D01*
X10222444Y-22918698D02*
X10231968Y-22928222D01*
X10231968Y-22928222D02*
X10241491Y-22947269D01*
X10241491Y-22947269D02*
X10241491Y-22994888D01*
X10241491Y-22994888D02*
X10231968Y-23013936D01*
X10231968Y-23013936D02*
X10222444Y-23023460D01*
X10222444Y-23023460D02*
X10203396Y-23032984D01*
X10203396Y-23032984D02*
X10155777Y-23032984D01*
X10155777Y-23032984D02*
X10136729Y-23023460D01*
X10136729Y-23023460D02*
X10127206Y-23013936D01*
X10336729Y-23032984D02*
X10374825Y-23032984D01*
X10374825Y-23032984D02*
X10393872Y-23023460D01*
X10393872Y-23023460D02*
X10403396Y-23013936D01*
X10403396Y-23013936D02*
X10422444Y-22985365D01*
X10422444Y-22985365D02*
X10431968Y-22947269D01*
X10431968Y-22947269D02*
X10431968Y-22871079D01*
X10431968Y-22871079D02*
X10422444Y-22852031D01*
X10422444Y-22852031D02*
X10412920Y-22842508D01*
X10412920Y-22842508D02*
X10393872Y-22832984D01*
X10393872Y-22832984D02*
X10355777Y-22832984D01*
X10355777Y-22832984D02*
X10336729Y-22842508D01*
X10336729Y-22842508D02*
X10327206Y-22852031D01*
X10327206Y-22852031D02*
X10317682Y-22871079D01*
X10317682Y-22871079D02*
X10317682Y-22918698D01*
X10317682Y-22918698D02*
X10327206Y-22937746D01*
X10327206Y-22937746D02*
X10336729Y-22947269D01*
X10336729Y-22947269D02*
X10355777Y-22956793D01*
X10355777Y-22956793D02*
X10393872Y-22956793D01*
X10393872Y-22956793D02*
X10412920Y-22947269D01*
X10412920Y-22947269D02*
X10422444Y-22937746D01*
X10422444Y-22937746D02*
X10431968Y-22918698D01*
X10622444Y-23032984D02*
X10508158Y-23032984D01*
X10565301Y-23032984D02*
X10565301Y-22832984D01*
X10565301Y-22832984D02*
X10546253Y-22861555D01*
X10546253Y-22861555D02*
X10527206Y-22880603D01*
X10527206Y-22880603D02*
X10508158Y-22890127D01*
X10698634Y-22832984D02*
X10698634Y-22871079D01*
X10774825Y-22832984D02*
X10774825Y-22871079D01*
X11070063Y-23109174D02*
X11060539Y-23099650D01*
X11060539Y-23099650D02*
X11041491Y-23071079D01*
X11041491Y-23071079D02*
X11031968Y-23052031D01*
X11031968Y-23052031D02*
X11022444Y-23023460D01*
X11022444Y-23023460D02*
X11012920Y-22975841D01*
X11012920Y-22975841D02*
X11012920Y-22937746D01*
X11012920Y-22937746D02*
X11022444Y-22890127D01*
X11022444Y-22890127D02*
X11031968Y-22861555D01*
X11031968Y-22861555D02*
X11041491Y-22842508D01*
X11041491Y-22842508D02*
X11060539Y-22813936D01*
X11060539Y-22813936D02*
X11070063Y-22804412D01*
X11136730Y-22852031D02*
X11146253Y-22842508D01*
X11146253Y-22842508D02*
X11165301Y-22832984D01*
X11165301Y-22832984D02*
X11212920Y-22832984D01*
X11212920Y-22832984D02*
X11231968Y-22842508D01*
X11231968Y-22842508D02*
X11241491Y-22852031D01*
X11241491Y-22852031D02*
X11251015Y-22871079D01*
X11251015Y-22871079D02*
X11251015Y-22890127D01*
X11251015Y-22890127D02*
X11241491Y-22918698D01*
X11241491Y-22918698D02*
X11127206Y-23032984D01*
X11127206Y-23032984D02*
X11251015Y-23032984D01*
X11489110Y-23032984D02*
X11489110Y-22832984D01*
X11574825Y-23032984D02*
X11574825Y-22928222D01*
X11574825Y-22928222D02*
X11565301Y-22909174D01*
X11565301Y-22909174D02*
X11546253Y-22899650D01*
X11546253Y-22899650D02*
X11517682Y-22899650D01*
X11517682Y-22899650D02*
X11498634Y-22909174D01*
X11498634Y-22909174D02*
X11489110Y-22918698D01*
X11698634Y-23032984D02*
X11679587Y-23023460D01*
X11679587Y-23023460D02*
X11670063Y-23013936D01*
X11670063Y-23013936D02*
X11660539Y-22994888D01*
X11660539Y-22994888D02*
X11660539Y-22937746D01*
X11660539Y-22937746D02*
X11670063Y-22918698D01*
X11670063Y-22918698D02*
X11679587Y-22909174D01*
X11679587Y-22909174D02*
X11698634Y-22899650D01*
X11698634Y-22899650D02*
X11727206Y-22899650D01*
X11727206Y-22899650D02*
X11746253Y-22909174D01*
X11746253Y-22909174D02*
X11755777Y-22918698D01*
X11755777Y-22918698D02*
X11765301Y-22937746D01*
X11765301Y-22937746D02*
X11765301Y-22994888D01*
X11765301Y-22994888D02*
X11755777Y-23013936D01*
X11755777Y-23013936D02*
X11746253Y-23023460D01*
X11746253Y-23023460D02*
X11727206Y-23032984D01*
X11727206Y-23032984D02*
X11698634Y-23032984D01*
X11879587Y-23032984D02*
X11860539Y-23023460D01*
X11860539Y-23023460D02*
X11851015Y-23004412D01*
X11851015Y-23004412D02*
X11851015Y-22832984D01*
X12031968Y-23023460D02*
X12012920Y-23032984D01*
X12012920Y-23032984D02*
X11974825Y-23032984D01*
X11974825Y-23032984D02*
X11955777Y-23023460D01*
X11955777Y-23023460D02*
X11946253Y-23004412D01*
X11946253Y-23004412D02*
X11946253Y-22928222D01*
X11946253Y-22928222D02*
X11955777Y-22909174D01*
X11955777Y-22909174D02*
X11974825Y-22899650D01*
X11974825Y-22899650D02*
X12012920Y-22899650D01*
X12012920Y-22899650D02*
X12031968Y-22909174D01*
X12031968Y-22909174D02*
X12041491Y-22928222D01*
X12041491Y-22928222D02*
X12041491Y-22947269D01*
X12041491Y-22947269D02*
X11946253Y-22966317D01*
X12117682Y-23023460D02*
X12136730Y-23032984D01*
X12136730Y-23032984D02*
X12174825Y-23032984D01*
X12174825Y-23032984D02*
X12193872Y-23023460D01*
X12193872Y-23023460D02*
X12203396Y-23004412D01*
X12203396Y-23004412D02*
X12203396Y-22994888D01*
X12203396Y-22994888D02*
X12193872Y-22975841D01*
X12193872Y-22975841D02*
X12174825Y-22966317D01*
X12174825Y-22966317D02*
X12146253Y-22966317D01*
X12146253Y-22966317D02*
X12127206Y-22956793D01*
X12127206Y-22956793D02*
X12117682Y-22937746D01*
X12117682Y-22937746D02*
X12117682Y-22928222D01*
X12117682Y-22928222D02*
X12127206Y-22909174D01*
X12127206Y-22909174D02*
X12146253Y-22899650D01*
X12146253Y-22899650D02*
X12174825Y-22899650D01*
X12174825Y-22899650D02*
X12193872Y-22909174D01*
X12270063Y-23109174D02*
X12279587Y-23099650D01*
X12279587Y-23099650D02*
X12298634Y-23071079D01*
X12298634Y-23071079D02*
X12308158Y-23052031D01*
X12308158Y-23052031D02*
X12317682Y-23023460D01*
X12317682Y-23023460D02*
X12327206Y-22975841D01*
X12327206Y-22975841D02*
X12327206Y-22937746D01*
X12327206Y-22937746D02*
X12317682Y-22890127D01*
X12317682Y-22890127D02*
X12308158Y-22861555D01*
X12308158Y-22861555D02*
X12298634Y-22842508D01*
X12298634Y-22842508D02*
X12279587Y-22813936D01*
X12279587Y-22813936D02*
X12270063Y-22804412D01*
M02*
