M48
; DRILL file {KiCad 8.0.6} date 2024-11-26T16:01:54+0100
; FORMAT={-:-/ absolute / inch / decimal}
; #@! TF.CreationDate,2024-11-26T16:01:54+01:00
; #@! TF.GenerationSoftware,Kicad,Pcbnew,8.0.6
; #@! TF.FileFunction,Plated,1,2,PTH
FMAT,2
INCH
; #@! TA.AperFunction,Plated,PTH,ViaDrill
T1C0.0157
; #@! TA.AperFunction,Plated,PTH,ComponentDrill
T2C0.0315
; #@! TA.AperFunction,Plated,PTH,ComponentDrill
T3C0.0354
; #@! TA.AperFunction,Plated,PTH,ComponentDrill
T4C0.0390
; #@! TA.AperFunction,Plated,PTH,ComponentDrill
T5C0.0394
; #@! TA.AperFunction,Plated,PTH,ComponentDrill
T6C0.0472
; #@! TA.AperFunction,Plated,PTH,ComponentDrill
T7C0.0512
; #@! TA.AperFunction,Plated,PTH,ComponentDrill
T8C0.0591
%
G90
G05
T1
X3.5535Y-6.0834
X3.6137Y-6.9574
X3.7109Y-7.6813
X3.8144Y-6.4032
X3.8981Y-7.2692
X3.8993Y-7.4924
X3.9394Y-7.2823
X3.955Y-7.1952
X4.0083Y-7.4262
X4.0321Y-7.2637
X4.0629Y-7.2944
X4.0939Y-7.3252
X4.1234Y-5.6005
X4.1519Y-7.5717
X4.175Y-7.4843
X4.1973Y-6.1277
X4.2001Y-7.4524
X4.2429Y-7.4547
X4.2985Y-4.3819
X4.3047Y-4.3137
X4.3299Y-4.4739
X4.3839Y-6.2017
X4.4096Y-6.1184
X4.4545Y-6.7323
X4.4587Y-6.127
X4.681Y-7.3824
X4.7542Y-7.5073
X4.8717Y-6.8082
X4.881Y-6.8491
T2
X5.1295Y-5.0211
X5.1295Y-5.3211
X5.2102Y-6.3671
X5.2102Y-6.7671
T3
X5.099Y-6.0421
X5.099Y-6.1421
T4
X3.0642Y-5.7762
X3.0642Y-5.9533
T5
X4.0577Y-5.0793
X4.0577Y-5.1793
X4.0577Y-5.2793
X4.0577Y-5.3793
X4.0577Y-5.4793
X4.0577Y-5.5793
X4.0577Y-5.6793
X4.0577Y-5.7793
X4.0577Y-5.8793
X4.0577Y-5.9793
X4.0577Y-6.0793
X4.0577Y-6.1793
X4.0577Y-6.2793
X4.0577Y-6.3793
X4.0577Y-6.4793
X4.0577Y-6.5793
X4.0577Y-6.6793
X4.0577Y-6.7793
X4.0577Y-6.8793
X4.0577Y-6.9793
X4.7585Y-5.0807
X4.7585Y-5.1807
X4.7585Y-5.2807
X4.7585Y-5.3807
X4.7585Y-5.4807
X4.7585Y-5.5807
X4.7585Y-5.6807
X4.7585Y-5.7807
X4.7585Y-5.8807
X4.7585Y-5.9807
X4.7585Y-6.0807
X4.7585Y-6.1807
X4.7585Y-6.2807
X4.7585Y-6.3807
X4.7585Y-6.4807
X4.7585Y-6.5807
X4.7585Y-6.6807
X4.7585Y-6.7807
X4.7585Y-6.8807
X4.7585Y-6.9807
T6
X5.1823Y-5.5388
X5.1823Y-5.7431
T7
X3.1622Y-5.7266
X3.1622Y-6.0026
T8
X3.4799Y-5.9496
X3.4799Y-6.7563
M30
