%TF.GenerationSoftware,KiCad,Pcbnew,8.0.6*%
%TF.CreationDate,2024-11-26T16:01:51+01:00*%
%TF.ProjectId,PicoA10400,5069636f-4131-4303-9430-302e6b696361,rev?*%
%TF.SameCoordinates,Original*%
%TF.FileFunction,Copper,L1,Top*%
%TF.FilePolarity,Positive*%
%FSLAX46Y46*%
G04 Gerber Fmt 4.6, Leading zero omitted, Abs format (unit mm)*
G04 Created by KiCad (PCBNEW 8.0.6) date 2024-11-26 16:01:51*
%MOMM*%
%LPD*%
G01*
G04 APERTURE LIST*
%TA.AperFunction,ComponentPad*%
%ADD10C,2.500000*%
%TD*%
%TA.AperFunction,ComponentPad*%
%ADD11R,1.600000X1.600000*%
%TD*%
%TA.AperFunction,ComponentPad*%
%ADD12O,1.600000X1.600000*%
%TD*%
%TA.AperFunction,ComponentPad*%
%ADD13C,1.600000*%
%TD*%
%TA.AperFunction,ComponentPad*%
%ADD14R,3.000000X3.000000*%
%TD*%
%TA.AperFunction,ComponentPad*%
%ADD15C,3.000000*%
%TD*%
%TA.AperFunction,ComponentPad*%
%ADD16R,1.700000X1.700000*%
%TD*%
%TA.AperFunction,ComponentPad*%
%ADD17O,1.700000X1.700000*%
%TD*%
%TA.AperFunction,ConnectorPad*%
%ADD18R,2.000000X7.000000*%
%TD*%
%TA.AperFunction,ComponentPad*%
%ADD19C,2.100000*%
%TD*%
%TA.AperFunction,ComponentPad*%
%ADD20C,1.750000*%
%TD*%
%TA.AperFunction,ComponentPad*%
%ADD21R,1.800000X1.800000*%
%TD*%
%TA.AperFunction,ComponentPad*%
%ADD22C,1.800000*%
%TD*%
%TA.AperFunction,ViaPad*%
%ADD23C,0.800000*%
%TD*%
%TA.AperFunction,Conductor*%
%ADD24C,0.250000*%
%TD*%
G04 APERTURE END LIST*
D10*
%TO.P,TP2,1,1*%
%TO.N,Net-(D1-K)*%
X131630000Y-140685000D03*
%TD*%
%TO.P,TP1,1,1*%
%TO.N,Net-(C1-Pad1)*%
X131630000Y-145875000D03*
%TD*%
D11*
%TO.P,D1,1,K*%
%TO.N,Net-(D1-K)*%
X130290000Y-127535000D03*
D12*
%TO.P,D1,2,A*%
%TO.N,+5V*%
X130290000Y-135155000D03*
%TD*%
D13*
%TO.P,R1,1*%
%TO.N,Net-(D2-A)*%
X132340000Y-161725000D03*
D12*
%TO.P,R1,2*%
%TO.N,Net-(J2-Pin_5)*%
X132340000Y-171885000D03*
%TD*%
D14*
%TO.P,C1,1*%
%TO.N,Net-(C1-Pad1)*%
X88390000Y-151120000D03*
D15*
%TO.P,C1,2*%
%TO.N,GND*%
X88390000Y-171610000D03*
%TD*%
D16*
%TO.P,J2,1,Pin_1*%
%TO.N,unconnected-(J2-Pin_1-Pad1)*%
X120865000Y-129050000D03*
D17*
%TO.P,J2,2,Pin_2*%
%TO.N,Net-(D1-K)*%
X120865000Y-131590000D03*
%TO.P,J2,3,Pin_3*%
%TO.N,GND*%
X120865000Y-134130000D03*
%TO.P,J2,4,Pin_4*%
%TO.N,unconnected-(J2-Pin_4-Pad4)*%
X120865000Y-136670000D03*
%TO.P,J2,5,Pin_5*%
%TO.N,Net-(J2-Pin_5)*%
X120865000Y-139210000D03*
%TO.P,J2,6,Pin_6*%
%TO.N,GND*%
X120865000Y-141750000D03*
%TO.P,J2,7,Pin_7*%
%TO.N,RST*%
X120865000Y-144290000D03*
%TO.P,J2,8,Pin_8*%
%TO.N,ExtAudio*%
X120865000Y-146830000D03*
%TO.P,J2,9,Pin_9*%
%TO.N,IRQ*%
X120865000Y-149370000D03*
%TO.P,J2,10,Pin_10*%
%TO.N,Clk*%
X120865000Y-151910000D03*
%TO.P,J2,11,Pin_11*%
%TO.N,RW*%
X120865000Y-154450000D03*
%TO.P,J2,12,Pin_12*%
%TO.N,GND*%
X120865000Y-156990000D03*
%TO.P,J2,13,Pin_13*%
%TO.N,unconnected-(J2-Pin_13-Pad13)*%
X120865000Y-159530000D03*
%TO.P,J2,14,Pin_14*%
%TO.N,Halt*%
X120865000Y-162070000D03*
%TO.P,J2,15,Pin_15*%
%TO.N,/D7*%
X120865000Y-164610000D03*
%TO.P,J2,16,Pin_16*%
%TO.N,/D6*%
X120865000Y-167150000D03*
%TO.P,J2,17,Pin_17*%
%TO.N,/D5*%
X120865000Y-169690000D03*
%TO.P,J2,18,Pin_18*%
%TO.N,/D4*%
X120865000Y-172230000D03*
%TO.P,J2,19,Pin_19*%
%TO.N,/D3*%
X120865000Y-174770000D03*
%TO.P,J2,20,Pin_20*%
%TO.N,/D2*%
X120865000Y-177310000D03*
%TD*%
D16*
%TO.P,J1,1,Pin_1*%
%TO.N,/A0*%
X103065000Y-129015000D03*
D17*
%TO.P,J1,2,Pin_2*%
%TO.N,/A1*%
X103065000Y-131555000D03*
%TO.P,J1,3,Pin_3*%
%TO.N,/A2*%
X103065000Y-134095000D03*
%TO.P,J1,4,Pin_4*%
%TO.N,/A3*%
X103065000Y-136635000D03*
%TO.P,J1,5,Pin_5*%
%TO.N,/A4*%
X103065000Y-139175000D03*
%TO.P,J1,6,Pin_6*%
%TO.N,GND*%
X103065000Y-141715000D03*
%TO.P,J1,7,Pin_7*%
%TO.N,/A5*%
X103065000Y-144255000D03*
%TO.P,J1,8,Pin_8*%
%TO.N,/A6*%
X103065000Y-146795000D03*
%TO.P,J1,9,Pin_9*%
%TO.N,/A7*%
X103065000Y-149335000D03*
%TO.P,J1,10,Pin_10*%
%TO.N,/A8*%
X103065000Y-151875000D03*
%TO.P,J1,11,Pin_11*%
%TO.N,/A9*%
X103065000Y-154415000D03*
%TO.P,J1,12,Pin_12*%
%TO.N,/A10*%
X103065000Y-156955000D03*
%TO.P,J1,13,Pin_13*%
%TO.N,/A11*%
X103065000Y-159495000D03*
%TO.P,J1,14,Pin_14*%
%TO.N,/A12*%
X103065000Y-162035000D03*
%TO.P,J1,15,Pin_15*%
%TO.N,GND*%
X103065000Y-164575000D03*
%TO.P,J1,16,Pin_16*%
%TO.N,/A13*%
X103065000Y-167115000D03*
%TO.P,J1,17,Pin_17*%
%TO.N,/A14*%
X103065000Y-169655000D03*
%TO.P,J1,18,Pin_18*%
%TO.N,/A15*%
X103065000Y-172195000D03*
%TO.P,J1,19,Pin_19*%
%TO.N,/D0*%
X103065000Y-174735000D03*
%TO.P,J1,20,Pin_20*%
%TO.N,/D1*%
X103065000Y-177275000D03*
%TD*%
D18*
%TO.P,U1,1,D3*%
%TO.N,/D3*%
X119070000Y-104000000D03*
%TO.P,U1,2,D4*%
%TO.N,/D4*%
X116530000Y-104000000D03*
%TO.P,U1,3,D5*%
%TO.N,/D5*%
X113990000Y-104000000D03*
%TO.P,U1,4,D6*%
%TO.N,/D6*%
X111450000Y-104000000D03*
%TO.P,U1,5,D7*%
%TO.N,/D7*%
X108910000Y-104000000D03*
%TO.P,U1,6,A12*%
%TO.N,/A12*%
X106370000Y-104000000D03*
%TO.P,U1,7,A10*%
%TO.N,/A10*%
X103830000Y-104000000D03*
%TO.P,U1,8,A11*%
%TO.N,/A11*%
X101290000Y-104000000D03*
%TO.P,U1,9,A9*%
%TO.N,/A9*%
X98750000Y-104000000D03*
%TO.P,U1,10,A8*%
%TO.N,/A8*%
X96210000Y-104000000D03*
%TO.P,U1,11,+5V*%
%TO.N,+5V*%
X93670000Y-104000000D03*
%TO.P,U1,12,GND*%
%TO.N,GND*%
X91130000Y-104000000D03*
%TD*%
%TO.P,U2,1,RW*%
%TO.N,RW*%
X83410000Y-200700000D03*
%TO.P,U2,2,Halt*%
%TO.N,Halt*%
X85950000Y-200700000D03*
%TO.P,U2,3,D3*%
%TO.N,/D3*%
X91030000Y-200700000D03*
%TO.P,U2,4,D4*%
%TO.N,/D4*%
X93570000Y-200700000D03*
%TO.P,U2,5,D5*%
%TO.N,/D5*%
X96110000Y-200700000D03*
%TO.P,U2,6,D6*%
%TO.N,/D6*%
X98650000Y-200700000D03*
%TO.P,U2,7,D7*%
%TO.N,/D7*%
X101190000Y-200700000D03*
%TO.P,U2,8,A12*%
%TO.N,/A12*%
X103730000Y-200700000D03*
%TO.P,U2,9,A10*%
%TO.N,/A10*%
X106270000Y-200700000D03*
%TO.P,U2,10,A11*%
%TO.N,/A11*%
X108810000Y-200700000D03*
%TO.P,U2,11,A9*%
%TO.N,/A9*%
X111350000Y-200700000D03*
%TO.P,U2,12,A8*%
%TO.N,/A8*%
X113890000Y-200700000D03*
%TO.P,U2,13,+5V*%
%TO.N,+5V*%
X116430000Y-200700000D03*
%TO.P,U2,14,GND*%
%TO.N,GND*%
X118970000Y-200700000D03*
%TO.P,U2,15,A13*%
%TO.N,/A13*%
X124050000Y-200700000D03*
%TO.P,U2,16,A14*%
%TO.N,/A14*%
X126590000Y-200700000D03*
%TD*%
D19*
%TO.P,SW1,*%
%TO.N,*%
X80320000Y-152465000D03*
X80320000Y-145455000D03*
D20*
%TO.P,SW1,1,1*%
%TO.N,GND*%
X77830000Y-151215000D03*
%TO.P,SW1,2,2*%
%TO.N,RST*%
X77830000Y-146715000D03*
%TD*%
D21*
%TO.P,D2,1,K*%
%TO.N,GND*%
X129515000Y-156010000D03*
D22*
%TO.P,D2,2,A*%
%TO.N,Net-(D2-A)*%
X129515000Y-153470000D03*
%TD*%
D23*
%TO.N,+5V*%
X104733800Y-142252200D03*
%TO.N,/A9*%
X111350000Y-157524100D03*
%TO.N,/D3*%
X101811400Y-188624900D03*
X118896400Y-187512500D03*
%TO.N,/D4*%
X94256300Y-195104800D03*
%TO.N,/D5*%
X102415300Y-184497000D03*
%TO.N,/D6*%
X103196400Y-185278100D03*
%TO.N,/D7*%
X103985200Y-186061300D03*
%TO.N,/A12*%
X96886300Y-162641600D03*
%TO.N,/A10*%
X106611300Y-155643200D03*
%TO.N,/A8*%
X113251200Y-155627000D03*
%TO.N,/A14*%
X123976300Y-173966700D03*
%TO.N,/A7*%
X107769000Y-189350500D03*
%TO.N,/A6*%
X106683000Y-189292100D03*
%TO.N,/A5*%
X106044700Y-190102300D03*
%TO.N,/A4*%
X105458100Y-192321900D03*
%TO.N,/A3*%
X100458000Y-182757200D03*
%TO.N,/A2*%
X100059900Y-184971200D03*
%TO.N,/A1*%
X99011000Y-184638300D03*
%TO.N,/A0*%
X99043400Y-190307700D03*
%TO.N,/D0*%
X109340500Y-109568600D03*
%TO.N,/D1*%
X109182300Y-111299200D03*
%TO.N,/D2*%
X109980500Y-113636800D03*
X113145000Y-170999900D03*
%TO.N,/A13*%
X123740000Y-172927900D03*
%TO.N,ExtAudio*%
X120756600Y-190685400D03*
%TO.N,Halt*%
X91787700Y-176717100D03*
%TO.N,RW*%
X112004000Y-155407500D03*
X90258500Y-154517400D03*
%TD*%
D24*
%TO.N,Net-(D1-K)*%
X133730000Y-128415000D02*
X133730000Y-138465000D01*
X130290000Y-127535000D02*
X132850000Y-127535000D01*
X133730000Y-138465000D02*
X131580000Y-140615000D01*
X132850000Y-127535000D02*
X133730000Y-128415000D01*
%TO.N,GND*%
X120865000Y-140573300D02*
X121232700Y-140573300D01*
X123439100Y-172201200D02*
X123013300Y-172627000D01*
X118970000Y-194665000D02*
X118970000Y-200700000D01*
X120865000Y-134130000D02*
X120865000Y-135306700D01*
X122041700Y-139764300D02*
X122041700Y-136115600D01*
X123545700Y-172201200D02*
X123439100Y-172201200D01*
X120865000Y-141750000D02*
X120865000Y-140573300D01*
X123013300Y-173263200D02*
X122797100Y-173479400D01*
X77825000Y-161045000D02*
X77825000Y-151220000D01*
X104242300Y-140537700D02*
X103065000Y-141715000D01*
X104242300Y-127117100D02*
X104242300Y-140537700D01*
X129515000Y-166231900D02*
X123545700Y-172201200D01*
X88390000Y-171610000D02*
X77825000Y-161045000D01*
X122797100Y-173479400D02*
X122797100Y-190837900D01*
X123013300Y-172627000D02*
X123013300Y-173263200D01*
X121232800Y-135306700D02*
X120865000Y-135306700D01*
X91130000Y-114004800D02*
X104242300Y-127117100D01*
X121232700Y-140573300D02*
X122041700Y-139764300D01*
X129515000Y-156010000D02*
X129515000Y-166231900D01*
X91130000Y-104000000D02*
X91130000Y-114004800D01*
X122041700Y-136115600D02*
X121232800Y-135306700D01*
X122797100Y-190837900D02*
X118970000Y-194665000D01*
%TO.N,+5V*%
X122345400Y-190454900D02*
X122345400Y-173292300D01*
X93670000Y-104000000D02*
X93670000Y-115552100D01*
X122561600Y-173076100D02*
X122561600Y-172439900D01*
X104733800Y-126615900D02*
X104733800Y-142252200D01*
X125656800Y-140914900D02*
X130290000Y-136281700D01*
X122561600Y-172439900D02*
X125656800Y-169344700D01*
X93670000Y-115552100D02*
X104733800Y-126615900D01*
X125656800Y-169344700D02*
X125656800Y-140914900D01*
X122345400Y-173292300D02*
X122561600Y-173076100D01*
X116430000Y-196370300D02*
X122345400Y-190454900D01*
X130290000Y-135155000D02*
X130290000Y-136281700D01*
X116430000Y-200700000D02*
X116430000Y-196370300D01*
%TO.N,/A9*%
X111350000Y-196873300D02*
X111350000Y-157524100D01*
X103430900Y-153238300D02*
X103065000Y-153238300D01*
X111350000Y-200700000D02*
X111350000Y-196873300D01*
X103065000Y-154415000D02*
X103065000Y-153238300D01*
X105912300Y-114989000D02*
X105912300Y-150756900D01*
X98750000Y-107826700D02*
X105912300Y-114989000D01*
X105912300Y-150756900D02*
X103430900Y-153238300D01*
X98750000Y-104000000D02*
X98750000Y-107826700D01*
%TO.N,/D3*%
X124316700Y-121095000D02*
X124316700Y-170019900D01*
X122109900Y-172711800D02*
X121228400Y-173593300D01*
X101811400Y-188624900D02*
X96058200Y-194378100D01*
X120865000Y-174770000D02*
X120865000Y-173593300D01*
X118896400Y-177547600D02*
X118896400Y-187512500D01*
X96058200Y-194378100D02*
X93525200Y-194378100D01*
X120865000Y-174770000D02*
X120865000Y-175946700D01*
X121228400Y-173593300D02*
X120865000Y-173593300D01*
X91030000Y-200700000D02*
X91030000Y-196873300D01*
X119070000Y-107826700D02*
X119070000Y-115848300D01*
X122109900Y-172226700D02*
X122109900Y-172711800D01*
X119070000Y-104000000D02*
X119070000Y-107826700D01*
X120865000Y-175946700D02*
X120497300Y-175946700D01*
X119070000Y-115848300D02*
X124316700Y-121095000D01*
X120497300Y-175946700D02*
X118896400Y-177547600D01*
X124316700Y-170019900D02*
X122109900Y-172226700D01*
X93525200Y-194378100D02*
X91030000Y-196873300D01*
%TO.N,/D4*%
X93570000Y-200700000D02*
X93570000Y-196873300D01*
X116530000Y-116609700D02*
X116530000Y-104000000D01*
X120865000Y-171053300D02*
X121232700Y-171053300D01*
X94256300Y-196187000D02*
X94256300Y-195104800D01*
X123854500Y-168431500D02*
X123854500Y-123934200D01*
X120865000Y-172230000D02*
X120865000Y-171053300D01*
X121232700Y-171053300D02*
X123854500Y-168431500D01*
X93570000Y-196873300D02*
X94256300Y-196187000D01*
X123854500Y-123934200D02*
X116530000Y-116609700D01*
%TO.N,/D5*%
X120865000Y-168513300D02*
X121232700Y-168513300D01*
X96110000Y-200700000D02*
X96110000Y-196873300D01*
X102541300Y-190442000D02*
X96110000Y-196873300D01*
X102415300Y-185524600D02*
X102541300Y-185650600D01*
X102541300Y-185650600D02*
X102541300Y-190442000D01*
X113990000Y-118506600D02*
X113990000Y-104000000D01*
X121232700Y-168513300D02*
X123402800Y-166343200D01*
X102415300Y-184497000D02*
X102415300Y-185524600D01*
X123402800Y-127919400D02*
X113990000Y-118506600D01*
X123402800Y-166343200D02*
X123402800Y-127919400D01*
X120865000Y-169690000D02*
X120865000Y-168513300D01*
%TO.N,/D6*%
X98650000Y-200700000D02*
X98650000Y-196873300D01*
X111450100Y-107826700D02*
X111450000Y-107826700D01*
X121293800Y-143020000D02*
X120469100Y-143020000D01*
X111450100Y-134001000D02*
X111450100Y-107826700D01*
X103196400Y-185278100D02*
X103196400Y-192326900D01*
X122951100Y-164255000D02*
X122951100Y-144677300D01*
X120865000Y-165973300D02*
X121232800Y-165973300D01*
X122951100Y-144677300D02*
X121293800Y-143020000D01*
X121232800Y-165973300D02*
X122951100Y-164255000D01*
X120469100Y-143020000D02*
X111450100Y-134001000D01*
X120865000Y-167150000D02*
X120865000Y-165973300D01*
X103196400Y-192326900D02*
X98650000Y-196873300D01*
X111450000Y-104000000D02*
X111450000Y-107826700D01*
%TO.N,/D7*%
X103985200Y-194078100D02*
X103985200Y-186061300D01*
X121218200Y-145480300D02*
X120342800Y-145480300D01*
X122499400Y-146761500D02*
X121218200Y-145480300D01*
X110906700Y-109823400D02*
X108910000Y-107826700D01*
X120865000Y-164610000D02*
X120865000Y-163433300D01*
X122499400Y-162166600D02*
X122499400Y-146761500D01*
X101190000Y-196873300D02*
X103985200Y-194078100D01*
X121232700Y-163433300D02*
X122499400Y-162166600D01*
X120342800Y-145480300D02*
X110906700Y-136044200D01*
X101190000Y-200700000D02*
X101190000Y-196873300D01*
X120865000Y-163433300D02*
X121232700Y-163433300D01*
X110906700Y-136044200D02*
X110906700Y-109823400D01*
X108910000Y-104000000D02*
X108910000Y-107826700D01*
%TO.N,/A12*%
X96886300Y-162641600D02*
X96886300Y-183552700D01*
X99037600Y-185704000D02*
X100373700Y-185704000D01*
X103065000Y-162035000D02*
X103065000Y-160858300D01*
X103730000Y-200700000D02*
X103730000Y-196873300D01*
X103443800Y-160858300D02*
X107340700Y-156961400D01*
X102705200Y-183729200D02*
X104713500Y-185737500D01*
X102088500Y-183729200D02*
X102705200Y-183729200D01*
X101228700Y-184849000D02*
X101228700Y-184589000D01*
X101228700Y-184589000D02*
X102088500Y-183729200D01*
X107340700Y-156961400D02*
X107340700Y-108797400D01*
X107340700Y-108797400D02*
X106370000Y-107826700D01*
X106370000Y-104000000D02*
X106370000Y-107826700D01*
X104713500Y-185737500D02*
X104713500Y-195889800D01*
X96886300Y-183552700D02*
X99037600Y-185704000D01*
X103065000Y-160858300D02*
X103443800Y-160858300D01*
X104713500Y-195889800D02*
X103730000Y-196873300D01*
X100373700Y-185704000D02*
X101228700Y-184849000D01*
%TO.N,/A10*%
X108495700Y-185394200D02*
X101416700Y-178315200D01*
X101416700Y-178315200D02*
X101416700Y-158603300D01*
X106835700Y-110832400D02*
X103830000Y-107826700D01*
X103830000Y-104000000D02*
X103830000Y-107826700D01*
X106835700Y-155418800D02*
X106835700Y-110832400D01*
X101416700Y-158603300D02*
X103065000Y-156955000D01*
X108495700Y-194647600D02*
X108495700Y-185394200D01*
X106611300Y-155643200D02*
X106835700Y-155418800D01*
X106270000Y-196873300D02*
X108495700Y-194647600D01*
X106270000Y-200700000D02*
X106270000Y-196873300D01*
%TO.N,/A11*%
X101871100Y-178064100D02*
X101871100Y-160688900D01*
X108947400Y-196735900D02*
X108947400Y-185140400D01*
X108947400Y-185140400D02*
X101871100Y-178064100D01*
X103065000Y-159495000D02*
X103065000Y-158318300D01*
X101290000Y-109727100D02*
X101290000Y-104000000D01*
X103065000Y-158318300D02*
X103432800Y-158318300D01*
X101871100Y-160688900D02*
X103065000Y-159495000D01*
X106364000Y-114801100D02*
X101290000Y-109727100D01*
X108810000Y-196873300D02*
X108947400Y-196735900D01*
X103432800Y-158318300D02*
X104241700Y-157509400D01*
X104241700Y-155118200D02*
X106364000Y-152995900D01*
X104241700Y-157509400D02*
X104241700Y-155118200D01*
X106364000Y-152995900D02*
X106364000Y-114801100D01*
X108810000Y-200700000D02*
X108810000Y-196873300D01*
%TO.N,/A8*%
X96210000Y-108470600D02*
X105460600Y-117721200D01*
X113890000Y-200700000D02*
X113890000Y-196873300D01*
X103065000Y-151875000D02*
X103065000Y-150698300D01*
X113890000Y-196873300D02*
X113890000Y-156265800D01*
X103432700Y-150698300D02*
X103065000Y-150698300D01*
X96210000Y-104000000D02*
X96210000Y-108470600D01*
X113890000Y-156265800D02*
X113251200Y-155627000D01*
X105460600Y-148670400D02*
X103432700Y-150698300D01*
X105460600Y-117721200D02*
X105460600Y-148670400D01*
%TO.N,/A14*%
X126590000Y-200700000D02*
X126590000Y-176580400D01*
X126590000Y-176580400D02*
X123976300Y-173966700D01*
%TO.N,/A7*%
X107769000Y-189350500D02*
X107769000Y-185430300D01*
X100962900Y-178624200D02*
X100962900Y-151437100D01*
X107769000Y-185430300D02*
X100962900Y-178624200D01*
X100962900Y-151437100D02*
X103065000Y-149335000D01*
%TO.N,/A6*%
X106683000Y-185105600D02*
X100511200Y-178933800D01*
X100511200Y-178933800D02*
X100511200Y-150157800D01*
X103065000Y-146795000D02*
X103065000Y-147971700D01*
X100511200Y-150157800D02*
X102697300Y-147971700D01*
X102697300Y-147971700D02*
X103065000Y-147971700D01*
X106683000Y-189292100D02*
X106683000Y-185105600D01*
%TO.N,/A5*%
X103065000Y-144255000D02*
X103065000Y-145431700D01*
X100059500Y-179162300D02*
X100059500Y-148069500D01*
X100059500Y-148069500D02*
X102697300Y-145431700D01*
X102697300Y-145431700D02*
X103065000Y-145431700D01*
X106044700Y-190102300D02*
X105956300Y-190013900D01*
X105956300Y-185059100D02*
X100059500Y-179162300D01*
X105956300Y-190013900D02*
X105956300Y-185059100D01*
%TO.N,/A4*%
X105304800Y-185685200D02*
X99600000Y-179980400D01*
X105458100Y-192321900D02*
X105304800Y-192168600D01*
X102697300Y-140351700D02*
X103065000Y-140351700D01*
X99600000Y-143449000D02*
X102697300Y-140351700D01*
X103065000Y-139175000D02*
X103065000Y-140351700D01*
X105304800Y-192168600D02*
X105304800Y-185685200D01*
X99600000Y-179980400D02*
X99600000Y-143449000D01*
%TO.N,/A3*%
X99140900Y-181440100D02*
X99140900Y-141368100D01*
X102697300Y-137811700D02*
X103065000Y-137811700D01*
X100458000Y-182757200D02*
X99140900Y-181440100D01*
X99140900Y-141368100D02*
X102697300Y-137811700D01*
X103065000Y-136635000D02*
X103065000Y-137811700D01*
%TO.N,/A2*%
X103065000Y-134095000D02*
X103065000Y-135271700D01*
X98681700Y-139291300D02*
X98681700Y-182570400D01*
X100059900Y-183948600D02*
X100059900Y-184971200D01*
X98681700Y-182570400D02*
X100059900Y-183948600D01*
X103065000Y-135271700D02*
X102701300Y-135271700D01*
X102701300Y-135271700D02*
X98681700Y-139291300D01*
%TO.N,/A1*%
X98224800Y-137204200D02*
X102697300Y-132731700D01*
X99011000Y-184638300D02*
X98224800Y-183852100D01*
X103065000Y-131555000D02*
X103065000Y-132731700D01*
X102697300Y-132731700D02*
X103065000Y-132731700D01*
X98224800Y-183852100D02*
X98224800Y-137204200D01*
%TO.N,/A0*%
X96159600Y-187423900D02*
X99043400Y-190307700D01*
X103065000Y-129015000D02*
X103065000Y-130191700D01*
X102697300Y-130191700D02*
X96159600Y-136729400D01*
X96159600Y-136729400D02*
X96159600Y-187423900D01*
X103065000Y-130191700D02*
X102697300Y-130191700D01*
%TO.N,/D0*%
X103065000Y-173558300D02*
X103432700Y-173558300D01*
X108335100Y-110574000D02*
X109340500Y-109568600D01*
X103065000Y-174735000D02*
X103065000Y-173558300D01*
X103432700Y-173558300D02*
X108335100Y-168655900D01*
X108335100Y-168655900D02*
X108335100Y-110574000D01*
%TO.N,/D1*%
X103065000Y-176098300D02*
X103432700Y-176098300D01*
X103432700Y-176098300D02*
X109182300Y-170348700D01*
X103065000Y-177275000D02*
X103065000Y-176098300D01*
X109182300Y-170348700D02*
X109182300Y-111299200D01*
%TO.N,/D2*%
X109980500Y-113636800D02*
X109980500Y-155126600D01*
X109980500Y-155126600D02*
X113145000Y-158291100D01*
X113145000Y-158291100D02*
X113145000Y-170999900D01*
%TO.N,/A13*%
X123249600Y-196072900D02*
X124050000Y-196873300D01*
X124050000Y-200700000D02*
X124050000Y-196873300D01*
X123740000Y-173175400D02*
X123249600Y-173665800D01*
X123740000Y-172927900D02*
X123740000Y-173175400D01*
X123249600Y-173665800D02*
X123249600Y-196072900D01*
%TO.N,ExtAudio*%
X118156400Y-157975300D02*
X118156400Y-188085200D01*
X122044000Y-148818000D02*
X122044000Y-155015800D01*
X120865000Y-148006700D02*
X121232700Y-148006700D01*
X122044000Y-155015800D02*
X121339800Y-155720000D01*
X121232700Y-148006700D02*
X122044000Y-148818000D01*
X121339800Y-155720000D02*
X120411700Y-155720000D01*
X118156400Y-188085200D02*
X120756600Y-190685400D01*
X120865000Y-146830000D02*
X120865000Y-148006700D01*
X120411700Y-155720000D02*
X118156400Y-157975300D01*
%TO.N,Halt*%
X85950000Y-200700000D02*
X85950000Y-182554800D01*
X85950000Y-182554800D02*
X91787700Y-176717100D01*
%TO.N,RW*%
X112961500Y-154450000D02*
X120865000Y-154450000D01*
X112004000Y-155407500D02*
X112961500Y-154450000D01*
X90258500Y-173647100D02*
X90258500Y-154517400D01*
X83410000Y-200700000D02*
X83410000Y-180495600D01*
X83410000Y-180495600D02*
X90258500Y-173647100D01*
%TD*%
M02*
