%TF.GenerationSoftware,KiCad,Pcbnew,8.0.6*%
%TF.CreationDate,2024-11-26T16:01:51+01:00*%
%TF.ProjectId,PicoA10400,5069636f-4131-4303-9430-302e6b696361,rev?*%
%TF.SameCoordinates,Original*%
%TF.FileFunction,Copper,L2,Bot*%
%TF.FilePolarity,Positive*%
%FSLAX46Y46*%
G04 Gerber Fmt 4.6, Leading zero omitted, Abs format (unit mm)*
G04 Created by KiCad (PCBNEW 8.0.6) date 2024-11-26 16:01:51*
%MOMM*%
%LPD*%
G01*
G04 APERTURE LIST*
%TA.AperFunction,Conductor*%
%ADD10C,0.200000*%
%TD*%
%TA.AperFunction,ComponentPad*%
%ADD11C,2.500000*%
%TD*%
%TA.AperFunction,ComponentPad*%
%ADD12R,1.600000X1.600000*%
%TD*%
%TA.AperFunction,ComponentPad*%
%ADD13O,1.600000X1.600000*%
%TD*%
%TA.AperFunction,ComponentPad*%
%ADD14C,1.600000*%
%TD*%
%TA.AperFunction,ComponentPad*%
%ADD15R,3.000000X3.000000*%
%TD*%
%TA.AperFunction,ComponentPad*%
%ADD16C,3.000000*%
%TD*%
%TA.AperFunction,ComponentPad*%
%ADD17R,1.700000X1.700000*%
%TD*%
%TA.AperFunction,ComponentPad*%
%ADD18O,1.700000X1.700000*%
%TD*%
%TA.AperFunction,ConnectorPad*%
%ADD19R,2.000000X7.000000*%
%TD*%
%TA.AperFunction,ComponentPad*%
%ADD20C,2.100000*%
%TD*%
%TA.AperFunction,ComponentPad*%
%ADD21C,1.750000*%
%TD*%
%TA.AperFunction,ComponentPad*%
%ADD22R,1.800000X1.800000*%
%TD*%
%TA.AperFunction,ComponentPad*%
%ADD23C,1.800000*%
%TD*%
%TA.AperFunction,ViaPad*%
%ADD24C,0.800000*%
%TD*%
%TA.AperFunction,Conductor*%
%ADD25C,0.250000*%
%TD*%
G04 APERTURE END LIST*
D10*
%TO.N,Net-(J2-Pin_5)*%
X133610000Y-171885000D02*
X132320000Y-171845000D01*
X126310000Y-144685000D02*
X126310000Y-151045000D01*
X133610000Y-151015000D02*
X133610000Y-171885000D01*
X120830000Y-139205000D02*
X126310000Y-144685000D01*
X126310000Y-151045000D02*
X133610000Y-151015000D01*
%TO.N,Net-(D2-A)*%
X132400000Y-161705000D02*
X132400000Y-153465000D01*
X132400000Y-153465000D02*
X129550000Y-153465000D01*
%TD*%
D11*
%TO.P,TP2,1,1*%
%TO.N,Net-(D1-K)*%
X131630000Y-140685000D03*
%TD*%
%TO.P,TP1,1,1*%
%TO.N,Net-(C1-Pad1)*%
X131630000Y-145875000D03*
%TD*%
D12*
%TO.P,D1,1,K*%
%TO.N,Net-(D1-K)*%
X130290000Y-127535000D03*
D13*
%TO.P,D1,2,A*%
%TO.N,+5V*%
X130290000Y-135155000D03*
%TD*%
D14*
%TO.P,R1,1*%
%TO.N,Net-(D2-A)*%
X132340000Y-161725000D03*
D13*
%TO.P,R1,2*%
%TO.N,Net-(J2-Pin_5)*%
X132340000Y-171885000D03*
%TD*%
D15*
%TO.P,C1,1*%
%TO.N,Net-(C1-Pad1)*%
X88390000Y-151120000D03*
D16*
%TO.P,C1,2*%
%TO.N,GND*%
X88390000Y-171610000D03*
%TD*%
D17*
%TO.P,J2,1,Pin_1*%
%TO.N,unconnected-(J2-Pin_1-Pad1)*%
X120865000Y-129050000D03*
D18*
%TO.P,J2,2,Pin_2*%
%TO.N,Net-(D1-K)*%
X120865000Y-131590000D03*
%TO.P,J2,3,Pin_3*%
%TO.N,GND*%
X120865000Y-134130000D03*
%TO.P,J2,4,Pin_4*%
%TO.N,unconnected-(J2-Pin_4-Pad4)*%
X120865000Y-136670000D03*
%TO.P,J2,5,Pin_5*%
%TO.N,Net-(J2-Pin_5)*%
X120865000Y-139210000D03*
%TO.P,J2,6,Pin_6*%
%TO.N,GND*%
X120865000Y-141750000D03*
%TO.P,J2,7,Pin_7*%
%TO.N,RST*%
X120865000Y-144290000D03*
%TO.P,J2,8,Pin_8*%
%TO.N,ExtAudio*%
X120865000Y-146830000D03*
%TO.P,J2,9,Pin_9*%
%TO.N,IRQ*%
X120865000Y-149370000D03*
%TO.P,J2,10,Pin_10*%
%TO.N,Clk*%
X120865000Y-151910000D03*
%TO.P,J2,11,Pin_11*%
%TO.N,RW*%
X120865000Y-154450000D03*
%TO.P,J2,12,Pin_12*%
%TO.N,GND*%
X120865000Y-156990000D03*
%TO.P,J2,13,Pin_13*%
%TO.N,unconnected-(J2-Pin_13-Pad13)*%
X120865000Y-159530000D03*
%TO.P,J2,14,Pin_14*%
%TO.N,Halt*%
X120865000Y-162070000D03*
%TO.P,J2,15,Pin_15*%
%TO.N,/D7*%
X120865000Y-164610000D03*
%TO.P,J2,16,Pin_16*%
%TO.N,/D6*%
X120865000Y-167150000D03*
%TO.P,J2,17,Pin_17*%
%TO.N,/D5*%
X120865000Y-169690000D03*
%TO.P,J2,18,Pin_18*%
%TO.N,/D4*%
X120865000Y-172230000D03*
%TO.P,J2,19,Pin_19*%
%TO.N,/D3*%
X120865000Y-174770000D03*
%TO.P,J2,20,Pin_20*%
%TO.N,/D2*%
X120865000Y-177310000D03*
%TD*%
D17*
%TO.P,J1,1,Pin_1*%
%TO.N,/A0*%
X103065000Y-129015000D03*
D18*
%TO.P,J1,2,Pin_2*%
%TO.N,/A1*%
X103065000Y-131555000D03*
%TO.P,J1,3,Pin_3*%
%TO.N,/A2*%
X103065000Y-134095000D03*
%TO.P,J1,4,Pin_4*%
%TO.N,/A3*%
X103065000Y-136635000D03*
%TO.P,J1,5,Pin_5*%
%TO.N,/A4*%
X103065000Y-139175000D03*
%TO.P,J1,6,Pin_6*%
%TO.N,GND*%
X103065000Y-141715000D03*
%TO.P,J1,7,Pin_7*%
%TO.N,/A5*%
X103065000Y-144255000D03*
%TO.P,J1,8,Pin_8*%
%TO.N,/A6*%
X103065000Y-146795000D03*
%TO.P,J1,9,Pin_9*%
%TO.N,/A7*%
X103065000Y-149335000D03*
%TO.P,J1,10,Pin_10*%
%TO.N,/A8*%
X103065000Y-151875000D03*
%TO.P,J1,11,Pin_11*%
%TO.N,/A9*%
X103065000Y-154415000D03*
%TO.P,J1,12,Pin_12*%
%TO.N,/A10*%
X103065000Y-156955000D03*
%TO.P,J1,13,Pin_13*%
%TO.N,/A11*%
X103065000Y-159495000D03*
%TO.P,J1,14,Pin_14*%
%TO.N,/A12*%
X103065000Y-162035000D03*
%TO.P,J1,15,Pin_15*%
%TO.N,GND*%
X103065000Y-164575000D03*
%TO.P,J1,16,Pin_16*%
%TO.N,/A13*%
X103065000Y-167115000D03*
%TO.P,J1,17,Pin_17*%
%TO.N,/A14*%
X103065000Y-169655000D03*
%TO.P,J1,18,Pin_18*%
%TO.N,/A15*%
X103065000Y-172195000D03*
%TO.P,J1,19,Pin_19*%
%TO.N,/D0*%
X103065000Y-174735000D03*
%TO.P,J1,20,Pin_20*%
%TO.N,/D1*%
X103065000Y-177275000D03*
%TD*%
D19*
%TO.P,U1,13,A7*%
%TO.N,/A7*%
X91130000Y-104000000D03*
%TO.P,U1,14,A6*%
%TO.N,/A6*%
X93670000Y-104000000D03*
%TO.P,U1,15,A5*%
%TO.N,/A5*%
X96210000Y-104000000D03*
%TO.P,U1,16,A4*%
%TO.N,/A4*%
X98750000Y-104000000D03*
%TO.P,U1,17,A3*%
%TO.N,/A3*%
X101290000Y-104000000D03*
%TO.P,U1,18,A2*%
%TO.N,/A2*%
X103830000Y-104000000D03*
%TO.P,U1,19,A1*%
%TO.N,/A1*%
X106370000Y-104000000D03*
%TO.P,U1,20,A0*%
%TO.N,/A0*%
X108910000Y-104000000D03*
%TO.P,U1,21,D0*%
%TO.N,/D0*%
X111450000Y-104000000D03*
%TO.P,U1,22,D1*%
%TO.N,/D1*%
X113990000Y-104000000D03*
%TO.P,U1,23,D2*%
%TO.N,/D2*%
X116530000Y-104000000D03*
%TO.P,U1,24,GND*%
%TO.N,GND*%
X119070000Y-104000000D03*
%TD*%
%TO.P,U2,17,A15*%
%TO.N,/A15*%
X126590000Y-200700000D03*
%TO.P,U2,18,Exaudio*%
%TO.N,ExtAudio*%
X124050000Y-200700000D03*
%TO.P,U2,19,A7*%
%TO.N,/A7*%
X118970000Y-200700000D03*
%TO.P,U2,20,A6*%
%TO.N,/A6*%
X116430000Y-200700000D03*
%TO.P,U2,21,A5*%
%TO.N,/A5*%
X113890000Y-200700000D03*
%TO.P,U2,22,A4*%
%TO.N,/A4*%
X111350000Y-200700000D03*
%TO.P,U2,23,A3*%
%TO.N,/A3*%
X108810000Y-200700000D03*
%TO.P,U2,24,A2*%
%TO.N,/A2*%
X106270000Y-200700000D03*
%TO.P,U2,25,A1*%
%TO.N,/A1*%
X103730000Y-200700000D03*
%TO.P,U2,26,A0*%
%TO.N,/A0*%
X101190000Y-200700000D03*
%TO.P,U2,27,D0*%
%TO.N,/D0*%
X98650000Y-200700000D03*
%TO.P,U2,28,D1*%
%TO.N,/D1*%
X96110000Y-200700000D03*
%TO.P,U2,29,D2*%
%TO.N,/D2*%
X93570000Y-200700000D03*
%TO.P,U2,30,GND*%
%TO.N,GND*%
X91030000Y-200700000D03*
%TO.P,U2,31,IRQ*%
%TO.N,IRQ*%
X85950000Y-200700000D03*
%TO.P,U2,32,Phase_2_CLK*%
%TO.N,Clk*%
X83410000Y-200700000D03*
%TD*%
D20*
%TO.P,SW1,*%
%TO.N,*%
X80320000Y-152465000D03*
X80320000Y-145455000D03*
D21*
%TO.P,SW1,1,1*%
%TO.N,GND*%
X77830000Y-151215000D03*
%TO.P,SW1,2,2*%
%TO.N,RST*%
X77830000Y-146715000D03*
%TD*%
D22*
%TO.P,D2,1,K*%
%TO.N,GND*%
X129515000Y-156010000D03*
D23*
%TO.P,D2,2,A*%
%TO.N,Net-(D2-A)*%
X129515000Y-153470000D03*
%TD*%
D24*
%TO.N,+5V*%
X104733800Y-142252200D03*
%TO.N,/A9*%
X111350000Y-157524100D03*
%TO.N,/D3*%
X101811400Y-188624900D03*
X118896400Y-187512500D03*
%TO.N,/D4*%
X94256300Y-195104800D03*
%TO.N,/D5*%
X102415300Y-184497000D03*
%TO.N,/D6*%
X103196400Y-185278100D03*
%TO.N,/D7*%
X103985200Y-186061300D03*
%TO.N,/A12*%
X96886300Y-162641600D03*
%TO.N,/A10*%
X106611300Y-155643200D03*
%TO.N,/A8*%
X113251200Y-155627000D03*
%TO.N,/A14*%
X123976300Y-173966700D03*
%TO.N,/A7*%
X107769000Y-189350500D03*
%TO.N,/A6*%
X106683000Y-189292100D03*
%TO.N,/A5*%
X106044700Y-190102300D03*
%TO.N,/A4*%
X105458100Y-192321900D03*
%TO.N,/A3*%
X100458000Y-182757200D03*
%TO.N,/A2*%
X100059900Y-184971200D03*
%TO.N,/A1*%
X99011000Y-184638300D03*
%TO.N,/A0*%
X99043400Y-190307700D03*
%TO.N,/D0*%
X109340500Y-109568600D03*
%TO.N,/D1*%
X109182300Y-111299200D03*
%TO.N,/D2*%
X109980500Y-113636800D03*
X113145000Y-170999900D03*
%TO.N,/A13*%
X123740000Y-172927900D03*
%TO.N,ExtAudio*%
X120756600Y-190685400D03*
%TO.N,Halt*%
X91787700Y-176717100D03*
%TO.N,RW*%
X112004000Y-155407500D03*
X90258500Y-154517400D03*
%TD*%
D25*
%TO.N,Net-(D1-K)*%
X120865000Y-131590000D02*
X122041700Y-131590000D01*
X126096700Y-127535000D02*
X122041700Y-131590000D01*
X130290000Y-127535000D02*
X126096700Y-127535000D01*
%TO.N,GND*%
X91030000Y-200700000D02*
X91030000Y-196873300D01*
X94853300Y-171610000D02*
X101888300Y-164575000D01*
X119070000Y-134130000D02*
X119070000Y-107826700D01*
X88390000Y-171610000D02*
X91030000Y-171610000D01*
X122563200Y-144257200D02*
X121232700Y-142926700D01*
X120625000Y-156990000D02*
X119688300Y-156990000D01*
X129515000Y-156010000D02*
X128288300Y-156010000D01*
X122041700Y-156990000D02*
X122041700Y-156531500D01*
X120865000Y-141750000D02*
X120865000Y-142926700D01*
X122563200Y-156010000D02*
X122563200Y-144257200D01*
X120625000Y-156990000D02*
X120865000Y-156990000D01*
X119070000Y-104000000D02*
X119070000Y-107826700D01*
X120865000Y-134130000D02*
X119070000Y-134130000D01*
X120865000Y-156990000D02*
X122041700Y-156990000D01*
X91030000Y-171610000D02*
X94853300Y-171610000D01*
X111826700Y-134130000D02*
X119070000Y-134130000D01*
X122041700Y-156531500D02*
X122563200Y-156010000D01*
X91030000Y-171610000D02*
X91030000Y-196873300D01*
X103065000Y-141715000D02*
X104241700Y-141715000D01*
X119688300Y-156990000D02*
X112103300Y-164575000D01*
X104241700Y-141715000D02*
X111826700Y-134130000D01*
X122563200Y-156010000D02*
X128288300Y-156010000D01*
X103065000Y-164575000D02*
X101888300Y-164575000D01*
X112103300Y-164575000D02*
X103065000Y-164575000D01*
X121232700Y-142926700D02*
X120865000Y-142926700D01*
%TO.N,+5V*%
X129163300Y-135155000D02*
X128918300Y-135400000D01*
X128918300Y-135400000D02*
X111586000Y-135400000D01*
X130290000Y-135155000D02*
X129163300Y-135155000D01*
X111586000Y-135400000D02*
X104733800Y-142252200D01*
%TO.N,/A9*%
X108240900Y-154415000D02*
X111350000Y-157524100D01*
X103065000Y-154415000D02*
X108240900Y-154415000D01*
%TO.N,/D3*%
X118896400Y-187512500D02*
X102923800Y-187512500D01*
X102923800Y-187512500D02*
X101811400Y-188624900D01*
%TO.N,/D4*%
X115018800Y-168450300D02*
X118798500Y-172230000D01*
X94256300Y-176798900D02*
X102604900Y-168450300D01*
X102604900Y-168450300D02*
X115018800Y-168450300D01*
X118798500Y-172230000D02*
X120865000Y-172230000D01*
X94256300Y-195104800D02*
X94256300Y-176798900D01*
%TO.N,/D5*%
X124285000Y-175567300D02*
X115355300Y-184497000D01*
X120865000Y-169690000D02*
X122041700Y-169690000D01*
X124285000Y-174686000D02*
X124285000Y-175567300D01*
X124714600Y-172362900D02*
X124714600Y-174256400D01*
X124714600Y-174256400D02*
X124285000Y-174686000D01*
X115355300Y-184497000D02*
X102415300Y-184497000D01*
X122041700Y-169690000D02*
X124714600Y-172362900D01*
%TO.N,/D6*%
X120865000Y-168326700D02*
X121377800Y-168326700D01*
X124867900Y-175649300D02*
X115239100Y-185278100D01*
X125188400Y-172137300D02*
X125188400Y-175066300D01*
X124867900Y-175386800D02*
X124867900Y-175649300D01*
X121377800Y-168326700D02*
X125188400Y-172137300D01*
X120865000Y-167150000D02*
X120865000Y-168326700D01*
X125188400Y-175066300D02*
X124867900Y-175386800D01*
X115239100Y-185278100D02*
X103196400Y-185278100D01*
%TO.N,/D7*%
X125653300Y-170207300D02*
X125653300Y-175502700D01*
X120865000Y-164610000D02*
X120865000Y-165786700D01*
X125653300Y-175502700D02*
X115094700Y-186061300D01*
X120865000Y-165786700D02*
X121232700Y-165786700D01*
X115094700Y-186061300D02*
X103985200Y-186061300D01*
X121232700Y-165786700D02*
X125653300Y-170207300D01*
%TO.N,/A12*%
X96886300Y-162641600D02*
X101281700Y-162641600D01*
X101281700Y-162641600D02*
X101888300Y-162035000D01*
X103065000Y-162035000D02*
X101888300Y-162035000D01*
%TO.N,/A10*%
X104241700Y-156955000D02*
X105553500Y-155643200D01*
X103065000Y-156955000D02*
X104241700Y-156955000D01*
X105553500Y-155643200D02*
X106611300Y-155643200D01*
%TO.N,/A8*%
X109499200Y-151875000D02*
X113251200Y-155627000D01*
X103065000Y-151875000D02*
X109499200Y-151875000D01*
%TO.N,RST*%
X120865000Y-144290000D02*
X120865000Y-145466700D01*
X119688300Y-146275600D02*
X120497200Y-145466700D01*
X89393900Y-158288900D02*
X111645000Y-158288900D01*
X120497200Y-145466700D02*
X120865000Y-145466700D01*
X119688300Y-150245600D02*
X119688300Y-146275600D01*
X111645000Y-158288900D02*
X119688300Y-150245600D01*
X77825000Y-146720000D02*
X89393900Y-158288900D01*
%TO.N,/A14*%
X103065000Y-169655000D02*
X104241700Y-169655000D01*
X104241700Y-169655000D02*
X115067200Y-169655000D01*
X115067200Y-169655000D02*
X118987900Y-173575700D01*
X123751200Y-173966700D02*
X123976300Y-173966700D01*
X118987900Y-173575700D02*
X123360200Y-173575700D01*
X123360200Y-173575700D02*
X123751200Y-173966700D01*
%TO.N,/A7*%
X91130000Y-136591000D02*
X91130000Y-104000000D01*
X111447200Y-189350500D02*
X107769000Y-189350500D01*
X103065000Y-149335000D02*
X103065000Y-148158300D01*
X118970000Y-200700000D02*
X118970000Y-196873300D01*
X103065000Y-148158300D02*
X102697300Y-148158300D01*
X102697300Y-148158300D02*
X91130000Y-136591000D01*
X118970000Y-196873300D02*
X111447200Y-189350500D01*
%TO.N,/A6*%
X106683000Y-189292100D02*
X107468100Y-190077200D01*
X109633900Y-190077200D02*
X116430000Y-196873300D01*
X107468100Y-190077200D02*
X109633900Y-190077200D01*
X102697300Y-145618300D02*
X93670000Y-136591000D01*
X103065000Y-146795000D02*
X103065000Y-145618300D01*
X103065000Y-145618300D02*
X102697300Y-145618300D01*
X93670000Y-136591000D02*
X93670000Y-104000000D01*
X116430000Y-200700000D02*
X116430000Y-196873300D01*
%TO.N,/A5*%
X113890000Y-200700000D02*
X113890000Y-196873300D01*
X103065000Y-144255000D02*
X103065000Y-143078300D01*
X96210000Y-136591000D02*
X96210000Y-104000000D01*
X112815700Y-196873300D02*
X106044700Y-190102300D01*
X102697300Y-143078300D02*
X96210000Y-136591000D01*
X113890000Y-196873300D02*
X112815700Y-196873300D01*
X103065000Y-143078300D02*
X102697300Y-143078300D01*
%TO.N,/A4*%
X98750000Y-134051000D02*
X98750000Y-104000000D01*
X110009500Y-196873300D02*
X105458100Y-192321900D01*
X103065000Y-139175000D02*
X103065000Y-137998300D01*
X102697300Y-137998300D02*
X98750000Y-134051000D01*
X103065000Y-137998300D02*
X102697300Y-137998300D01*
X111350000Y-196873300D02*
X110009500Y-196873300D01*
X111350000Y-200700000D02*
X111350000Y-196873300D01*
%TO.N,/A3*%
X108810000Y-196873300D02*
X102086200Y-190149500D01*
X100910400Y-108206300D02*
X101290000Y-107826700D01*
X101290000Y-104000000D02*
X101290000Y-107826700D01*
X101011900Y-183311100D02*
X100458000Y-182757200D01*
X102086200Y-190149500D02*
X102086200Y-189957100D01*
X103065000Y-135458300D02*
X102697300Y-135458300D01*
X103065000Y-136635000D02*
X103065000Y-135458300D01*
X108810000Y-200700000D02*
X108810000Y-196873300D01*
X102086200Y-189957100D02*
X101011900Y-188882800D01*
X102697300Y-135458300D02*
X100910400Y-133671400D01*
X101011900Y-188882800D02*
X101011900Y-183311100D01*
X100910400Y-133671400D02*
X100910400Y-108206300D01*
%TO.N,/A2*%
X100059900Y-184971200D02*
X100059900Y-188601500D01*
X101080900Y-189622500D02*
X101080900Y-191684200D01*
X103065000Y-134095000D02*
X103065000Y-132918300D01*
X101080900Y-191684200D02*
X106270000Y-196873300D01*
X103830000Y-109351900D02*
X103830000Y-104000000D01*
X103065000Y-132918300D02*
X102697300Y-132918300D01*
X101400900Y-111781000D02*
X103830000Y-109351900D01*
X102697300Y-132918300D02*
X101400900Y-131621900D01*
X100059900Y-188601500D02*
X101080900Y-189622500D01*
X106270000Y-200700000D02*
X106270000Y-196873300D01*
X101400900Y-131621900D02*
X101400900Y-111781000D01*
%TO.N,/A1*%
X106370000Y-104000000D02*
X106370000Y-107826700D01*
X101888300Y-130010600D02*
X101888300Y-112308400D01*
X103065000Y-130378300D02*
X102256000Y-130378300D01*
X100179000Y-189582500D02*
X99011000Y-188414500D01*
X101888300Y-112308400D02*
X106370000Y-107826700D01*
X103730000Y-196873300D02*
X100179000Y-193322300D01*
X103065000Y-131555000D02*
X103065000Y-130378300D01*
X103730000Y-200700000D02*
X103730000Y-196873300D01*
X100179000Y-193322300D02*
X100179000Y-189582500D01*
X99011000Y-188414500D02*
X99011000Y-184638300D01*
X102256000Y-130378300D02*
X101888300Y-130010600D01*
%TO.N,/A0*%
X103065000Y-129015000D02*
X103065000Y-127838300D01*
X108910000Y-104000000D02*
X108910000Y-107826700D01*
X99043400Y-194726700D02*
X99043400Y-190307700D01*
X108910000Y-107826700D02*
X103065000Y-113671700D01*
X103065000Y-113671700D02*
X103065000Y-127838300D01*
X101190000Y-200700000D02*
X101190000Y-196873300D01*
X101190000Y-196873300D02*
X99043400Y-194726700D01*
%TO.N,/D0*%
X103065000Y-175911700D02*
X103432800Y-175911700D01*
X98650000Y-200700000D02*
X98650000Y-196873300D01*
X111082400Y-107826700D02*
X111450000Y-107826700D01*
X111450000Y-104000000D02*
X111450000Y-107826700D01*
X104241700Y-177918900D02*
X98284300Y-183876300D01*
X98284300Y-183876300D02*
X98284300Y-196507600D01*
X109340500Y-109568600D02*
X111082400Y-107826700D01*
X103432800Y-175911700D02*
X104241700Y-176720600D01*
X104241700Y-176720600D02*
X104241700Y-177918900D01*
X98284300Y-196507600D02*
X98650000Y-196873300D01*
X103065000Y-174735000D02*
X103065000Y-175911700D01*
%TO.N,/D1*%
X96110000Y-185406700D02*
X103065000Y-178451700D01*
X103065000Y-177275000D02*
X103065000Y-178451700D01*
X96110000Y-200700000D02*
X96110000Y-185406700D01*
X113990000Y-104000000D02*
X113990000Y-107826700D01*
X112654800Y-107826700D02*
X109182300Y-111299200D01*
X113990000Y-107826700D02*
X112654800Y-107826700D01*
%TO.N,/D2*%
X116530000Y-104000000D02*
X116530000Y-107826700D01*
X93570000Y-200700000D02*
X93570000Y-196873300D01*
X102583700Y-170999900D02*
X113145000Y-170999900D01*
X93570000Y-196873300D02*
X95376800Y-195066500D01*
X119688300Y-177310000D02*
X113378200Y-170999900D01*
X113378200Y-170999900D02*
X113145000Y-170999900D01*
X95376800Y-178206800D02*
X102583700Y-170999900D01*
X115790600Y-107826700D02*
X109980500Y-113636800D01*
X95376800Y-195066500D02*
X95376800Y-178206800D01*
X120865000Y-177310000D02*
X119688300Y-177310000D01*
X116530000Y-107826700D02*
X115790600Y-107826700D01*
%TO.N,/A13*%
X121819800Y-171007700D02*
X119105000Y-171007700D01*
X119105000Y-171007700D02*
X115212300Y-167115000D01*
X123740000Y-172927900D02*
X121819800Y-171007700D01*
X115212300Y-167115000D02*
X103065000Y-167115000D01*
%TO.N,Net-(C1-Pad1)*%
X117041700Y-138004200D02*
X121338100Y-138004200D01*
X122300900Y-138967000D02*
X122300900Y-139705900D01*
X104349600Y-150696300D02*
X117041700Y-138004200D01*
X90216700Y-151120000D02*
X90640400Y-150696300D01*
X90640400Y-150696300D02*
X104349600Y-150696300D01*
X88390000Y-151120000D02*
X90216700Y-151120000D01*
X122300900Y-139705900D02*
X128530000Y-145935000D01*
X128530000Y-145935000D02*
X131750000Y-145935000D01*
X121338100Y-138004200D02*
X122300900Y-138967000D01*
%TO.N,ExtAudio*%
X120756600Y-190685400D02*
X124050000Y-193978800D01*
X124050000Y-193978800D02*
X124050000Y-200700000D01*
%TO.N,/A15*%
X101688600Y-184801400D02*
X103675200Y-186788000D01*
X104695700Y-174634700D02*
X104695700Y-180060700D01*
X119166500Y-186753300D02*
X126590000Y-194176800D01*
X104322500Y-186753300D02*
X119166500Y-186753300D01*
X103675200Y-186788000D02*
X104287800Y-186788000D01*
X103065000Y-173371700D02*
X103432700Y-173371700D01*
X104695700Y-180060700D02*
X101688600Y-183067800D01*
X103065000Y-172195000D02*
X103065000Y-173371700D01*
X103432700Y-173371700D02*
X104695700Y-174634700D01*
X126590000Y-194176800D02*
X126590000Y-200700000D01*
X101688600Y-183067800D02*
X101688600Y-184801400D01*
X104287800Y-186788000D02*
X104322500Y-186753300D01*
%TO.N,Halt*%
X115973100Y-165785200D02*
X102719600Y-165785200D01*
X102719600Y-165785200D02*
X91787700Y-176717100D01*
X119688300Y-162070000D02*
X115973100Y-165785200D01*
X120865000Y-162070000D02*
X119688300Y-162070000D01*
%TO.N,IRQ*%
X121232800Y-150546700D02*
X120865000Y-150546700D01*
X120865000Y-149370000D02*
X120865000Y-150546700D01*
X121336700Y-155720000D02*
X122041700Y-155015000D01*
X111877300Y-163381500D02*
X119538800Y-155720000D01*
X119538800Y-155720000D02*
X121336700Y-155720000D01*
X122041700Y-151355600D02*
X121232800Y-150546700D01*
X94033800Y-163381500D02*
X111877300Y-163381500D01*
X85950000Y-171465300D02*
X94033800Y-163381500D01*
X85950000Y-200700000D02*
X85950000Y-196873300D01*
X122041700Y-155015000D02*
X122041700Y-151355600D01*
X85950000Y-196873300D02*
X85950000Y-171465300D01*
%TO.N,RW*%
X112004000Y-155407500D02*
X109821500Y-153225000D01*
X109821500Y-153225000D02*
X91550900Y-153225000D01*
X91550900Y-153225000D02*
X90258500Y-154517400D01*
%TO.N,Clk*%
X120865000Y-151910000D02*
X119688300Y-151910000D01*
X83410000Y-200700000D02*
X83410000Y-173288700D01*
X95933700Y-160765000D02*
X110833300Y-160765000D01*
X83410000Y-173288700D02*
X95933700Y-160765000D01*
X110833300Y-160765000D02*
X119688300Y-151910000D01*
%TD*%
M02*
